<?xml version="1.0" encoding="UTF-8"?>
<svg width="180px" height="180px" viewBox="0 0 180 180" version="1.1" xmlns="http://www.w3.org/2000/svg" xmlns:xlink="http://www.w3.org/1999/xlink">
    <!-- Generator: Sketch 50.2 (55047) - http://www.bohemiancoding.com/sketch -->
    <title>app</title>
    <desc>Created with Sketch.</desc>
    <defs>
        <circle id="path-1" cx="90" cy="90" r="90"></circle>
    </defs>
    <g id="Page-1" stroke="none" stroke-width="1" fill="none" fill-rule="evenodd">
        <g id="Artboard-5-Copy" transform="translate(-1410.000000, -195.000000)">
            <g id="Group-2" transform="translate(330.000000, 195.000000)">
                <g id="app" transform="translate(1080.000000, 0.000000)">
                    <mask id="mask-2" fill="white">
                        <use xlink:href="#path-1"></use>
                    </mask>
                    <use id="Oval" fill="#FFBBAE" opacity="0.200892857" xlink:href="#path-1"></use>
                    <g id="undraw_mobile_testing_reah-(1)" mask="url(#mask-2)">
                        <g transform="translate(-12.000000, 18.000000)">
                            <path d="M90.7268767,68.4829766 C82.7776409,65.9330188 74.3728426,63.7953297 65.7831783,64.0156425 C53.1550734,64.3406585 41.013342,70.1734961 35.0250057,78.7940548 C29.9632,86.0992803 29.2875589,94.684938 27.0779707,102.808157 C24.3555995,112.816032 19.1881561,122.31348 13.6729886,131.601521 C10.7107319,136.590189 7.58561701,141.683561 7.0706333,147.165207 C6.36418128,154.775816 11.016641,162.384245 18.3518577,167.48416 C25.6870745,172.584076 35.4475564,175.301995 45.2542549,175.936758 C50.4723164,176.27268 55.9258618,176.013104 60.5717192,174.15026 C65.4860723,172.187077 69.0799544,168.59445 74.0141146,166.653079 C78.5873461,164.855675 83.9176476,164.624456 89.0476777,164.888395 C95.6913779,165.221496 102.271266,166.338954 108.64787,168.217082 C115.798221,170.337321 122.442391,173.388981 129.577336,175.539758 C136.712281,177.690535 144.687927,178.907709 151.998935,177.177926 C158.863184,175.555028 164.307926,171.554495 169.217877,167.501611 C177.130218,160.987033 184.487402,153.837202 191.214725,146.124719 C195.649307,141.022622 199.78018,135.634773 201.760887,129.673238 C205.544036,118.273683 200.475628,105.36684 189.134983,97.5162855 C179.739831,91.0094214 167.100722,88.136629 154.723507,86.3915766 C143.43568,84.7839471 130.376221,84.6247111 120.00172,80.5303819 C110.10699,76.6149207 101.105779,71.811664 90.7268767,68.4829766 Z" id="Shape" stroke="none" fill="#FD7764" fill-rule="nonzero" opacity="0.1"></path>
                            <ellipse id="Oval" stroke="none" fill="#FF6347" fill-rule="nonzero" opacity="0.1" cx="192" cy="106.5" rx="5" ry="1"></ellipse>
                            <ellipse id="Oval" stroke="none" fill="#FF6347" fill-rule="nonzero" opacity="0.1" cx="172" cy="108.5" rx="5" ry="1"></ellipse>
                            <ellipse id="Oval" stroke="none" fill="#FF6347" fill-rule="nonzero" opacity="0.1" cx="150" cy="105.5" rx="5" ry="1"></ellipse>
                            <ellipse id="Oval" stroke="none" fill="#FF6347" fill-rule="nonzero" opacity="0.1" cx="180.5" cy="114.5" rx="3.5" ry="1"></ellipse>
                            <ellipse id="Oval" stroke="none" fill="#FF6347" fill-rule="nonzero" opacity="0.1" cx="160.5" cy="113.5" rx="3.5" ry="1"></ellipse>
                            <path d="M173.079356,108 C173.079356,108 180.353778,84.9892951 171.941746,75.7728863 C165.659087,68.8779038 158.505831,69.7094594 155.308406,70.5561737 C153.633223,70.986407 152.238489,72.1052242 151.493934,73.6160387 C150.372031,75.9439616 150.578461,79.7227758 158.472174,84.1339188 C171.69044,91.520472 172.513917,101.652891 172.513917,101.652891 L173.079356,108 Z" id="Shape" stroke="none" fill="#9AA8FF" fill-rule="nonzero"></path>
                            <path d="M156,74 C156,74 177.026107,80.4363913 172.310855,108" id="Shape" stroke="#565987" stroke-width="1" fill="none"></path>
                            <path d="M168,76 C168,76 165.317819,77.998648 166.165681,81" id="Shape" stroke="#565987" stroke-width="1" fill="none"></path>
                            <path d="M158,78 C158,78 159.794728,76.37266 162,77.2698854" id="Shape" stroke="#565987" stroke-width="1" fill="none"></path>
                            <path d="M167,87.599276 C167,87.599276 170.178391,86.0140915 171,88" id="Shape" stroke="#565987" stroke-width="1" fill="none"></path>
                            <path d="M174,90.0121518 C174,90.0121518 172.035185,89.8159833 172,91" id="Shape" stroke="#565987" stroke-width="1" fill="none"></path>
                            <path d="M173,108 C173,108 164.375176,91.6479616 162.016968,92.0057881 C160.882123,92.1751735 160.373712,93.2084241 160.139934,94.2437921 C159.849451,95.5839559 160.013665,96.9752485 160.60976,98.2243479 C161.833123,100.841352 165.117365,105.810694 173,108 Z" id="Shape" stroke="none" fill="#9AA8FF" fill-rule="nonzero"></path>
                            <path d="M162,95 C162,95 170.380652,107.452586 172,108" id="Shape" stroke="#565987" stroke-width="1" fill="none"></path>
                            <path d="M161,97 L163,97" id="Shape" stroke="#565987" stroke-width="1" fill="none"></path>
                            <path d="M164,102 L167,102.31" id="Shape" stroke="#565987" stroke-width="1" fill="none"></path>
                            <path d="M165.5,98 L165,100" id="Shape" stroke="#565987" stroke-width="1" fill="none"></path>
                            <path d="M169.14,103 L169,105" id="Shape" stroke="#565987" stroke-width="1" fill="none"></path>
                            <path d="M172,108 C172,108 180.624824,91.6479616 182.983032,92.0057881 C184.117877,92.1751735 184.626288,93.2084241 184.860066,94.2437921 C185.150549,95.5839559 184.986335,96.9752485 184.39024,98.2243479 C183.166877,100.841352 179.882635,105.810694 172,108 Z" id="Shape" stroke="none" fill="#9AA8FF" fill-rule="nonzero"></path>
                            <path d="M183,95 C183,95 174.619348,107.452586 173,108" id="Shape" stroke="#565987" stroke-width="1" fill="none"></path>
                            <path d="M184,97 L182,97" id="Shape" stroke="#565987" stroke-width="1" fill="none"></path>
                            <path d="M181,102 L178,102.31" id="Shape" stroke="#565987" stroke-width="1" fill="none"></path>
                            <path d="M179,98 L179.5,100" id="Shape" stroke="#565987" stroke-width="1" fill="none"></path>
                            <path d="M176,103 L176.145,105" id="Shape" stroke="#565987" stroke-width="1" fill="none"></path>
                            <path d="M157.485913,112.258409 C157.263606,112.075671 157.101306,111.830071 157.020135,111.553573 C156.945973,111.266641 157.081613,110.966727 157.345748,110.833602 C157.645485,110.719012 157.96463,110.926571 158.208301,111.138455 C158.451972,111.350338 158.727989,111.586004 159.044977,111.542762 C158.713871,111.240944 158.564905,110.787123 158.652515,110.347136 C158.665766,110.257422 158.703027,110.172989 158.760334,110.102821 C158.926376,109.925531 159.228269,110.003366 159.426656,110.141739 C160.058476,110.589288 160.235299,111.449793 160.239612,112.223816 C160.270451,111.936368 160.270451,111.646433 160.239612,111.358986 C160.214589,111.068256 160.334939,110.783998 160.560913,110.600098 C160.710665,110.517822 160.87975,110.477493 161.050411,110.483346 C161.33574,110.442654 161.624899,110.525152 161.846116,110.710364 C162.085474,110.969813 162.022939,111.40439 161.81377,111.689783 C161.578506,111.951064 161.300696,112.170389 160.992189,112.338405 C160.755921,112.478522 160.554597,112.670766 160.403497,112.900545 C160.38654,112.93251 160.372119,112.965765 160.360369,113 L158.579198,113 C158.183154,112.803245 157.815406,112.553796 157.485913,112.258409 Z" id="Shape" stroke="none" fill="#9AA8FF" fill-rule="nonzero"></path>
                            <path d="M189.485644,106.254783 C189.262489,106.073045 189.100033,105.827367 189.020003,105.550607 C188.946132,105.264554 189.081798,104.965674 189.345521,104.833471 C189.645169,104.718988 189.96422,104.926353 190.207819,105.135878 C190.451418,105.345402 190.729509,105.585168 191.046404,105.539807 C190.713862,105.239215 190.563957,104.785318 190.651902,104.3453 C190.664951,104.255854 190.703077,104.171959 190.761845,104.103374 C190.927838,103.92625 191.227486,104.001852 191.425815,104.142255 C192.057449,104.587225 192.23422,105.438285 192.238531,106.222382 C192.270301,105.935255 192.270301,105.64549 192.238531,105.358363 C192.213515,105.067905 192.33383,104.783913 192.559737,104.600186 C192.710167,104.520094 192.87882,104.480638 193.049092,104.485703 C193.332846,104.440953 193.622185,104.519521 193.844562,104.701708 C194.086005,104.958754 194.023489,105.392924 193.812225,105.67805 C193.578562,105.944213 193.30068,106.16784 192.990886,106.339025 C192.754688,106.47901 192.553423,106.671074 192.402368,106.900638 C192.384641,106.932193 192.370194,106.965488 192.359253,107 L190.578607,107 C190.182786,106.801481 189.815213,106.550858 189.485644,106.254783 Z" id="Shape" stroke="none" fill="#FF6347" fill-rule="nonzero"></path>
                            <path d="M179.020092,111.553573 C178.94609,111.266641 179.081437,110.966727 179.345005,110.833602 C179.644097,110.719012 179.962554,110.926571 180.205701,111.138455 C180.448848,111.350338 180.724271,111.586004 181.040577,111.542762 C180.709768,111.241159 180.560354,110.787483 180.646808,110.347136 C180.661749,110.257533 180.69956,110.173356 180.756547,110.102821 C180.922231,109.925531 181.223475,110.003366 181.421435,110.141739 C182.051895,110.589288 182.228338,111.449793 182.232641,112.223816 C182.266992,111.936755 182.270599,111.64682 182.2434,111.358986 C182.21843,111.068256 182.338522,110.783998 182.564009,110.600098 C182.713439,110.517822 182.88216,110.477493 183.052454,110.483346 C183.33717,110.442654 183.625706,110.525152 183.846447,110.710364 C184.08529,110.969813 184.02289,111.40439 183.814171,111.689783 C183.579413,111.951064 183.302201,112.170389 182.994357,112.338405 C182.758598,112.478522 182.557707,112.670766 182.406932,112.900545 C182.390011,112.93251 182.375622,112.965765 182.363897,113 L180.586559,113 C180.187593,112.804087 179.816972,112.554607 179.484868,112.258409 C179.263039,112.075671 179.101088,111.830071 179.020092,111.553573 Z" id="Shape" stroke="none" fill="#9AA8FF" fill-rule="nonzero"></path>
                            <path d="M149.797678,99 C149.797678,99 148.996149,99.8019802 150.167416,101.011881 C151.338683,102.221782 152.300518,103.245545 151.912681,104 C151.912681,104 150.146731,101.752475 148.70915,101.720792 C147.271569,101.689109 148.215305,100.352475 149.797678,99 Z" id="Shape" stroke="none" fill="#9AA8FF" fill-rule="nonzero"></path>
                            <path d="M149.363927,99 C149.31016,99.0772354 149.267863,99.1619931 149.238377,99.2515848 C148.175125,100.513471 147.608189,101.692155 148.630244,101.72187 C149.583639,101.749604 150.727321,103.469097 151,103.900951 C151,103.934628 150.980383,103.968304 150.968613,104 C150.968613,104 149.628759,101.751585 148.538043,101.719889 C147.447328,101.688193 148.163355,100.353011 149.363927,99 Z" id="Shape" stroke="none" fill="#000000" fill-rule="nonzero" opacity="0.1"></path>
                            <path d="M148,100.261079 C148,100.670636 148.08,101 148.18,101 C148.28,101 148.355,100.670636 148.355,100.261079 C148.355,99.8515217 148.255,100.046276 148.16,100.046276 C148.065,100.046276 148,99.8543857 148,100.261079 Z" id="Shape" stroke="none" fill="#FFD037" fill-rule="nonzero"></path>
                            <path d="M147.237623,100.250085 C147.627224,100.428158 147.970073,100.53397 147.998124,100.490097 C148.026176,100.446224 147.736312,100.265569 147.346711,100.090077 C146.95711,99.9145839 147.109834,100.041042 147.078666,100.090077 C147.047498,100.139111 146.848022,100.074592 147.237623,100.250085 Z" id="Shape" stroke="none" fill="#FFD037" fill-rule="nonzero"></path>
                            <path d="M153.201618,99 C153.201618,99 154.003461,99.8019802 152.831736,101.011881 C151.66001,102.221782 150.697799,103.245545 151.088374,104 C151.088374,104 152.852428,101.752475 154.290572,101.720792 C155.728716,101.689109 154.784611,100.352475 153.201618,99 Z" id="Shape" stroke="none" fill="#9AA8FF" fill-rule="nonzero"></path>
                            <path d="M152.636073,99 C152.68984,99.0772354 152.732137,99.1619931 152.761623,99.2515848 C153.824875,100.513471 154.391811,101.692155 153.369756,101.72187 C152.416361,101.749604 151.272679,103.469097 151,103.900951 C151.009048,103.934641 151.020186,103.967723 151.033349,104 C151.033349,104 152.371241,101.751585 153.461957,101.719889 C154.552672,101.688193 153.836645,100.353011 152.636073,99 Z" id="Shape" stroke="none" fill="#000000" fill-rule="nonzero" opacity="0.1"></path>
                            <path d="M154.355,100.261079 C154.355,100.670636 154.275,101 154.175,101 C154.075,101 154,100.670636 154,100.261079 C154,99.8515217 154.1,100.046276 154.195,100.046276 C154.29,100.046276 154.355,99.8543857 154.355,100.261079 Z" id="Shape" stroke="none" fill="#FFD037" fill-rule="nonzero"></path>
                            <path d="M154.762377,100.250085 C154.372776,100.428158 154.029927,100.53397 154.001876,100.490097 C153.973824,100.446224 154.263688,100.265569 154.653289,100.090077 C155.04289,99.9145839 154.890166,100.041042 154.921334,100.090077 C154.952502,100.139111 155.151978,100.074592 154.762377,100.250085 Z" id="Shape" stroke="none" fill="#FFD037" fill-rule="nonzero"></path>
                            <path d="M154,104.14344 C154,104.14344 152.122218,104.079868 151.555628,103.625082 C150.989037,103.170297 148.664061,102.627489 148.516443,103.356123 C148.368826,104.084758 145.694344,106.979735 147.813089,106.999296 C149.931835,107.018856 152.745251,106.627643 153.309671,106.238875 C153.874091,105.850107 154,104.14344 154,104.14344 Z" id="Shape" stroke="none" fill="#A8A8A8" fill-rule="nonzero"></path>
                            <path d="M147.784891,106.734779 C149.908025,106.755322 152.720035,106.344463 153.287218,105.936172 C153.721841,105.628028 153.889171,104.513573 153.939153,104 L154,104 C154,104 153.882652,105.797507 153.315469,106.200662 C152.748286,106.603817 149.938448,107.019812 147.813142,106.999269 C147.200323,106.999269 146.989531,106.742482 147.000397,106.354734 C147.093841,106.58841 147.328537,106.732211 147.784891,106.734779 Z" id="Shape" stroke="none" fill="#000000" fill-rule="nonzero" opacity="0.2"></path>
                            <circle id="Oval" stroke="none" fill="#FF6347" fill-rule="nonzero" opacity="0.1" cx="28.5" cy="11.5" r="4.5"></circle>
                            <circle id="Oval" stroke="none" fill="#FF6347" fill-rule="nonzero" opacity="0.1" cx="110.5" cy="4.5" r="4.5"></circle>
                            <circle id="Oval" stroke="none" fill="#FF6347" fill-rule="nonzero" opacity="0.1" cx="185.5" cy="23.5" r="4.5"></circle>
                            <circle id="Oval" stroke="none" fill="#FF6347" fill-rule="nonzero" opacity="0.1" cx="8" cy="56" r="8"></circle>
                            <circle id="Oval" stroke="none" fill="#FF6347" fill-rule="nonzero" opacity="0.1" cx="16" cy="95" r="8"></circle>
                            <circle id="Oval" stroke="none" fill="#FF6347" fill-rule="nonzero" opacity="0.1" cx="165" cy="60" r="8"></circle>
                            <path d="M99.1245965,75.0329461 C98.8364164,75.0586336 98.5437335,75.0457899 98.2578049,75.0886024 C97.7777747,75.1794388 97.3197027,75.3543779 96.9069607,75.604494 C94.8581805,76.7133398 92.924222,78.2374676 92.0754416,80.3267215 C92.005609,80.4551487 91.9833977,80.6022232 92.0124022,80.7441442 C92.0627223,80.8611404 92.1451374,80.9631562 92.2510514,81.039551 L93.0480494,81.7288335 C93.1487969,81.828265 93.2688262,81.9082241 93.4015203,81.9643027 C93.6165719,82.0177501 93.8432763,82.0110606 94.0544283,81.945037 C96.2450471,81.4676767 98.5730018,80.9175351 100.110713,79.3591572 C100.840169,78.6206402 101.513339,77.6038415 102.58726,77.5760133 C103.037542,77.5760133 103.458555,77.7408417 103.902082,77.7900762 C104.345609,77.8393107 104.879192,77.6594978 104.985009,77.2484971 C105.019345,77.0440917 104.994438,76.8346536 104.912964,76.6426991 L104.25105,74.5470233 C104.070937,73.9733348 102.254052,73.9433659 101.648424,74.0461161 C100.725347,74.1981008 100.103958,74.9473209 99.1245965,75.0329461 Z" id="Shape" stroke="none" fill="#65617D" fill-rule="nonzero"></path>
                            <path d="M105.618923,86.9717252 C105.589621,87.7223923 105.646132,88.4820226 105.531017,89.2259674 C105.429771,89.812597 105.254443,90.3817509 105.009859,90.9177695 C104.633412,91.7796953 104.155082,92.5862639 103.586615,93.3176635 C103.057085,93.9899027 102.422904,94.6218076 101.638027,94.8862217 C100.853151,95.1506358 99.8882751,94.960168 99.3985119,94.252076 C98.9987479,93.6761911 98.9799109,92.9075976 99.0092129,92.1883016 C99.0803751,90.4203124 99.3399078,88.6276745 100.080832,87.0456715 C100.398968,86.3734323 100.802918,85.7325642 101.127334,85.0536026 C101.805468,83.644141 102.192674,81.9725061 103.362664,81 C104.096681,81.363105 104.881641,81.5940224 105.685899,81.6834432 C105.997757,81.719296 106.889377,81.741704 106.994028,82.1696963 C107.06519,82.4587591 106.479148,83.267687 106.366126,83.5522683 C105.919394,84.6319879 105.665938,85.7918906 105.618923,86.9717252 Z" id="Shape" stroke="none" fill="#65617D" fill-rule="nonzero"></path>
                            <path d="M97.7058451,56.1810623 C97.9708393,56.8612454 98.3064986,57.5280915 98.3683306,58.2527311 C98.4124963,58.6972952 98.3683306,59.1418593 98.3683306,59.5864234 C98.4055115,60.1955168 98.5061731,60.7989917 98.6686574,61.3869081 L99.8986721,66.4549391 C100.08196,67.2129209 100.265247,67.9909081 100.170291,68.7644497 C100.106251,69.2801441 99.920755,69.7802787 99.9229633,70.2981959 C99.946447,70.6909291 100.008583,71.0803481 100.108459,71.4607311 C100.341341,72.6358947 100.277562,73.8510932 99.9229633,74.9950158 C99.8866359,75.0812023 99.8736814,75.1755489 99.8854224,75.2684228 C99.9163384,75.4129061 100.05546,75.5018189 100.181333,75.5707264 C101.50557,76.300054 102.949131,76.7841571 104.443323,77 C105.791927,73.7706357 106.734076,70.3842025 107.247845,66.9195086 C107.561421,64.8211659 107.713793,62.6961494 108.115701,60.6133665 C108.12487,60.4930533 108.175663,60.3797861 108.259239,60.2932804 C108.409403,60.1665796 108.636856,60.2466011 108.813519,60.3310683 C111.070256,61.4234189 113.24135,62.6866471 115.308085,64.1098633 C116.779356,62.1921324 117.328661,59.7157965 116.807511,57.3502659 C116.547942,56.3428269 116.177608,55.3676548 115.703368,54.4428166 C115.198112,53.3178441 114.568454,52.2538016 113.826326,51.2708516 C112.187779,49.2036284 109.785164,47.883273 107.311885,46.9874763 C105.808043,46.4406624 104.260035,46.036109 102.714236,45.6226644 C101.848588,45.3892682 100.397745,44.6290636 99.556388,45.2203339 C98.6730739,45.8360552 98.0856701,47.3631329 97.7235114,48.3322827 C97.2764626,49.5343472 97.0331123,50.8034395 97.0036104,52.0866267 C96.9672447,53.4846916 97.2059007,54.8761946 97.7058451,56.1810623 Z" id="Shape" stroke="none" fill="#3F3D56" fill-rule="nonzero"></path>
                            <path d="M115,61.3635294 C114.53972,61.8711236 114.927324,62.6814933 114.839232,63.3671908 C114.781625,63.6768111 114.672139,63.9742137 114.515495,64.2465756 L112.407897,68.4297754 C112.055614,69.0575356 111.791729,69.7319285 111.623879,70.4334368 C111.335378,71.9428618 111.927796,73.6392951 111.170206,74.9728432 C110.925751,75.4025172 110.546956,75.7720814 110.44565,76.2574128 C110.370772,76.611393 110.44565,76.9809572 110.408211,77.3393899 C110.357559,77.7601588 110.135127,78.1386282 110.011798,78.5438131 C109.915598,78.9331497 109.847151,79.3289611 109.806984,79.7281996 C109.539798,81.430687 108.657866,82.9726396 107.331603,84.0561084 C106.571647,84.7071904 105.595824,85.0429031 104.600755,84.995603 C103.618531,84.9110039 102.642913,84.2364379 102.442504,83.2613227 C102.374233,82.9296054 102.387447,82.5600412 102.182633,82.29066 C101.89193,81.9055117 101.279692,81.8899277 101,81.4958743 L102.08353,79.692579 C102.420481,79.1337801 102.76404,78.550492 102.819097,77.8981889 C102.885166,77.0989506 102.504169,76.3019386 102.640711,75.5116054 C102.757433,74.8325868 103.239736,74.2671091 103.385087,73.5947693 C103.565676,72.7599104 103.204499,71.9161463 103.008495,71.0835137 C102.528394,69.0331001 103.065754,66.8958612 103.600912,64.8499003 C104.312254,62.142731 105.041214,59.3932623 106.481516,57 C109.355514,58.5650822 111.99827,60.0678283 115,61.3635294 Z" id="Shape" stroke="none" fill="#3F3D56" fill-rule="nonzero"></path>
                            <path d="M114.842481,19.6674696 C115.014141,20.1322127 114.921708,20.6473761 114.888697,21.1406176 C114.81167,22.2367099 115.044951,23.3328022 114.992133,24.4442398 C114.939315,25.5556774 114.595995,26.6166947 114.358312,27.6974417 C113.682676,30.7818454 113.845533,33.995588 113.233719,37.0931448 C112.478855,40.9294679 110.548782,44.5027287 110.168049,48.3960485 C110.047006,49.6324407 110.062412,50.9565201 109.382374,52 C105.341341,50.2281544 101.521437,47.9931186 98,45.3401432 C98.7746705,39.6163493 99.5405379,33.8640569 99.4371018,28.0898428 C99.3869676,27.3937556 99.4358682,26.6941037 99.5823525,26.0116518 C99.7659573,25.4384072 100.029706,24.89378 100.365826,24.3938196 C101.217523,23.0149355 102.155051,21.690856 103.090377,20.3689687 C103.688986,19.5227854 104.336012,18.6349507 105.291146,18.2381652 C106.246279,17.8413798 107.377474,18.0189468 108.418438,18.2074747 C109.671409,18.4354619 110.922912,18.6634491 112.172949,18.8914363 C112.954221,19.0339282 114.507964,18.7620974 114.842481,19.6674696 Z" id="Shape" stroke="none" fill="#9AA8FF" fill-rule="nonzero"></path>
                            <path d="M38.0821155,93.0618812 C38.1961845,93.4002969 38.3678652,93.7151677 38.5891435,93.9917955 C39.366873,95.0343598 40.451827,95.8670859 40.9524098,97.0841472 C41.0576825,97.3447883 41.1350258,97.6186823 41.2317049,97.883741 C41.525728,98.6837272 42.0050668,99.397929 42.6281804,99.9644519 C43.1034843,100.370085 43.6199422,100.721848 44.1686003,101.013643 C45.1182036,101.545969 46.1451502,102.027492 47.223659,101.998778 C47.4405124,101.993986 47.6563868,101.967353 47.8681861,101.91926 C48.2038819,101.847706 48.5274784,101.725644 48.8285316,101.557013 C49.5224725,101.163843 50.1175859,100.395172 49.9800868,99.5933697 C49.9523363,99.4405201 49.9053945,99.2920233 49.8404392,99.1516052 C49.7264876,98.928184 49.5949977,98.7146927 49.4472777,98.5132555 C49.084194,97.996391 48.7103683,97.4662735 48.1797076,97.1349501 C47.5824458,96.7594503 46.8304974,96.6666797 46.2933914,96.202827 C46.0814654,96.0056423 45.8983872,95.7779867 45.7498402,95.5269272 C45.2630279,94.7576429 44.9002849,93.9125589 44.6756283,93.0243312 C44.5123481,92.3616844 44.4027785,91.6349818 43.9322736,91.1490408 C43.4617688,90.6630998 42.8150932,90.5526587 42.1877535,90.4422175 C41.9757517,90.3972682 41.759677,90.3757938 41.5432263,90.3781617 C41.2360017,90.3892058 40.918035,90.4797675 40.6301462,90.3317764 C40.3422574,90.1837853 40.2455783,89.9739471 39.8975336,90.0026618 C39.6205037,90.0410683 39.359368,90.1580967 39.1434369,90.3406117 C38.3270358,90.9612908 37.785633,92.0657022 38.0821155,93.0618812 Z" id="Shape" stroke="none" fill="#3F3D56" fill-rule="nonzero"></path>
                            <path d="M45.0166293,93.9281935 C45.1539042,94.6678445 45.3650964,95.4554965 45.9184201,95.9376879 C46.2711111,96.251876 46.763189,96.4482435 46.9384785,96.8911614 C47.1137681,97.3340793 46.8877924,97.8904539 46.5963471,98.2962802 C46.2242209,98.8094384 45.7630328,99.2466875 45.2362692,99.5857603 C44.7885417,99.8715842 44.2542253,100.08977 43.7410282,99.9632224 C43.3186438,99.8606749 42.98496,99.5464868 42.6702836,99.2432081 C41.9480062,98.551558 41.2088334,97.8337255 40.8033443,96.9064344 C40.3809599,95.9289605 40.3598407,94.7965743 39.8994416,93.8343734 C39.6312275,93.273635 39.2172907,92.7827162 39.0546727,92.1805224 C38.9817758,91.9628479 38.9817758,91.7261836 39.0546727,91.5085091 C39.2152799,91.1908562 39.5357054,90.994092 39.8825462,91.0001353 C40.2225913,91.0118629 40.5579366,91.085733 40.8730378,91.2183215 C41.8264901,91.5694571 42.8024451,91.8515992 43.7938263,92.0627019 C44.1887557,92.139067 44.427403,92.1368852 44.6385952,92.5318021 C44.8337038,92.9742841 44.9612298,93.4453425 45.0166293,93.9281935 Z" id="Shape" stroke="none" fill="#FBBEBE" fill-rule="nonzero"></path>
                            <path d="M48.3511777,100.366351 C48.2032427,100.636396 48.0983822,100.93673 48.0418746,101.252236 C47.9947807,101.497558 47.9873307,101.751347 48.0199241,102 C48.3317257,101.922855 48.6322893,101.791255 48.9119142,101.609448 C49.5564619,101.185557 50.1092164,100.356825 49.9815042,99.4923725 C49.9557289,99.3275798 49.9121283,99.1674799 49.8517964,99.01609 C49.6579848,98.9642677 49.4557173,99.0395867 49.3209925,99.2137473 C48.9494063,99.535346 48.6221912,99.924234 48.3511777,100.366351 Z" id="Shape" stroke="none" fill="#FBBEBE" fill-rule="nonzero"></path>
                            <path d="M40.1033474,83.3894648 C40.0051943,83.5946752 39.9759916,83.824682 40.0198755,84.0469094 C40.1236514,84.4852058 40.586131,84.7372262 41.0034906,84.936651 L44.9717912,86.8213255 C45.2470832,86.9450486 45.5151961,87.0833188 45.7749265,87.2355155 C46.4517259,87.6387482 46.9841414,88.2085335 47.5616769,88.7301062 C48.1392124,89.2516789 48.7821719,89.7403793 49.5469552,89.9244638 C50.3104211,90.0869802 51.1083422,89.9854418 51.8029532,89.6373797 C52.1772718,89.4562305 52.5248038,89.2269913 52.8362003,88.9558288 C53.1057532,88.7261276 53.3548023,88.4746702 53.5806797,88.2041505 C53.7747048,88.0051429 53.9136386,87.7616105 53.9845033,87.4963019 C54.0589513,87.0952607 53.8536555,86.7007939 53.6145197,86.3698802 C53.4768177,86.1791076 53.3260785,85.9975363 53.1633201,85.8263927 C51.6585694,84.2112705 49.1927635,83.3741244 47.0721253,83.0454022 C46.2283821,82.9139132 45.4275028,82.6071058 44.6153435,82.3572768 C43.8031842,82.1074479 42.9436489,81.9189805 42.0999057,82.035129 C41.2561624,82.1512775 40.4259551,82.6224462 40.1033474,83.3894648 Z" id="Shape" stroke="none" fill="#3F3D56" fill-rule="nonzero"></path>
                            <path d="M40.1033474,83.3894648 C40.0051943,83.5946752 39.9759916,83.824682 40.0198755,84.0469094 C40.1236514,84.4852058 40.586131,84.7372262 41.0034906,84.936651 L44.9717912,86.8213255 C45.2470832,86.9450486 45.5151961,87.0833188 45.7749265,87.2355155 C46.4517259,87.6387482 46.9841414,88.2085335 47.5616769,88.7301062 C48.1392124,89.2516789 48.7821719,89.7403793 49.5469552,89.9244638 C50.3104211,90.0869802 51.1083422,89.9854418 51.8029532,89.6373797 C52.1772718,89.4562305 52.5248038,89.2269913 52.8362003,88.9558288 C53.1057532,88.7261276 53.3548023,88.4746702 53.5806797,88.2041505 C53.7747048,88.0051429 53.9136386,87.7616105 53.9845033,87.4963019 C54.0589513,87.0952607 53.8536555,86.7007939 53.6145197,86.3698802 C53.4768177,86.1791076 53.3260785,85.9975363 53.1633201,85.8263927 C51.6585694,84.2112705 49.1927635,83.3741244 47.0721253,83.0454022 C46.2283821,82.9139132 45.4275028,82.6071058 44.6153435,82.3572768 C43.8031842,82.1074479 42.9436489,81.9189805 42.0999057,82.035129 C41.2561624,82.1512775 40.4259551,82.6224462 40.1033474,83.3894648 Z" id="Shape" stroke="none" fill="#000000" fill-rule="nonzero" opacity="0.1"></path>
                            <path d="M50.0670626,84.6629081 C50.370955,85.0007664 50.6210066,85.3825297 50.8085905,85.7950275 C50.9773607,86.0652221 51.0375048,86.3882853 50.9771195,86.7002782 C50.8887658,86.91029 50.7471234,87.0941615 50.5659086,87.2340869 L50.1726741,87.5944078 C50.0539042,87.7166097 49.9157638,87.8187858 49.7637103,87.8968994 C49.5485983,87.9767475 49.3189069,88.0108509 49.089594,87.9969886 C48.5615363,87.9969886 47.9930316,87.9969886 47.5638442,87.6833759 C46.9773631,87.2652257 46.8717515,86.4000107 47.139151,85.734974 C47.4065504,85.0699373 47.9660669,84.5672674 48.5300775,84.1179784 C48.9884766,83.7509848 49.7457338,84.3270534 50.0670626,84.6629081 Z" id="Shape" stroke="none" fill="#FBBEBE" fill-rule="nonzero"></path>
                            <path d="M52.0465117,86.9957983 C51.9549852,87.3443749 51.9991244,87.7051148 52.1737529,88.0357143 C52.2981664,88.3508403 52.4197524,88.6659664 52.5413384,88.987395 C52.5413384,88.987395 52.5413384,88.987395 52.5413384,89 C52.8791855,88.7797994 53.1913341,88.5387425 53.4744401,88.2794118 C53.7176236,88.0886353 53.8917579,87.8551756 53.9805771,87.6008403 C54.0738873,87.2163866 53.8165774,86.8382353 53.5168538,86.5210084 C53.3442635,86.3381263 53.1553327,86.164065 52.9513376,86 C52.8184413,86.1281513 52.7025105,86.2542017 52.6063727,86.3361345 C52.3589483,86.5240636 52.1681114,86.7489197 52.0465117,86.9957983 Z" id="Shape" stroke="none" fill="#FBBEBE" fill-rule="nonzero"></path>
                            <path d="M42.4182783,71.2941458 C41.9552959,73.2129711 42.1521193,75.2200183 42.3981486,77.1785434 C42.5860255,78.6694927 42.7962687,80.2133752 42.3489427,81.6491858 C42.1834321,82.1851336 41.9217465,82.7299035 42.0223948,83.2834957 C42.2125083,84.3267191 43.4873873,84.7281285 44.5430765,84.9244221 C44.8476355,85.0007919 45.1641207,85.0195022 45.4757511,84.9795608 C45.7883732,84.895614 46.0785039,84.7450358 46.3256704,84.5384515 C47.8262617,83.462744 48.9659164,81.9686751 49.5978597,80.2486639 C49.9982164,79.0973687 50.1257043,77.8732905 50.2487189,76.6624456 C50.4544889,74.6245207 50.6624954,72.5623349 50.3605504,70.5376434 C50.2710852,69.9421459 50.1368874,69.353265 50.0809717,68.7533564 C50.0105696,67.7099465 50.0691523,66.6619658 50.2554288,65.6325083 C50.6405574,63.0822462 51.2237971,60.5649279 52,58.1027732 C49.8701907,58.3816341 47.7052854,57.9960093 45.8090089,57 C46.1758162,57.1940881 45.7553298,60.2884696 45.7105972,60.7229622 C45.5748918,62.0182834 45.3378485,63.3013222 45.0015856,64.5606128 C44.3775659,66.9139308 42.9841456,68.9562667 42.4182783,71.2941458 Z" id="Shape" stroke="none" fill="#3F3D56" fill-rule="nonzero"></path>
                            <path d="M42.4182783,71.2941458 C41.9552959,73.2129711 42.1521193,75.2200183 42.3981486,77.1785434 C42.5860255,78.6694927 42.7962687,80.2133752 42.3489427,81.6491858 C42.1834321,82.1851336 41.9217465,82.7299035 42.0223948,83.2834957 C42.2125083,84.3267191 43.4873873,84.7281285 44.5430765,84.9244221 C44.8476355,85.0007919 45.1641207,85.0195022 45.4757511,84.9795608 C45.7883732,84.895614 46.0785039,84.7450358 46.3256704,84.5384515 C47.8262617,83.462744 48.9659164,81.9686751 49.5978597,80.2486639 C49.9982164,79.0973687 50.1257043,77.8732905 50.2487189,76.6624456 C50.4544889,74.6245207 50.6624954,72.5623349 50.3605504,70.5376434 C50.2710852,69.9421459 50.1368874,69.353265 50.0809717,68.7533564 C50.0105696,67.7099465 50.0691523,66.6619658 50.2554288,65.6325083 C50.6405574,63.0822462 51.2237971,60.5649279 52,58.1027732 C49.8701907,58.3816341 47.7052854,57.9960093 45.8090089,57 C46.1758162,57.1940881 45.7553298,60.2884696 45.7105972,60.7229622 C45.5748918,62.0182834 45.3378485,63.3013222 45.0015856,64.5606128 C44.3775659,66.9139308 42.9841456,68.9562667 42.4182783,71.2941458 Z" id="Shape" stroke="none" fill="#000000" fill-rule="nonzero" opacity="0.1"></path>
                            <path d="M54.3575258,59.8971748 C55.2598611,62.4667035 55.0613473,65.2734535 54.6710873,67.9649184 C54.2808273,70.6563832 53.7055885,73.3478481 53.8747764,76.0592662 C53.9401957,77.1234368 54.1161511,78.2164287 53.8003337,79.2340419 C53.6248209,79.7305194 53.3924836,80.2057928 53.1077914,80.650719 L45.9094115,92.8842471 C45.5365658,93.5292152 44.8580197,93.9460092 44.1047409,93.9927582 C43.3355001,94.0459667 42.5797943,93.7976602 41.8624377,93.5205325 C41.3857812,93.3652848 40.9428128,93.123927 40.5563074,92.8088684 C40.1674198,92.4905309 39.9618024,92.005209 40.0058828,91.5096934 C40.3284677,89.3857862 40.8134729,87.2108875 41.1721512,85.0803292 C41.4161054,83.63472 41.9481334,82.2506876 42.7377029,81.0076596 C43.294895,80.1208507 43.9806698,79.3249398 44.4611634,78.4026586 C45.8417364,75.7599682 45.3634987,72.536418 44.298743,69.7562723 C43.2339874,66.9761265 41.6481331,64.3955127 40.8021937,61.5532904 C40.5514062,60.7623852 40.4080478,59.9423811 40.3758403,59.114566 C40.3547823,57.3880634 41.0332722,55.724216 42.2617211,54.4898579 C42.4392305,54.2922842 42.662974,54.1401088 42.9136583,54.0464535 C43.2067078,53.9796414 43.5120089,53.9849722 43.8024586,54.0619726 C47.8110832,54.8268452 53.0333487,56.101633 54.3575258,59.8971748 Z" id="Shape" stroke="none" fill="#3F3D56" fill-rule="nonzero"></path>
                            <path d="M116.973524,21.866985 C117.10076,22.7900069 116.754153,23.7235656 116.260566,24.5222535 C114.393711,27.514699 110.089635,28.8381186 106.761764,27.4451563 C105.39069,26.8698481 104.230212,25.9215379 103.093866,24.9858718 C102.712159,24.6697684 102.315096,24.3389135 102.122049,23.8921541 C101.782022,23.1018956 102.192248,22.1599074 102.861332,21.595136 C103.530416,21.0303646 104.396935,20.7521936 105.259066,20.5014183 C108.10432,19.6500465 116.295665,16.9652749 116.973524,21.866985 Z" id="Shape" stroke="none" fill="#FBBEBE" fill-rule="nonzero"></path>
                            <path d="M115.156733,19.020974 C117.736924,21.1190226 121.492512,23.1176898 124.41571,24.6724542 C125.409772,25.2024875 126.513072,25.798775 126.871371,26.8809263 C127.063629,27.459546 127.000271,28.0889606 126.936914,28.6984989 C126.814567,29.8711976 126.687852,31.061564 126.239978,32.1503408 C125.713453,33.4246292 124.782748,34.4758619 124.035563,35.6331013 C122.724712,37.6604787 121.95568,40.0500455 120.336779,41.8411164 C121.429155,45.5093886 122.624214,49.1732439 123.0131,52.9806498 C123.034592,53.0853616 123.023133,53.1942469 122.980328,53.2920444 C122.935621,53.3563412 122.877435,53.4098799 122.809918,53.4488459 L120.092087,55.2509591 C119.795732,55.4257722 119.530589,55.6497461 119.307761,55.9135008 C118.827115,56.5451238 118.890473,57.4329296 118.593347,58.1683508 C118.2642,58.8936949 117.656671,59.4519901 116.911088,59.7142813 C116.168401,59.9730009 115.377231,60.0575837 114.597436,59.9616301 C113.604742,59.8984445 112.648822,59.5582521 111.83591,58.9788601 C111.143344,58.4488267 110.64959,57.7045716 110.173314,56.9713589 C109.820439,56.4712787 109.527115,55.9308908 109.299413,55.3613827 C109.008841,54.548665 108.991363,53.6630677 109.002287,52.7973466 C109.009502,51.1499745 109.165263,49.5066968 109.467639,47.8879131 C109.594355,47.2452477 109.751657,46.6114162 109.852156,45.9643339 C110.053153,44.6613353 110.013827,43.3318351 110.16239,42.0222111 C110.365366,40.54919 110.690584,39.0960433 111.134605,37.6781465 C111.377562,36.7999092 111.56726,35.9074993 111.70264,35.0058952 C111.958256,33.4202122 112.467303,31.8897411 112.97635,30.3681038 L113.850251,27.7598982 C114.035955,27.1967378 114.223844,26.6357859 114.444504,26.0858763 C114.855237,25.0589368 115.383947,24.0584989 115.523771,22.9630968 C115.678888,21.7683134 114.402993,20.3504743 114.833389,19.2285704 C114.868345,19.104896 115.058419,18.941469 115.156733,19.020974 Z" id="Shape" stroke="none" fill="#3F3D56" fill-rule="nonzero"></path>
                            <path d="M125.323013,26 C125.921416,26.2748919 126.251942,26.9302343 126.465812,27.5635853 C126.947919,28.9909627 127.063921,30.5200337 126.802819,32.0058391 C126.718423,32.3793564 126.660665,32.7585962 126.629995,33.140593 C126.634476,33.5833692 126.677125,34.0248905 126.757453,34.4600743 C126.973483,36.142413 126.757453,37.8511413 126.828743,39.5488739 C126.902193,41.4577235 127.31049,43.4743308 126.52414,45.2094487 C126.001348,46.3617957 125.01193,47.2194586 124.035474,47.9979525 C120.400129,50.8821744 116.389052,53.2386824 112.117095,55 C112.853757,54.0983544 112.866719,52.7414878 112.376331,51.6793054 C111.885943,50.6171229 110.974296,49.8188367 110,49.1986805 C111.240114,48.9181061 112.441108,48.4815217 113.575298,47.8989914 C115.839293,46.7290513 117.779243,45.0159248 119.69543,43.3203913 C119.9781,43.1134986 120.198134,42.8300828 120.330558,42.5023129 C120.524985,41.8425722 119.989231,41.2158186 119.617659,40.637446 C118.492142,38.8781376 118.753539,36.5800409 119.224484,34.5436415 C119.749437,32.3115189 120.520665,30.0881929 121.92702,28.2936983 C122.804102,27.1721392 123.949062,26.3100781 125.323013,26 Z" id="Shape" stroke="none" fill="#3F3D56" fill-rule="nonzero"></path>
                            <path d="M112.542547,54.9929811 C112.344154,55.2882813 112.086555,55.5467662 111.783255,55.7548847 C111.121081,56.1580083 110.211696,56.0048214 109.472269,55.7186036 C108.785102,55.45245 108.151095,55.0839564 107.59611,54.6281542 C107.357523,54.3965115 107.075768,54.205418 106.763979,54.0637812 C106.18568,53.8622194 105.377828,54.0133907 105.053363,53.5276268 C105.015609,53.4766115 104.997018,53.4157793 105.000389,53.3542836 C105.020255,53.1789248 105.271881,53.13055 105.466118,53.1204719 C106.367244,53.0660683 107.241878,52.819624 108.019901,52.4008963 C107.771389,52.2368939 107.558762,52.0317871 107.393044,51.7962109 C107.324316,51.7139944 107.287089,51.6134267 107.287096,51.5099931 C107.314064,51.3975916 107.381712,51.2967638 107.479126,51.2237753 C108.930286,49.9731615 111.065579,49.6481762 112.882463,50.4014032 C113.055865,50.4654708 113.208008,50.569671 113.323912,50.7037459 C113.405608,50.8273655 113.460324,50.9642585 113.485041,51.1068695 C113.628512,51.6712425 114.147215,52.5178021 113.959599,53.088222 C113.752118,53.7432979 112.968546,54.4386861 112.542547,54.9929811 Z" id="Shape" stroke="none" fill="#FBBEBE" fill-rule="nonzero"></path>
                            <path d="M97.4008374,52.3891186 C100.02266,49.2245602 101.194471,45.0602039 102.28198,41.0323839 L103.059675,38.1695266 L104.935416,31.2744448 C105.211508,30.2570294 105.487601,29.239614 105.670959,28.2023787 C105.984988,26.4119918 106.014494,24.5819653 105.995526,22.7629498 C105.968747,22.0088817 105.803464,21.2672264 105.508676,20.5783695 C105.325317,20.1026947 105.236799,19.5961892 105.087161,19.1050991 C104.89678,18.4204443 104.612086,17.7683716 104.242024,17.1693671 C104.139,16.9912796 104.010334,16.8308395 103.860553,16.6936923 C103.601195,16.5095132 103.307396,16.3849159 102.998555,16.3281275 C102.328533,16.1199602 101.634194,16.0095399 100.93524,16 C100.235525,16.0264264 99.5147346,16.2796791 99.0637137,16.834633 C98.720179,17.2596572 98.5621109,17.8102067 98.2902338,18.2880836 C98.1636777,18.483747 98.0489427,18.68748 97.9466992,18.8980925 C97.8308235,19.2180541 97.7667205,19.5559363 97.7570175,19.8978903 C97.6474236,21.285275 97.5539878,22.6741279 97.4767101,24.0644488 C97.4408814,24.6964796 97.4092677,25.3329148 97.4324511,25.9671478 C97.4514192,26.4604402 97.502001,26.9515303 97.5525828,27.4426204 L98.0520779,32.2522207 C98.1679945,33.3819483 98.0857991,34.4390033 98.1827476,35.570933 C98.4187959,38.3038606 97.8560735,41.0367883 97.2785981,43.7190653 C97.0025059,44.9941379 96.7179833,46.2868281 96.1278625,47.4407798 C95.6072916,48.4625997 94.8274891,49.4998349 95.0340314,50.6383712 C95.1056889,51.0347669 95.2974782,51.4047361 95.3269842,51.8055361 C95.3125562,52.0537465 95.3360333,52.3027745 95.3965342,52.5432725 C95.5730119,52.8788617 95.9367597,53.0568846 96.2964684,52.983712 C96.7137893,52.9071504 97.0989558,52.6997763 97.4008374,52.3891186 Z" id="Shape" stroke="none" fill="#3F3D56" fill-rule="nonzero"></path>
                            <path d="M97.4916703,39.9879764 C97.5745056,40.5985644 97.5112892,41.2176623 97.5418075,41.8325053 C97.6102189,42.6243817 97.756211,43.4080397 97.9777827,44.172738 C98.1957703,45.0237318 98.4747945,45.9768448 99.2442908,46.4491463 C99.4372874,46.5470086 99.6217411,46.660144 99.7957995,46.7874163 C99.9713321,46.9225281 100.042565,47.1497428 99.9745494,47.3575821 L99.3750834,47.2597178 C99.5606867,47.3982036 99.6486017,47.628212 99.6012776,47.8515004 C99.5539534,48.0747887 99.3797563,48.2518829 99.1530905,48.3071412 C98.9264247,48.3623995 98.6873614,48.2860531 98.5380109,48.1107115 C98.5607411,48.3023968 98.5421787,48.4966025 98.483514,48.6808773 C98.4213296,48.8660892 98.2471324,48.9935971 98.0475388,49 C97.9345277,48.9828702 97.8275171,48.9390498 97.7358165,48.8723509 L96.1706653,47.9256204 C95.7016936,47.6792325 95.3116579,47.3110879 95.0436693,46.8618782 L94.3591882,45.8555782 C94.20831,45.6616213 94.0885028,45.446417 94.0038683,45.2173329 C93.7488228,44.3663391 94.4616423,43.4217361 94.0910634,42.6196745 C93.9797518,42.4220088 93.8490752,42.2353361 93.7008655,42.0622736 C92.9095704,40.9985314 92.9597076,39.5518421 93.0469026,38.2328018 C93.075241,37.7881576 93.1580763,37.2605414 93.5700729,37.0669404 C93.8970544,36.911634 94.2894321,37.0499205 94.5924349,37.2435216 C94.8954377,37.4371226 95.1635625,37.6924208 95.5079829,37.8073049 C95.7259706,37.8796394 95.9657569,37.8881493 96.1837446,37.9647388 C96.4889272,38.0689855 96.7723112,38.475335 96.9772195,38.7157407 C97.266958,39.0846737 97.4451579,39.5253616 97.4916703,39.9879764 Z" id="Shape" stroke="none" fill="#FBBEBE" fill-rule="nonzero"></path>
                            <path d="M60.4941878,43.6269815 C61.7509078,44.7409042 63.5584265,45.0651842 65.1298887,45.7326955 C66.297475,46.2404742 67.3488008,46.9555895 68.2256016,47.8384096 C68.7089555,48.3353581 69.1765723,49.0112923 68.9337712,49.6430066 C68.7291889,50.1862808 68.101953,50.464235 67.5264246,50.6663836 C66.8115105,50.9190693 66.0134146,51.142275 65.3007486,50.8874836 C64.8825913,50.7379779 64.5453677,50.4389665 64.1609328,50.2262893 C63.2189547,49.7019665 62.0319275,49.6998608 61.0652198,49.2155466 C59.7028363,48.5332952 59.0238927,47.0319211 57.7424429,46.2212212 C57.0410178,45.7790212 56.0720619,45.4168384 56.0001208,44.6271957 C55.9968167,44.3416477 56.0613208,44.0589822 56.1889661,43.79965 C56.4475042,43.1553015 56.8881431,40.942196 57.8728361,41.001156 C58.9452072,41.0664332 59.6960918,43.0942358 60.4941878,43.6269815 Z" id="Shape" stroke="none" fill="#FBBEBE" fill-rule="nonzero"></path>
                            <path d="M54.2856598,33.168369 C54.6796491,34.6054966 55.5946516,35.8307679 56.5441013,36.97086 C57.2265855,37.7898916 57.9758111,38.6809981 57.9994935,39.7533835 C58.021023,40.7667987 57.3536094,41.6994028 56.4924306,42.2170308 C55.6312517,42.7346588 54.6172137,42.9006492 53.6203992,42.9661717 C52.822973,43.0440572 52.0183344,42.9872279 51.2392398,42.7979972 C49.2714462,42.2563443 47.9064777,40.515629 46.3585088,39.170233 C45.4392004,38.3730422 44.4057858,37.6785033 43.7017721,36.6803768 C42.9977585,35.6822502 42.7006518,34.2494908 43.3939007,33.2426279 C43.6440648,32.9162497 43.9333544,32.6227763 44.2550795,32.3689941 C45.4308088,31.3348273 46.4334582,30.1140993 47.2239935,28.7543344 C47.5426297,28.2061292 47.8483482,27.6120583 48.384432,27.2822615 C49.1530341,26.8083152 50.1390838,27.0245396 51.0088744,27.2560525 C51.9540182,27.5072222 54.6172137,27.9986412 54.8023671,29.2217285 C54.8777203,29.7240679 54.2641304,30.5059701 54.1715536,31.045439 C54.053725,31.7528987 54.0927042,32.4781005 54.2856598,33.168369 Z" id="Shape" stroke="none" fill="#FBBEBE" fill-rule="nonzero"></path>
                            <path d="M59.1050814,35.6520902 C59.3894919,36.1770644 59.6235957,36.7287181 59.8041503,37.2994104 C60.4663117,39.6432484 59.2831052,42.0578438 58.7186397,44.4282158 C57.9978606,47.4641494 58.3039746,50.6393866 58.2692383,53.7637669 C58.2540411,55.1921814 58.1042407,56.7643218 57.0947158,57.754925 C56.8341932,58.0069982 56.5215662,58.2192703 56.3457135,58.5376785 C56.2370296,58.7709888 56.1561275,59.0166986 56.1047301,59.2695751 C55.792452,60.3763856 55.0008812,61.2772885 53.9553715,61.7158041 C52.9098618,62.1543197 51.7249481,62.0824089 50.7379656,61.520544 C49.9151486,61.0539876 49.2008826,60.2447001 48.2586594,60.2203773 C47.9623906,60.2349455 47.6672912,60.2681765 47.3750538,60.3198798 C46.4371726,60.4149601 45.5188306,60.0611732 44.639567,59.7140198 C44.4297076,59.64652 44.2339169,59.5400674 44.0620754,59.400034 C43.9035908,59.2518857 43.8015528,59.0528806 43.6560944,58.8936765 C43.1198522,58.3055058 42.2036812,58.4072196 41.4307977,58.2435931 C40.2536276,57.9753011 39.3343184,57.038992 39.0708976,55.8400536 C38.9145841,55.0794118 39.0470163,54.292236 39.1772776,53.5249607 L39.7591113,50.1064951 C40.0032754,48.8526076 40.1722043,47.5847336 40.2649593,46.3099197 C40.336288,44.8692718 40.2150487,43.4254335 39.9045697,42.0180427 C39.6483892,40.8682354 39.2662895,39.7427509 39.1273441,38.5708319 C38.8852334,36.4705429 39.4277329,34.3543474 40.647059,32.6426907 C40.9488309,32.2203576 41.3439568,31.7980245 41.8563178,31.7582235 C42.2709829,31.7206336 42.6595957,31.9461728 43.0199852,32.1628672 C46.1505978,34.0497305 49.3029206,35.8975299 52.4769536,37.7062653 C53.3453621,38.203778 54.2333098,38.703502 55.2015853,38.9489416 C55.4925021,39.0241214 55.9093382,38.993165 55.9505876,38.6924462 C55.955763,38.5778189 55.9262039,38.4643433 55.8659178,38.3674045 C55.3231625,37.3038327 54.5372528,36.3906203 53.9119987,35.3779054 C53.2867446,34.3651905 52.8047778,33.1667375 52.9893147,31.9903961 C53.2411531,30.3629765 54.7261316,29.2861377 55.9397325,30.5619816 C57.3009628,32.0102966 58.2127917,33.8721 59.1050814,35.6520902 Z" id="Shape" stroke="none" fill="#9AA8FF" fill-rule="nonzero"></path>
                            <path d="M49.9454405,56.1370618 C52.5531593,56.2978116 55.2186792,56.4692781 57.6329867,57.433777 C58.4088552,57.7424166 59.2314093,58.1410762 60.0472941,57.9503197 C60.4533835,57.8311732 60.8311114,57.6359775 61.1588537,57.375907 C62.1640065,56.6653429 63.1136147,55.8844948 64,55.0396763 C63.9110752,54.5702868 63.2508088,54.5059869 62.7572764,54.5102736 C61.5538886,54.5171908 60.366778,54.2420977 59.2981029,53.7086678 C58.9468269,53.5049843 58.5742456,53.3375928 58.1865433,53.2092717 C57.1305617,52.9284953 56.054572,53.4643281 54.9941442,53.7258144 C53.424622,54.111614 51.7706214,53.8865643 50.1677524,53.6593712 L45.8415625,53.0442352 C45.4391779,52.9885086 44.9856616,52.9434986 44.6655324,53.1835517 C44.4515368,53.3784996 44.3048583,53.6321472 44.2453629,53.9101409 C43.7162606,55.6248057 43.9696961,55.7684088 45.7304065,55.8755754 L49.9454405,56.1370618 Z" id="Shape" stroke="none" fill="#FBBEBE" fill-rule="nonzero"></path>
                            <circle id="Oval" stroke="none" fill="#000000" fill-rule="nonzero" opacity="0.1" cx="108" cy="19" r="7"></circle>
                            <circle id="Oval" stroke="none" fill="#FBBEBE" fill-rule="nonzero" cx="108" cy="19" r="7"></circle>
                            <path d="M113.774705,10.0385522 C114.323205,10.3948581 114.897416,10.7782253 115.197377,11.3780821 C115.358674,11.7853249 115.481395,12.2083267 115.563758,12.6409385 C115.938709,13.993999 116.93715,15.1689065 116.997143,16.5783444 C117.063562,18.1230885 115.962277,19.4648734 114.715297,20.2744546 C114.430686,20.4952471 114.08753,20.6166914 113.733996,20.6217401 C113.3719,20.596934 113.059084,20.3578933 112.726984,20.2045465 C111.319311,19.5460571 109.744516,20.3804443 108.253281,20.7638115 C106.703634,21.1577022 105.077664,21.0572186 103.582461,20.4751586 C102.778995,20.1594445 101.999096,19.6858733 101.49559,18.9529656 C100.992084,18.2200578 100.812108,17.193987 101.240624,16.4069568 C101.454881,16.0055488 101.810549,15.6424776 101.786981,15.1846922 C101.774125,14.9095699 101.61986,14.6615088 101.572723,14.3908967 C101.504161,13.9601724 101.718418,13.5407237 101.936961,13.1731423 C102.928569,11.4936428 104.181616,10.0017366 105.643621,8.75991007 C106.072137,8.39007354 106.567073,8.02925742 107.128428,8.00219621 C108.255424,7.95032889 109.223869,8.83432839 110.383004,8.83883859 C111.698547,8.84334879 112.643424,9.30338935 113.774705,10.0385522 Z" id="Shape" stroke="none" fill="#3F3D56" fill-rule="nonzero"></path>
                            <circle id="Oval" stroke="none" fill="#000000" fill-rule="nonzero" opacity="0.1" cx="51.5" cy="26.5" r="6.5"></circle>
                            <circle id="Oval" stroke="none" fill="#FBBEBE" fill-rule="nonzero" cx="51.5" cy="25.5" r="6.5"></circle>
                            <path d="M56.7140731,19.1919901 C55.1237851,17.9949397 53.3369396,17.0729463 51.4304876,16.4657158 C50.2103423,16.0768722 48.8833229,15.8103614 47.6453653,16.1686218 C45.9665522,16.6382925 43.7199708,17.3395217 42.6801754,18.7179504 C42.1680706,19.39515 41.6492862,20.0920102 41.40214,20.9024651 C40.9078475,22.532113 41.611435,24.2688022 41.5646776,25.9683546 C41.509014,27.9497094 40.438047,29.7584875 39.2691122,31.3750284 C38.1001773,32.9915692 37.8641638,35.3071548 37.1739356,37.1727303 C36.9379221,37.8127931 36.8622197,38.7018906 37.4700658,39.0230142 C38.004436,39.3135547 38.6501334,38.9509252 39.1444258,38.6014029 L42.1168601,36.4933462 C42.3479006,36.3070121 42.6142754,36.1674292 42.9006031,36.0826575 C43.5129023,35.9428486 44.1118422,36.3185851 44.623947,36.674661 L50.8582662,41 C51.1077536,40.5003188 51.1183563,39.9177752 50.8872112,39.4096733 C51.4727919,39.586619 51.8980616,40.0650277 52.4123929,40.405812 C52.9267242,40.7465963 53.7082407,40.8580065 54.0822998,40.3817824 C54.456359,39.9055582 54.1735881,39.2654954 53.7572246,38.8810208 C53.3408611,38.4965462 52.7931317,38.2671722 52.3856744,37.871775 C51.5774394,37.0831652 51.4950574,35.8379919 50.9851791,34.8418532 C50.6200261,34.1428085 50.0299924,33.5573585 49.7717134,32.812439 C49.3508969,31.5956644 49.9008529,30.2849556 50.4396762,29.1140557 C51.083147,27.7247044 51.8112264,26.2414189 53.1805501,25.5161601 C53.6414444,25.2714944 54.1513226,25.1273165 54.6233496,24.904496 C55.7989641,24.3518138 57.2662557,23.0476585 57.8407036,21.8789432 C58.3439023,20.8412987 57.5690654,19.8386065 56.7140731,19.1919901 Z" id="Shape" stroke="none" fill="#3F3D56" fill-rule="nonzero"></path>
                            <path d="M45.943085,41.2071183 C46.5565098,41.59388 47.2490172,41.8411539 47.8517551,42.2448233 C48.454493,42.6484926 48.982423,43.2613937 48.9995219,43.9799674 C49.0166209,44.6668394 48.5720482,45.2691732 48.1445746,45.8144438 L42.9379449,52.5711501 L45.5925566,53.2664759 C45.1650829,53.8497886 45.0560771,54.5937238 44.8337908,55.2784822 C44.6115045,55.9632407 44.1925802,56.6754741 43.4829739,56.8551175 C42.8417634,57.0178533 42.1706297,56.6839279 41.5080454,56.72197 C41.018588,56.7515583 40.5569165,56.9798112 40.0674591,56.9988322 C39.4369354,57.0220802 38.8512964,56.6944951 38.3255038,56.347889 C37.1542258,55.5722521 35.9914974,54.4605763 36.0000469,53.0656979 C36.027792,52.5939354 36.1235146,52.1285065 36.2843169,51.6835003 C37.0516322,49.2086479 37.8467332,46.6746188 39.4369354,44.6161165 C40.2918828,43.5171214 41.337056,42.589316 42.3822291,41.6678509 C42.6198707,41.4312663 42.8995428,41.2399789 43.2072534,41.1035592 C43.8912113,40.8499449 44.6371529,41.1627358 45.3446218,41.3656272 C46.0520908,41.5685186 46.9433735,41.5981069 47.3516108,41" id="Shape" stroke="none" fill="#000000" fill-rule="nonzero" opacity="0.1"></path>
                            <path d="M45.9408606,40.2356886 C46.5542784,40.6442155 47.2467779,40.9090846 47.8495089,41.3378134 C48.45224,41.7665422 48.980164,42.4174916 48.9994,43.1784291 C49.0186361,43.9393666 48.5719312,44.5499123 48.1444624,45.1290329 L42.9357548,52.2984557 L45.5903362,53.0369466 C45.1628674,53.6564709 45.0538628,54.4443442 44.831579,55.1738566 C44.6092952,55.9033689 44.1903758,56.6575724 43.4807775,56.848368 C42.8395743,57.0212063 42.1684482,56.6665511 41.5058716,56.7069548 C41.0164198,56.7361353 40.5547534,56.9808025 40.0653016,56.9987597 C39.4347851,57.0234509 38.8491528,56.6755297 38.3233662,56.3074065 C37.1521016,55.4858634 35.9893864,54.3029311 36.0000731,52.8237045 C36.0256767,52.32257 36.1207195,51.8280337 36.2822025,51.3557013 C37.0495091,48.7249675 37.8446011,46.0336282 39.4347851,43.8495805 C40.2897228,42.6801161 41.3370214,41.6947133 42.3800453,40.7070658 C42.6188115,40.4572124 42.8982189,40.2542401 43.2050601,40.1077434 C43.8890103,39.838385 44.6349434,40.1705937 45.3424043,40.388325 C46.0498652,40.6060564 46.9411377,40.6352369 47.3493704,40" id="Shape" stroke="none" fill="#9AA8FF" fill-rule="nonzero"></path>
                            <g id="Group" opacity="0.1" stroke="none" stroke-width="1" fill="none" fill-rule="evenodd" transform="translate(100.000000, 13.000000)">
                                <path d="M0.966315789,4.32228571 C1.49197368,5.06514286 2.30842105,5.54742857 3.145,5.86514286 C4.70550594,6.45744031 6.40369948,6.55932931 8.02131579,6.15771429 C9.58710526,5.76914286 11.2222368,4.92342857 12.6918421,5.59085714 C13.0385526,5.74857143 13.3628947,5.98857143 13.7409211,6.016 C14.1107667,6.00917851 14.4694552,5.8854063 14.7676316,5.66171429 C15.6735526,5.09028571 16.5056579,4.25828571 16.9038158,3.27771429 C16.9038158,3.328 16.9038158,3.37828571 16.9172368,3.43085714 C16.9865789,4.99657143 15.8368421,6.35657143 14.535,7.17714286 C14.2378678,7.40093271 13.8796138,7.52402558 13.5105263,7.52914286 C13.1325,7.504 12.8059211,7.26171429 12.4592105,7.10628571 C10.9896053,6.43885714 9.34552632,7.28457143 7.78868421,7.67314286 C6.17085912,8.0723807 4.47335395,7.97053301 2.91236842,7.38057143 C2.07355263,7.06057143 1.25934211,6.58057143 0.733684211,5.83771429 C0.208026316,5.09485714 0.0201315789,4.05485714 0.4675,3.25714286 L0.501052632,3.2 C0.573470189,3.60451068 0.732333537,3.98771331 0.966315789,4.32228571 Z" id="Shape" fill="#000000" fill-rule="nonzero"></path>
                                <path d="M1.29500049,0.502857143 C1.31408848,0.854857143 1.09219062,1.14971429 0.879836758,1.44914286 C0.850248778,1.37490523 0.827105608,1.29845538 0.810642802,1.22057143 C0.739062848,0.811428571 0.944258717,0.413714286 1.17092857,0.0548571429 C1.23594975,0.197236283 1.27779343,0.348325796 1.29500049,0.502857143 Z" id="Shape" fill="#000000" fill-rule="nonzero"></path>
                            </g>
                            <g id="Group" opacity="0.1" stroke="none" stroke-width="1" fill="none" fill-rule="evenodd" transform="translate(37.000000, 18.000000)">
                                <path d="M14.4369474,21.5017143 C14.9254737,21.7207619 15.5422105,21.753619 15.8516842,21.344 C16.1987368,20.9059048 15.9423158,20.2268571 15.5289474,19.8391429 C15.1155789,19.4514286 14.5717895,19.223619 14.1672632,18.8271429 C13.3648421,18.0385714 13.2830526,16.79 12.7768421,15.7911429 C12.4143158,15.088 11.8285263,14.5009524 11.5721053,13.754 C11.1543158,12.5360952 11.7003158,11.219619 12.2352632,10.0477143 C12.8741053,8.65457143 13.5969474,7.1672381 14.9564211,6.44 C15.414,6.19466667 15.9202105,6.05009524 16.3888421,5.82666667 C17.556,5.27247619 19.0127368,3.96257143 19.5830526,2.79066667 C20.0627368,1.8027619 19.3863158,0.843333333 18.5816842,0.192761905 C18.9729474,0.444666667 19.3553684,0.709714286 19.7267368,0.992285714 C20.5777895,1.64942857 21.3448421,2.64609524 20.832,3.68219048 C20.2616842,4.85409524 18.8049474,6.16180952 17.6377895,6.716 C17.1691579,6.93504762 16.6629474,7.084 16.2053684,7.32933333 C14.8458947,8.05657143 14.1230526,9.54390476 13.4842105,10.9370476 C12.9470526,12.1111429 12.4010526,13.4254286 12.8210526,14.6455238 C13.0774737,15.3924762 13.6632632,15.9795238 14.0257895,16.6804762 C14.5386316,17.6793333 14.6137895,18.9279048 15.4162105,19.7186667 C15.8207368,20.1151429 16.3645263,20.3429524 16.7778947,20.7306667 C17.1912632,21.118381 17.4410526,21.7886667 17.1006316,22.2355238 C16.7602105,22.682381 15.9511579,22.590381 15.4427368,22.259619 C15.1001053,22.029619 14.7884211,21.7273333 14.4369474,21.5017143 Z" id="Shape" fill="#000000" fill-rule="nonzero"></path>
                                <path d="M1.03010526,19.5587619 L3.98115789,17.4471429 C4.21044915,17.2596638 4.47488957,17.1189652 4.75926316,17.0331429 C5.36715789,16.8951429 5.96178947,17.2719048 6.47021053,17.6289524 L12.6596842,21.9660952 C12.9074544,21.4642966 12.9179788,20.8794716 12.6884211,20.3692381 C13.2565263,20.5444762 13.6698947,21.0132381 14.1628421,21.3418095 C14.0911973,21.3096173 14.0173255,21.2825326 13.9417895,21.2607619 C14.1712718,21.7702504 14.1607454,22.3543838 13.9130526,22.8554286 L7.72357895,18.5182857 C7.21515789,18.1612381 6.61831579,17.7844762 6.01263158,17.9246667 C5.72836355,18.0096697 5.46390486,18.1496335 5.23452632,18.3364762 L2.28347368,20.4502857 C1.79273684,20.8007619 1.15168421,21.164381 0.621157895,20.8730476 C0.325810992,20.6932053 0.149703416,20.3709041 0.159157895,20.0275238 C0.472259238,19.9169948 0.76609188,19.758848 1.03010526,19.5587619 Z" id="Shape" fill="#000000" fill-rule="nonzero"></path>
                            </g>
                            <path d="M111,52.6994922 C111,52.6994922 98.489083,53.7667333 96,51.8787164 L107.445415,50 L111,52.6994922 Z" id="Shape" stroke="none" fill="#E3E8F4" fill-rule="nonzero"></path>
                            <path d="M111,52.6994922 C111,52.6994922 98.489083,53.7667333 96,51.8787164 L107.445415,50 L111,52.6994922 Z" id="Shape" stroke="none" fill="#000000" fill-rule="nonzero" opacity="0.1"></path>
                            <path d="M111,53 L107.458793,50.5588659 C107.458793,50.5588659 96.8947437,53.8649688 94,52.5002403 L96.9454899,48 L107.412459,50.2224892 L111,53 Z" id="Shape" stroke="none" fill="#E3E8F4" fill-rule="nonzero"></path>
                            <path d="M95.9748817,22.9174721 C95.5895981,23.4163308 95.2805568,23.9723301 95.0583524,24.5664094 C94.958209,24.881024 94.9081373,25.2090264 94.8232332,25.5281036 C94.5843446,26.322692 94.2163393,27.0702642 93.7347185,27.7393308 C92.661443,29.3391793 91.3203929,30.8832451 91.0504413,32.8044022 C90.9198195,33.7527085 91.0635035,34.7166339 91.2463739,35.656015 C91.3453653,36.2754615 91.5179059,36.8801732 91.7601529,37.4566814 C92.0366356,38.06806 92.4480941,38.6058055 92.7637634,39.1971024 C93.0521094,39.7774928 93.2952425,40.3803362 93.4908912,41 C93.8631632,40.6184462 94.0830432,40.1074764 94.3812962,39.6612146 C94.6795493,39.2149528 95.1236632,38.8133172 95.6483273,38.8066233 C96.2535415,38.8066233 96.7520812,39.3198243 97.3507643,39.4001515 C97.4442014,39.4194573 97.5411161,39.410145 97.629424,39.3733758 C97.847127,39.2685042 97.8645432,38.9672775 97.847127,38.7262962 C97.6751417,37.0416579 96.734665,35.3793327 97.178779,33.7460145 C97.5880605,32.2354184 99.0510242,31.2915747 99.8195156,29.9371701 C100.376835,28.9531629 100.542289,27.7928822 100.690327,26.6638399 C100.875375,25.3138979 101.062599,23.9527995 100.979872,22.5939323 C100.938509,21.9089205 100.407314,17.5801811 99.4363584,18.0331368 C99.0989189,18.1893284 98.8050199,18.8520272 98.5938481,19.1487913 L97.7230363,20.4139435 L95.9748817,22.9174721 Z" id="Shape" stroke="none" fill="#3F3D56" fill-rule="nonzero"></path>
                            <polygon id="Shape" stroke="none" fill="#E3E8F4" fill-rule="nonzero" points="69 49.6331967 62.0027189 55 53 53.4836066 59.0619902 49"></polygon>
                            <polygon id="Shape" stroke="none" fill="#000000" fill-rule="nonzero" opacity="0.1" points="70 49.6331967 63.0027189 55 54 53.4836066 60.0619902 49"></polygon>
                            <polygon id="Shape" stroke="none" fill="#E3E8F4" fill-rule="nonzero" points="70 49.6352459 63.00367 55 54 53.4856557 60.063341 49"></polygon>
                            <polygon id="Shape" stroke="none" fill="#000000" fill-rule="nonzero" opacity="0.1" points="70 48.6331967 63.0014952 54 54 52.4836066 60.063341 48"></polygon>
                            <polygon id="Shape" stroke="none" fill="#E3E8F4" fill-rule="nonzero" points="70 48.6331967 63.0027189 54 54 52.4836066 60.0619902 48"></polygon>
                            <path d="M162.726264,126.104737 C163.106097,125.954385 163.552719,125.966526 163.919371,126.137172 C164.286024,126.307819 164.525298,126.614905 164.55857,126.957524 L165,131.614741 L162.381011,132 L161,128.632998 L162.726264,126.104737 Z" id="Shape" stroke="none" fill="#3F3D56" fill-rule="nonzero"></path>
                            <path d="M81.1562938,92.2659675 L45.3590496,110.268594 C44.5218515,110.691833 43.9962957,111.545996 44.0000197,112.477366 C44.0037436,113.408737 44.5361133,114.258745 45.3766696,114.675396 L122.475207,153.018284 C125.260672,154.400649 128.557644,154.318824 131.269793,152.800018 L163.743463,134.653335 C164.546354,134.199354 165.029547,133.342103 164.998597,132.426552 C164.967648,131.511001 164.427645,130.687718 163.595896,130.288004 L83.356592,92.2419582 C82.6591496,91.9111101 81.8462158,91.9199807 81.1562938,92.2659675 Z" id="Shape" stroke="none" fill="#3F3D56" fill-rule="nonzero"></path>
                            <path d="M45.2093509,107 L44.0885164,107.820073 L44.0004351,111.746878 C43.9859357,112.371542 44.3348293,112.949497 44.8988644,113.235158 L123.297829,152.872021 C123.659624,153.055919 124.092537,153.040783 124.440191,152.832081 C124.787845,152.62338 124.999992,152.251277 125,151.850184 L125,146.146555 L45.2093509,107 Z" id="Shape" stroke="none" fill="#3F3D56" fill-rule="nonzero"></path>
                            <path d="M81.1585646,88.2670989 L45.3622899,106.268102 C44.5244925,106.690125 43.9976803,107.543533 44.0000077,108.474929 C44.0023351,109.406324 44.5334058,110.257136 45.3733021,110.675041 L122.476359,149.019121 C125.262011,150.400363 128.55831,150.318549 131.270706,148.800848 L163.743497,130.651419 C164.546367,130.197424 165.029546,129.340145 164.998597,128.424566 C164.967649,127.508987 164.427661,126.685678 163.595934,126.285952 L83.3588032,88.2409061 C82.6610389,87.9107314 81.848125,87.9204088 81.1585646,88.2670989 Z" id="Shape" stroke="none" fill="#E3E8F4" fill-rule="nonzero"></path>
                            <polygon id="Shape" stroke="none" fill="#3F3D56" fill-rule="nonzero" points="88.2727273 91 49 111.05563 116.499178 145 157 124.324593"></polygon>
                            <ellipse id="Oval" stroke="none" fill="#3F3D56" fill-rule="nonzero" cx="141" cy="136.5" rx="4" ry="2.5"></ellipse>
                            <circle id="Oval" stroke="none" fill="#3F3D56" fill-rule="nonzero" cx="66.5" cy="97.5" r="1"></circle>
                            <circle id="Oval" stroke="none" fill="#3F3D56" fill-rule="nonzero" cx="64.5" cy="100.5" r="1"></circle>
                            <path d="M66,100 L71,98" id="Shape" stroke="#3F3D56" stroke-width="1" fill="none"></path>
                            <rect id="Rectangle-path" stroke="none" fill="#9AA8FF" fill-rule="nonzero" transform="translate(102.500000, 117.000000) rotate(-30.000000) translate(-102.500000, -117.000000) " x="91" y="113" width="23" height="8" rx="4"></rect>
                            <rect id="Rectangle-path" stroke="none" fill="#9AA8FF" fill-rule="nonzero" transform="translate(114.500000, 123.000000) rotate(-30.000000) translate(-114.500000, -123.000000) " x="103" y="119" width="23" height="8" rx="4"></rect>
                            <rect id="Rectangle-path" stroke="none" fill="#9AA8FF" fill-rule="nonzero" transform="translate(92.500000, 110.000000) rotate(-30.000000) translate(-92.500000, -110.000000) " x="81" y="106" width="23" height="8" rx="4"></rect>
                        </g>
                    </g>
                </g>
            </g>
        </g>
    </g>
</svg>