<?xml version="1.0" encoding="UTF-8"?>
<svg width="180px" height="180px" viewBox="0 0 180 180" version="1.1" xmlns="http://www.w3.org/2000/svg" xmlns:xlink="http://www.w3.org/1999/xlink">
    <!-- Generator: Sketch 50.2 (55047) - http://www.bohemiancoding.com/sketch -->
    <title>mobile</title>
    <desc>Created with Sketch.</desc>
    <defs>
        <circle id="path-1" cx="90" cy="90" r="90"></circle>
        <linearGradient x1="49.9966591%" y1="100%" x2="49.9966591%" y2="-0.00412916013%" id="linearGradient-3">
            <stop stop-color="#808080" stop-opacity="0.25" offset="0%"></stop>
            <stop stop-color="#808080" stop-opacity="0.12" offset="54%"></stop>
            <stop stop-color="#808080" stop-opacity="0.1" offset="100%"></stop>
        </linearGradient>
        <linearGradient x1="50.0029963%" y1="99.9977324%" x2="50.0029963%" y2="1.09563614e-05%" id="linearGradient-4">
            <stop stop-color="#808080" stop-opacity="0.25" offset="0%"></stop>
            <stop stop-color="#808080" stop-opacity="0.12" offset="54%"></stop>
            <stop stop-color="#808080" stop-opacity="0.1" offset="100%"></stop>
        </linearGradient>
        <linearGradient x1="50%" y1="99.9999909%" x2="50%" y2="9.12295312e-06%" id="linearGradient-5">
            <stop stop-color="#808080" stop-opacity="0.25" offset="0%"></stop>
            <stop stop-color="#808080" stop-opacity="0.12" offset="54%"></stop>
            <stop stop-color="#808080" stop-opacity="0.1" offset="100%"></stop>
        </linearGradient>
        <linearGradient x1="49.9943431%" y1="100.058672%" x2="49.9943431%" y2="-0.00146316257%" id="linearGradient-6">
            <stop stop-color="#808080" stop-opacity="0.25" offset="0%"></stop>
            <stop stop-color="#808080" stop-opacity="0.12" offset="54%"></stop>
            <stop stop-color="#808080" stop-opacity="0.1" offset="100%"></stop>
        </linearGradient>
        <linearGradient x1="0%" y1="49.9927018%" x2="100%" y2="49.9927018%" id="linearGradient-7">
            <stop stop-color="#808080" stop-opacity="0.25" offset="0%"></stop>
            <stop stop-color="#808080" stop-opacity="0.12" offset="54%"></stop>
            <stop stop-color="#808080" stop-opacity="0.1" offset="100%"></stop>
        </linearGradient>
        <linearGradient x1="49.999541%" y1="100.008482%" x2="49.999541%" y2="0.0204106532%" id="linearGradient-8">
            <stop stop-color="#808080" stop-opacity="0.25" offset="0%"></stop>
            <stop stop-color="#808080" stop-opacity="0.12" offset="54%"></stop>
            <stop stop-color="#808080" stop-opacity="0.1" offset="100%"></stop>
        </linearGradient>
        <linearGradient x1="49.9952267%" y1="100%" x2="49.9952267%" y2="7.20083847e-14%" id="linearGradient-9">
            <stop stop-color="#808080" stop-opacity="0.25" offset="0%"></stop>
            <stop stop-color="#808080" stop-opacity="0.12" offset="54%"></stop>
            <stop stop-color="#808080" stop-opacity="0.1" offset="100%"></stop>
        </linearGradient>
    </defs>
    <g id="Page-1" stroke="none" stroke-width="1" fill="none" fill-rule="evenodd">
        <g id="Artboard-5-Copy" transform="translate(-690.000000, -195.000000)">
            <g id="Group-2" transform="translate(330.000000, 195.000000)">
                <g id="mobile" transform="translate(360.000000, 0.000000)">
                    <mask id="mask-2" fill="white">
                        <use xlink:href="#path-1"></use>
                    </mask>
                    <use id="Oval" fill="#FFBBAE" opacity="0.200892857" xlink:href="#path-1"></use>
                    <g id="undraw_in_sync_xwsa" mask="url(#mask-2)">
                        <g transform="translate(27.000000, 0.000000)">
                            <path d="M31.6861197,8.01466093 C29.999784,7.96656816 28.2716037,8.01466093 26.6898795,8.49977061 C22.3861667,9.82127629 20.3462445,14.1454436 21.0094807,17.8820428 C21.6727169,21.6186419 24.4009821,24.8743133 27.2317665,27.8497921 C30.0625508,30.8252709 33.1297569,33.7672938 34.68219,37.3240678 C35.4563144,39.0993183 35.8182698,41.0878498 35.0315921,42.8610093 C33.8180999,45.5939333 30.1587933,47.120356 26.6459427,47.4381865 C23.133092,47.7560169 19.6055958,47.1370839 16.0801918,46.9300759 C14.6009866,46.8443453 13.0799369,46.8338904 11.6865132,47.2332694 C10.1570946,47.6681954 8.88292778,48.5568661 7.71128015,49.4831747 C3.13139327,53.1131333 -0.534190011,58.0708706 0.0641871695,63.2711628 C0.733700098,69.1740276 6.70491853,73.8390263 13.245223,76.3419413 C15.4106788,77.1783373 17.7016684,77.8432721 19.607688,79.0267725 C24.629035,82.1486205 25.7567458,88.0033925 25.2567033,93.1702288 C24.7566609,98.3370651 23.0535874,103.510174 24.0013666,108.631009 C25.1165241,114.588239 30.0520897,119.970448 36.7095589,122.483818 C42.641025,124.723268 50.0642496,124.574808 55.3303872,121.415322 C57.8975508,119.872171 59.8391383,117.728906 61.5275662,115.512457 C64.0346011,112.239277 66.1057846,108.65463 67.6891774,104.848408 C68.4235494,103.073157 69.1139846,101.164084 70.8275193,99.9303995 C71.8736332,99.1713702 73.2293969,98.7468992 74.570515,98.4165228 C78.6126993,97.4212115 82.8703831,97.1493828 86.9502275,96.2628031 C91.0300719,95.3762233 95.1245619,93.7222502 97.3423235,90.7676813 C100.480665,86.5857013 99.0161058,81.2285849 99.0307514,76.3105764 C99.0558581,65.0903241 107.213455,55.0472991 110.224171,44.1093304 C111.207518,40.5358285 111.573658,36.5817664 109.376818,33.3930066 C107.88506,31.228832 105.36811,29.6668624 102.723534,28.4603612 C96.9050478,25.8068949 90.2915154,24.6254855 83.7867789,23.475441 C74.7462621,21.8779247 63.7683423,21.6709166 56.7614711,16.5019894 C50.0475117,11.550525 40.8479857,8.01466093 31.6861197,8.01466093 Z" id="Shape" stroke="none" fill="#FF6347" fill-rule="nonzero" opacity="0.2"></path>
                            <g id="Group" opacity="0.5" stroke="none" stroke-width="1" fill="none" fill-rule="evenodd" transform="translate(4.000000, 67.000000)">
                                <path d="M0.707294118,6 C0.254117647,6.66878307 -0.118588235,7.64021164 0.474352941,8.77248677 C1.63905882,10.994709 4.51905882,10.5375661 5.91882353,12.6645503 C6.29284444,13.2539506 6.50130673,13.933065 6.52235294,14.6306878 C6.57529412,15.8349206 6.20258824,16.7830688 6.00988235,17.8433862 C5.75784561,19.0938256 5.95426506,20.3930282 6.56470588,21.5132275 C7.25183815,22.6826845 8.28876359,23.6072262 9.52941176,24.1566138 C10.6136471,24.6349206 11.6470588,24.757672 12.6847059,24.9904762 C13.971957,25.2855024 15.2257399,25.7109848 16.4265882,26.2603175 C16.9973399,26.4994836 17.5341706,26.8125694 18.0232941,27.1915344 C18.6198827,27.7147934 19.1612943,28.2977274 19.6390588,28.9312169 L24.1432941,34.4888889 C24.7156108,35.2381194 25.3534133,35.9350401 26.0491765,36.5714286 C26.8082573,37.1833664 27.6422685,37.6961381 28.5310588,38.0973545 C30.3289412,38.9925926 32.2094118,39.9089947 33.7701176,39.805291 C35.3308235,39.7015873 36.4150588,38.1968254 35.676,36.0931217 C34.9771765,34.0910053 33.0077647,32.4042328 32.1141176,30.4063492 C30.7058824,27.2571429 32.5503529,24.9037037 31.3708235,21.7502646 C30.24,18.7195767 27.0698824,16.6878307 25.0454118,13.9195767 C23.5927059,11.9513228 22.7837647,9.66137566 21.4750588,7.59365079 C19.5691765,4.63068783 16.7315294,2.36402116 14.0632941,1.21693122 C11.7166771,0.219935651 9.14706721,-0.135770922 6.61764706,0.186243386 C5.652,0.292063492 4.70117647,0.471957672 4.01505882,1.04973545 C3.28658824,1.66349206 3.37976471,2.81058201 2.90541176,3.62539683 C2.36117647,4.56296296 1.32352941,5.09417989 0.707294118,6 Z" id="Shape" fill="#9AA8FF" fill-rule="nonzero"></path>
                                <path d="M3.53435294,1.73756614 C3.53435294,1.73756614 26.0830588,22.8063492 35.1762353,39.210582" id="Shape" stroke="#535461" stroke-width="2"></path>
                                <path d="M0.561176471,8.9015873 C0.561176471,8.9015873 9.57176471,7.15132275 15.8082353,14.1714286" id="Shape" stroke="#535461" stroke-width="2"></path>
                                <path d="M6.96494118,22.1312169 C6.96494118,22.1312169 16.9178824,15.1746032 20.3611765,19.221164" id="Shape" stroke="#535461" stroke-width="2"></path>
                                <path d="M14.0209412,1.16613757 C14.0209412,1.16613757 12.9727059,6.49100529 16.7442353,15.189418" id="Shape" stroke="#535461" stroke-width="2"></path>
                                <path d="M31.3602353,21.8328042 C31.3602353,21.8328042 30.4792941,25.3248677 23.3978824,22.757672" id="Shape" stroke="#535461" stroke-width="2"></path>
                                <path d="M24.1708235,34.0486772 C24.1708235,34.0486772 28.4929412,29.0560847 26.5277647,26.605291" id="Shape" stroke="#535461" stroke-width="2"></path>
                            </g>
                            <path d="M1.51810747,48.1665787 C0.480883237,49.3724658 -0.489958642,51.0415278 0.273438391,52.6881452 C1.7421479,55.9201674 7.17927731,54.3388434 9.11888662,57.3484601 C9.69973219,58.2482844 9.77856123,59.3480698 9.64372208,60.3295109 C9.38234158,62.2495443 8.41564859,63.8798383 7.74767619,65.6345979 C7.07970379,67.3893574 6.73327089,69.5113923 7.67507049,71.3640919 C8.58160447,73.1576194 10.4921715,74.2900514 12.3425795,74.7409838 C14.1929876,75.1919162 16.0475445,75.0898953 17.8958781,75.1490674 C20.0916992,75.2337728 22.2719582,75.5498033 24.399274,76.0917406 C25.3342137,76.2999794 26.2292466,76.6540483 27.0504191,77.1405155 C27.9942932,77.7342771 28.7576902,78.6055356 29.5044916,79.4625112 L36.1427267,87.0712303 C37.0243673,88.0914393 37.9246779,89.1116484 39.0179123,89.8604818 C40.2791769,90.7235786 41.7146953,91.1622685 43.1273947,91.5846351 C46.1664617,92.4987424 49.35074,93.4210113 52.2549679,92.794603 C55.1591957,92.1681946 57.5966727,89.4381152 56.8706157,86.2775076 C56.1798244,83.267891 53.0640028,81.1336137 52.0143319,78.1852095 C50.3547731,73.5391775 54.4518088,69.2298146 53.2216609,64.5021659 C52.0433741,59.9683569 46.8199129,57.6300378 43.9156851,53.7920113 C41.8412366,51.0415278 41.0239039,47.6013829 39.210836,44.6754234 C36.592882,40.4517579 32.0290954,37.6543447 27.4860533,36.5912869 C22.9430112,35.5282291 18.3730012,36.0240507 14.1120841,37.0871085 C12.3073139,37.5380409 10.5025437,38.1073176 9.07117431,39.2336283 C7.55060359,40.4313537 7.37634992,42.2493663 6.26859444,43.6939823 C4.98451084,45.3732463 2.91628573,46.5342442 1.51810747,48.1665787 Z" id="Shape" stroke="none" fill="#9AA8FF" fill-rule="nonzero"></path>
                            <path d="M7,41 C7,41 42.167093,68.8125 54,93" id="Shape" stroke="#535461" stroke-width="2" fill="none"></path>
                            <path d="M0,53.6775966 C0,53.6775966 18.0834248,47.8183875 28,58" id="Shape" stroke="#535461" stroke-width="2" fill="none"></path>
                            <path d="M8,73 C8,73 27.1574323,58.71975 32,64.2890475" id="Shape" stroke="#535461" stroke-width="2" fill="none"></path>
                            <path d="M26.2349722,37 C26.2349722,37 23.000817,45.9665602 27,59" id="Shape" stroke="#535461" stroke-width="2" fill="none"></path>
                            <path d="M54,66 C54,66 51.3275382,70.1412002 39,68.6925729" id="Shape" stroke="#535461" stroke-width="2" fill="none"></path>
                            <path d="M36,87 C36,87 43.9743515,77.463871 41.5366236,74" id="Shape" stroke="#535461" stroke-width="2" fill="none"></path>
                            <ellipse id="Oval" stroke="none" fill="#FF6347" fill-rule="nonzero" opacity="0.1" cx="129.5" cy="135" rx="97.5" ry="26"></ellipse>
                            <path d="M52.0588916,59 C52.0588916,59 49.3687882,49.6034663 52.5640468,42.6834412 C53.921701,39.7908031 54.331029,36.5229071 53.7305698,33.3704322 C53.4344098,31.8764448 53.0059087,30.4135217 52.4504376,29" id="Shape" stroke="#535461" stroke-width="2" fill="none"></path>
                            <path d="M53,23.9041574 C53,24.9552523 51.5,28 51.5,28 C51.5,28 50,24.9533481 50,23.9041574 C50,22.8525203 50.6715729,22 51.5,22 C52.3284271,22 53,22.8525203 53,23.9041574 Z" id="Shape" stroke="none" fill="#9AA8FF" fill-rule="nonzero"></path>
                            <path d="M56.660514,29.3356118 C56.1136244,30.3123432 53,32 53,32 C53,32 53.0565119,28.021349 53.6034015,27.0446176 C53.942177,26.3742512 54.5718306,25.9734842 55.2424765,26.0013657 C55.9131224,26.0292472 56.5163012,26.4812682 56.812634,27.1780387 C57.1089668,27.8748091 57.0505297,28.7036446 56.660514,29.3356118 Z" id="Shape" stroke="none" fill="#9AA8FF" fill-rule="nonzero"></path>
                            <path d="M56.8072757,39.8027289 C55.807703,40.1665863 52,39.9157007 52,39.9157007 C52,39.9157007 53.9849527,37.5506278 54.9824979,37.1867705 C55.6327518,36.923515 56.4301559,36.9395578 57.0591914,37.228551 C57.6882269,37.5175442 58.0475274,38.0329178 57.994924,38.5707475 C57.9423205,39.1085772 57.48629,39.582194 56.8072757,39.8041961 L56.8072757,39.8027289 Z" id="Shape" stroke="none" fill="#9AA8FF" fill-rule="nonzero"></path>
                            <path d="M56.0357023,49.1749976 C55.0736318,49.7434867 51,50 51,50 C51,50 52.4994432,46.9599703 53.4615137,46.3914813 C54.080239,45.9867973 54.9272332,45.8874101 55.6652005,46.1328985 C56.4031679,46.3783869 56.9122671,46.928885 56.9897611,47.5651697 C57.0672552,48.2014543 56.7005596,48.820197 56.0357023,49.1749976 Z" id="Shape" stroke="none" fill="#9AA8FF" fill-rule="nonzero"></path>
                            <path d="M48.7864806,32.7626893 C49.717882,33.369493 54,34 54,34 C54,34 52.9498449,31.1066209 52.0277575,30.4998171 C51.4410876,30.0748916 50.5576043,29.9033582 49.7285406,30.053411 C48.8994769,30.2034637 48.2591939,30.6507844 48.0622391,31.2175387 C47.8652844,31.784293 48.1435771,32.3786305 48.7864806,32.7642695 L48.7864806,32.7626893 Z" id="Shape" stroke="none" fill="#9AA8FF" fill-rule="nonzero"></path>
                            <path d="M47.065416,41.7989535 C48.0914598,42.1697744 52,41.9140874 52,41.9140874 C52,41.9140874 49.9624809,39.5037517 48.9385183,39.1329308 C47.9226519,38.8031722 46.7255237,39.1070243 46.2234275,39.8220684 C45.7213312,40.5371125 46.0925778,41.4094129 47.065416,41.8004488 L47.065416,41.7989535 Z" id="Shape" stroke="none" fill="#9AA8FF" fill-rule="nonzero"></path>
                            <path d="M46.8183332,51.1538581 C47.8082902,51.7369139 52,52 52,52 C52,52 50.457094,48.8820739 49.467137,48.2990182 C48.4777811,47.7727742 47.1445108,47.9582823 46.4372154,48.7205944 C45.7299199,49.4829065 45.8976249,50.5536267 46.8183332,51.1538581 Z" id="Shape" stroke="none" fill="#9AA8FF" fill-rule="nonzero"></path>
                            <path d="M225.410931,110.60711 L207.596196,110.60711 C208.008447,109.803125 208.223477,108.91654 208.224286,108.017446 L208.224286,28.8190808 C208.221975,25.6046301 205.552136,22.9999992 202.259522,23 L64.3581006,23 C61.0638521,23 58.393336,25.6071214 58.393336,28.8231687 L58.393336,108.017446 C58.3941447,108.91654 58.6091747,109.803125 59.0214263,110.60711 L40.5765067,110.60711 C39.7058261,110.60711 39,111.296181 39,112.146193 L39,113.386861 C39,118.143766 42.9500016,122 47.8225756,122 L218.177424,122 C223.049998,122 227,118.143766 227,113.386861 L227,112.146193 C227.000013,111.735869 226.832194,111.342527 226.533819,111.053538 C226.235445,110.764549 225.831219,110.603841 225.410931,110.60711 Z M115.64377,115.532992 L114.115417,113.83857 L152.033231,113.83857 L150.341574,115.532992 L115.64377,115.532992 Z" id="Shape" stroke="none" fill="url(#linearGradient-3)" fill-rule="nonzero"></path>
                            <rect id="Rectangle-path" stroke="none" fill="#535461" fill-rule="nonzero" x="60" y="24" width="145" height="90" rx="23.26"></rect>
                            <rect id="Rectangle-path" stroke="none" fill="#F1F1F4" fill-rule="nonzero" x="63" y="39" width="140" height="74"></rect>
                            <circle id="Oval" stroke="none" fill="#FFFFFF" fill-rule="nonzero" cx="131" cy="31" r="1"></circle>
                            <path d="M154.797336,111 L149.975148,116.621876 L116.010175,116.621876 L111.657627,111 L42.5431,111 C41.6908694,111 41,111.786295 41,112.75624 L41,114.17364 C40.9999983,116.781819 41.9110684,119.283 43.5324903,121.126142 C45.1539121,122.969284 47.3526501,124.00316 49.6442953,123.999993 L216.366188,123.999993 C221.134511,123.999993 225,119.600585 225,114.17364 L225,112.75624 C225,111.786295 224.309131,111 223.4569,111 L154.797336,111 Z" id="Shape" stroke="none" fill="#535461" fill-rule="nonzero"></path>
                            <rect id="Rectangle-path" stroke="none" fill="#FFFFFF" fill-rule="nonzero" x="71" y="43" width="39" height="29"></rect>
                            <rect id="Rectangle-path" stroke="none" fill="#FF6347" fill-rule="nonzero" opacity="0.2" x="74" y="46" width="13" height="6"></rect>
                            <rect id="Rectangle-path" stroke="none" fill="#E6E8EC" fill-rule="nonzero" x="90" y="46" width="15" height="1"></rect>
                            <rect id="Rectangle-path" stroke="none" fill="#E6E8EC" fill-rule="nonzero" x="90" y="48" width="11" height="1"></rect>
                            <rect id="Rectangle-path" stroke="none" fill="#E6E8EC" fill-rule="nonzero" x="90" y="51" width="15" height="1"></rect>
                            <rect id="Rectangle-path" stroke="none" fill="#E6E8EC" fill-rule="nonzero" x="74" y="54" width="30" height="1"></rect>
                            <rect id="Rectangle-path" stroke="none" fill="#E6E8EC" fill-rule="nonzero" x="74" y="56" width="30" height="1"></rect>
                            <rect id="Rectangle-path" stroke="none" fill="#E6E8EC" fill-rule="nonzero" x="74" y="59" width="30" height="1"></rect>
                            <rect id="Rectangle-path" stroke="none" fill="#E6E8EC" fill-rule="nonzero" x="74" y="62" width="29" height="1"></rect>
                            <rect id="Rectangle-path" stroke="none" fill="#E6E8EC" fill-rule="nonzero" x="74" y="66" width="30" height="1"></rect>
                            <rect id="Rectangle-path" stroke="none" fill="#E6E8EC" fill-rule="nonzero" x="74" y="68" width="30" height="1"></rect>
                            <rect id="Rectangle-path" stroke="none" fill="#FFFFFF" fill-rule="nonzero" x="112" y="43" width="39" height="29"></rect>
                            <rect id="Rectangle-path" stroke="none" fill="#FF6347" fill-rule="nonzero" opacity="0.2" x="117" y="46" width="13" height="6"></rect>
                            <rect id="Rectangle-path" stroke="none" fill="#E6E8EC" fill-rule="nonzero" x="133" y="46" width="15" height="1"></rect>
                            <rect id="Rectangle-path" stroke="none" fill="#E6E8EC" fill-rule="nonzero" x="133" y="48" width="11" height="1"></rect>
                            <rect id="Rectangle-path" stroke="none" fill="#E6E8EC" fill-rule="nonzero" x="133" y="51" width="15" height="1"></rect>
                            <rect id="Rectangle-path" stroke="none" fill="#E6E8EC" fill-rule="nonzero" x="117" y="54" width="30" height="1"></rect>
                            <rect id="Rectangle-path" stroke="none" fill="#E6E8EC" fill-rule="nonzero" x="117" y="56" width="30" height="1"></rect>
                            <rect id="Rectangle-path" stroke="none" fill="#E6E8EC" fill-rule="nonzero" x="117" y="59" width="30" height="1"></rect>
                            <rect id="Rectangle-path" stroke="none" fill="#E6E8EC" fill-rule="nonzero" x="117" y="62" width="29" height="1"></rect>
                            <rect id="Rectangle-path" stroke="none" fill="#E6E8EC" fill-rule="nonzero" x="117" y="66" width="30" height="1"></rect>
                            <rect id="Rectangle-path" stroke="none" fill="#E6E8EC" fill-rule="nonzero" x="117" y="68" width="30" height="1"></rect>
                            <rect id="Rectangle-path" stroke="none" fill="#FFFFFF" fill-rule="nonzero" x="71" y="75" width="39" height="29"></rect>
                            <rect id="Rectangle-path" stroke="none" fill="#FF6347" fill-rule="nonzero" opacity="0.2" x="74" y="77" width="13" height="6"></rect>
                            <rect id="Rectangle-path" stroke="none" fill="#E6E8EC" fill-rule="nonzero" x="90" y="77" width="15" height="1"></rect>
                            <rect id="Rectangle-path" stroke="none" fill="#E6E8EC" fill-rule="nonzero" x="90" y="79" width="11" height="1"></rect>
                            <rect id="Rectangle-path" stroke="none" fill="#E6E8EC" fill-rule="nonzero" x="90" y="85" width="15" height="1"></rect>
                            <rect id="Rectangle-path" stroke="none" fill="#E6E8EC" fill-rule="nonzero" x="74" y="87" width="30" height="1"></rect>
                            <rect id="Rectangle-path" stroke="none" fill="#E6E8EC" fill-rule="nonzero" x="74" y="89" width="30" height="1"></rect>
                            <rect id="Rectangle-path" stroke="none" fill="#E6E8EC" fill-rule="nonzero" x="74" y="91" width="30" height="1"></rect>
                            <rect id="Rectangle-path" stroke="none" fill="#E6E8EC" fill-rule="nonzero" x="74" y="95" width="29" height="1"></rect>
                            <rect id="Rectangle-path" stroke="none" fill="#E6E8EC" fill-rule="nonzero" x="74" y="97" width="30" height="1"></rect>
                            <rect id="Rectangle-path" stroke="none" fill="#E6E8EC" fill-rule="nonzero" x="74" y="99" width="30" height="1"></rect>
                            <rect id="Rectangle-path" stroke="none" fill="#FFFFFF" fill-rule="nonzero" x="112" y="75" width="39" height="29"></rect>
                            <rect id="Rectangle-path" stroke="none" fill="#FF6347" fill-rule="nonzero" opacity="0.2" x="117" y="77" width="13" height="6"></rect>
                            <rect id="Rectangle-path" stroke="none" fill="#E6E8EC" fill-rule="nonzero" x="133" y="77" width="15" height="1"></rect>
                            <rect id="Rectangle-path" stroke="none" fill="#E6E8EC" fill-rule="nonzero" x="133" y="79" width="11" height="1"></rect>
                            <rect id="Rectangle-path" stroke="none" fill="#E6E8EC" fill-rule="nonzero" x="133" y="85" width="15" height="1"></rect>
                            <rect id="Rectangle-path" stroke="none" fill="#E6E8EC" fill-rule="nonzero" x="117" y="87" width="30" height="1"></rect>
                            <rect id="Rectangle-path" stroke="none" fill="#E6E8EC" fill-rule="nonzero" x="117" y="89" width="30" height="1"></rect>
                            <rect id="Rectangle-path" stroke="none" fill="#E6E8EC" fill-rule="nonzero" x="117" y="91" width="30" height="1"></rect>
                            <rect id="Rectangle-path" stroke="none" fill="#E6E8EC" fill-rule="nonzero" x="117" y="95" width="29" height="1"></rect>
                            <rect id="Rectangle-path" stroke="none" fill="#E6E8EC" fill-rule="nonzero" x="117" y="97" width="30" height="1"></rect>
                            <rect id="Rectangle-path" stroke="none" fill="#E6E8EC" fill-rule="nonzero" x="117" y="99" width="30" height="1"></rect>
                            <path d="M91.6535027,53.0000101 L33.3506322,53.0000101 C31.9328659,52.9972493 30.5721975,53.561722 29.5685207,54.5690176 C28.5648438,55.5763132 28.0005462,56.943747 28,58.3699341 L28,139.634229 C28.0016437,141.059334 28.5661415,142.425383 29.5692518,143.431719 C30.5723621,144.438055 31.9318722,145.002201 33.3485648,144.999994 L91.6514352,144.999994 C93.0681278,145.002201 94.4276379,144.438055 95.4307482,143.431719 C96.4338585,142.425383 96.9983563,141.059334 97,139.634229 L97,58.3699341 C96.9994523,56.9444688 96.4357223,55.5776668 95.4329404,54.570491 C94.4301585,53.5633152 93.0705532,52.9983544 91.6535027,53.0000101 Z" id="Shape" stroke="none" fill="url(#linearGradient-4)" fill-rule="nonzero"></path>
                            <rect id="Rectangle-path" stroke="none" fill="#535461" fill-rule="nonzero" x="29" y="54" width="68" height="90" rx="20"></rect>
                            <rect id="Rectangle-path" stroke="none" fill="#F1F1F4" fill-rule="nonzero" x="32" y="63" width="62" height="73"></rect>
                            <circle id="Oval" stroke="none" fill="#FFFFFF" fill-rule="nonzero" cx="63.5" cy="57.5" r="1"></circle>
                            <circle id="Oval" stroke="none" fill="#FFFFFF" fill-rule="nonzero" cx="62" cy="140" r="2"></circle>
                            <rect id="Rectangle-path" stroke="none" fill="#FFFFFF" fill-rule="nonzero" x="36" y="70" width="18" height="13"></rect>
                            <rect id="Rectangle-path" stroke="none" fill="#FF6347" fill-rule="nonzero" opacity="0.2" x="36" y="72" width="6" height="3"></rect>
                            <rect id="Rectangle-path" stroke="none" fill="#E6E8EC" fill-rule="nonzero" x="43" y="72" width="6" height="1"></rect>
                            <rect id="Rectangle-path" stroke="none" fill="#E6E8EC" fill-rule="nonzero" x="43" y="73" width="4" height="1"></rect>
                            <rect id="Rectangle-path" stroke="none" fill="#E6E8EC" fill-rule="nonzero" x="43" y="74" width="6" height="1"></rect>
                            <rect id="Rectangle-path" stroke="none" fill="#E6E8EC" fill-rule="nonzero" x="36" y="74" width="15" height="1"></rect>
                            <rect id="Rectangle-path" stroke="none" fill="#E6E8EC" fill-rule="nonzero" x="36" y="76" width="15" height="1"></rect>
                            <rect id="Rectangle-path" stroke="none" fill="#E6E8EC" fill-rule="nonzero" x="36" y="77" width="15" height="1"></rect>
                            <rect id="Rectangle-path" stroke="none" fill="#E6E8EC" fill-rule="nonzero" x="36" y="78" width="13" height="1"></rect>
                            <rect id="Rectangle-path" stroke="none" fill="#E6E8EC" fill-rule="nonzero" x="36" y="78" width="15" height="1"></rect>
                            <rect id="Rectangle-path" stroke="none" fill="#E6E8EC" fill-rule="nonzero" x="36" y="80" width="15" height="1"></rect>
                            <rect id="Rectangle-path" stroke="none" fill="#FFFFFF" fill-rule="nonzero" x="54" y="70" width="18" height="13"></rect>
                            <rect id="Rectangle-path" stroke="none" fill="#FF6347" fill-rule="nonzero" opacity="0.2" x="55" y="72" width="6" height="3"></rect>
                            <rect id="Rectangle-path" stroke="none" fill="#E6E8EC" fill-rule="nonzero" x="64" y="72" width="6" height="1"></rect>
                            <rect id="Rectangle-path" stroke="none" fill="#E6E8EC" fill-rule="nonzero" x="64" y="73" width="4" height="1"></rect>
                            <rect id="Rectangle-path" stroke="none" fill="#E6E8EC" fill-rule="nonzero" x="64" y="74" width="6" height="1"></rect>
                            <rect id="Rectangle-path" stroke="none" fill="#E6E8EC" fill-rule="nonzero" x="55" y="74" width="15" height="1"></rect>
                            <rect id="Rectangle-path" stroke="none" fill="#E6E8EC" fill-rule="nonzero" x="55" y="76" width="15" height="1"></rect>
                            <rect id="Rectangle-path" stroke="none" fill="#E6E8EC" fill-rule="nonzero" x="55" y="77" width="15" height="1"></rect>
                            <rect id="Rectangle-path" stroke="none" fill="#E6E8EC" fill-rule="nonzero" x="55" y="78" width="13" height="1"></rect>
                            <rect id="Rectangle-path" stroke="none" fill="#E6E8EC" fill-rule="nonzero" x="55" y="78" width="15" height="1"></rect>
                            <rect id="Rectangle-path" stroke="none" fill="#E6E8EC" fill-rule="nonzero" x="55" y="80" width="15" height="1"></rect>
                            <rect id="Rectangle-path" stroke="none" fill="#FFFFFF" fill-rule="nonzero" x="73" y="70" width="18" height="13"></rect>
                            <rect id="Rectangle-path" stroke="none" fill="#FF6347" fill-rule="nonzero" opacity="0.2" x="75" y="72" width="6" height="3"></rect>
                            <rect id="Rectangle-path" stroke="none" fill="#E6E8EC" fill-rule="nonzero" x="84" y="72" width="6" height="1"></rect>
                            <rect id="Rectangle-path" stroke="none" fill="#E6E8EC" fill-rule="nonzero" x="84" y="73" width="4" height="1"></rect>
                            <rect id="Rectangle-path" stroke="none" fill="#E6E8EC" fill-rule="nonzero" x="84" y="74" width="6" height="1"></rect>
                            <rect id="Rectangle-path" stroke="none" fill="#E6E8EC" fill-rule="nonzero" x="75" y="74" width="15" height="1"></rect>
                            <rect id="Rectangle-path" stroke="none" fill="#E6E8EC" fill-rule="nonzero" x="75" y="76" width="15" height="1"></rect>
                            <rect id="Rectangle-path" stroke="none" fill="#E6E8EC" fill-rule="nonzero" x="75" y="77" width="15" height="1"></rect>
                            <rect id="Rectangle-path" stroke="none" fill="#E6E8EC" fill-rule="nonzero" x="75" y="78" width="13" height="1"></rect>
                            <rect id="Rectangle-path" stroke="none" fill="#E6E8EC" fill-rule="nonzero" x="75" y="78" width="15" height="1"></rect>
                            <rect id="Rectangle-path" stroke="none" fill="#E6E8EC" fill-rule="nonzero" x="75" y="80" width="15" height="1"></rect>
                            <rect id="Rectangle-path" stroke="none" fill="#FFFFFF" fill-rule="nonzero" x="36" y="86" width="18" height="13"></rect>
                            <rect id="Rectangle-path" stroke="none" fill="#FF6347" fill-rule="nonzero" opacity="0.2" x="36" y="86" width="6" height="3"></rect>
                            <rect id="Rectangle-path" stroke="none" fill="#E6E8EC" fill-rule="nonzero" x="43" y="86" width="6" height="1"></rect>
                            <rect id="Rectangle-path" stroke="none" fill="#E6E8EC" fill-rule="nonzero" x="43" y="88" width="4" height="1"></rect>
                            <rect id="Rectangle-path" stroke="none" fill="#E6E8EC" fill-rule="nonzero" x="43" y="89" width="6" height="1"></rect>
                            <rect id="Rectangle-path" stroke="none" fill="#E6E8EC" fill-rule="nonzero" x="36" y="90" width="15" height="1"></rect>
                            <rect id="Rectangle-path" stroke="none" fill="#E6E8EC" fill-rule="nonzero" x="36" y="91" width="15" height="1"></rect>
                            <rect id="Rectangle-path" stroke="none" fill="#E6E8EC" fill-rule="nonzero" x="36" y="92" width="15" height="1"></rect>
                            <rect id="Rectangle-path" stroke="none" fill="#E6E8EC" fill-rule="nonzero" x="36" y="94" width="13" height="1"></rect>
                            <rect id="Rectangle-path" stroke="none" fill="#E6E8EC" fill-rule="nonzero" x="36" y="95" width="15" height="1"></rect>
                            <rect id="Rectangle-path" stroke="none" fill="#E6E8EC" fill-rule="nonzero" x="36" y="96" width="15" height="1"></rect>
                            <rect id="Rectangle-path" stroke="none" fill="#FFFFFF" fill-rule="nonzero" x="54" y="86" width="18" height="13"></rect>
                            <rect id="Rectangle-path" stroke="none" fill="#FF6347" fill-rule="nonzero" opacity="0.2" x="55" y="86" width="6" height="3"></rect>
                            <rect id="Rectangle-path" stroke="none" fill="#E6E8EC" fill-rule="nonzero" x="64" y="86" width="6" height="1"></rect>
                            <rect id="Rectangle-path" stroke="none" fill="#E6E8EC" fill-rule="nonzero" x="64" y="88" width="4" height="1"></rect>
                            <rect id="Rectangle-path" stroke="none" fill="#E6E8EC" fill-rule="nonzero" x="64" y="89" width="6" height="1"></rect>
                            <rect id="Rectangle-path" stroke="none" fill="#E6E8EC" fill-rule="nonzero" x="55" y="90" width="15" height="1"></rect>
                            <rect id="Rectangle-path" stroke="none" fill="#E6E8EC" fill-rule="nonzero" x="55" y="91" width="15" height="1"></rect>
                            <rect id="Rectangle-path" stroke="none" fill="#E6E8EC" fill-rule="nonzero" x="55" y="92" width="15" height="1"></rect>
                            <rect id="Rectangle-path" stroke="none" fill="#E6E8EC" fill-rule="nonzero" x="55" y="94" width="13" height="1"></rect>
                            <rect id="Rectangle-path" stroke="none" fill="#E6E8EC" fill-rule="nonzero" x="55" y="95" width="15" height="1"></rect>
                            <rect id="Rectangle-path" stroke="none" fill="#E6E8EC" fill-rule="nonzero" x="55" y="96" width="15" height="1"></rect>
                            <rect id="Rectangle-path" stroke="none" fill="#FFFFFF" fill-rule="nonzero" x="73" y="86" width="18" height="13"></rect>
                            <rect id="Rectangle-path" stroke="none" fill="#FF6347" fill-rule="nonzero" opacity="0.2" x="75" y="86" width="6" height="3"></rect>
                            <rect id="Rectangle-path" stroke="none" fill="#E6E8EC" fill-rule="nonzero" x="84" y="86" width="6" height="1"></rect>
                            <rect id="Rectangle-path" stroke="none" fill="#E6E8EC" fill-rule="nonzero" x="84" y="88" width="4" height="1"></rect>
                            <rect id="Rectangle-path" stroke="none" fill="#E6E8EC" fill-rule="nonzero" x="84" y="89" width="6" height="1"></rect>
                            <rect id="Rectangle-path" stroke="none" fill="#E6E8EC" fill-rule="nonzero" x="75" y="90" width="15" height="1"></rect>
                            <rect id="Rectangle-path" stroke="none" fill="#E6E8EC" fill-rule="nonzero" x="75" y="91" width="15" height="1"></rect>
                            <rect id="Rectangle-path" stroke="none" fill="#E6E8EC" fill-rule="nonzero" x="75" y="92" width="15" height="1"></rect>
                            <rect id="Rectangle-path" stroke="none" fill="#E6E8EC" fill-rule="nonzero" x="75" y="94" width="13" height="1"></rect>
                            <rect id="Rectangle-path" stroke="none" fill="#E6E8EC" fill-rule="nonzero" x="75" y="95" width="15" height="1"></rect>
                            <rect id="Rectangle-path" stroke="none" fill="#E6E8EC" fill-rule="nonzero" x="75" y="96" width="15" height="1"></rect>
                            <rect id="Rectangle-path" stroke="none" fill="#FFFFFF" fill-rule="nonzero" x="36" y="99" width="18" height="13"></rect>
                            <rect id="Rectangle-path" stroke="none" fill="#FF6347" fill-rule="nonzero" opacity="0.2" x="36" y="101" width="6" height="3"></rect>
                            <rect id="Rectangle-path" stroke="none" fill="#E6E8EC" fill-rule="nonzero" x="43" y="101" width="6" height="1"></rect>
                            <rect id="Rectangle-path" stroke="none" fill="#E6E8EC" fill-rule="nonzero" x="43" y="102" width="4" height="1"></rect>
                            <rect id="Rectangle-path" stroke="none" fill="#E6E8EC" fill-rule="nonzero" x="43" y="103" width="6" height="1"></rect>
                            <rect id="Rectangle-path" stroke="none" fill="#E6E8EC" fill-rule="nonzero" x="36" y="105" width="15" height="1"></rect>
                            <rect id="Rectangle-path" stroke="none" fill="#E6E8EC" fill-rule="nonzero" x="36" y="107" width="15" height="1"></rect>
                            <rect id="Rectangle-path" stroke="none" fill="#E6E8EC" fill-rule="nonzero" x="36" y="108" width="15" height="1"></rect>
                            <rect id="Rectangle-path" stroke="none" fill="#E6E8EC" fill-rule="nonzero" x="36" y="109" width="13" height="1"></rect>
                            <rect id="Rectangle-path" stroke="none" fill="#E6E8EC" fill-rule="nonzero" x="36" y="110" width="15" height="1"></rect>
                            <rect id="Rectangle-path" stroke="none" fill="#E6E8EC" fill-rule="nonzero" x="36" y="111" width="15" height="1"></rect>
                            <rect id="Rectangle-path" stroke="none" fill="#FFFFFF" fill-rule="nonzero" x="54" y="99" width="18" height="13"></rect>
                            <rect id="Rectangle-path" stroke="none" fill="#FF6347" fill-rule="nonzero" opacity="0.2" x="55" y="101" width="6" height="3"></rect>
                            <rect id="Rectangle-path" stroke="none" fill="#E6E8EC" fill-rule="nonzero" x="64" y="101" width="6" height="1"></rect>
                            <rect id="Rectangle-path" stroke="none" fill="#E6E8EC" fill-rule="nonzero" x="64" y="102" width="4" height="1"></rect>
                            <rect id="Rectangle-path" stroke="none" fill="#E6E8EC" fill-rule="nonzero" x="64" y="103" width="6" height="1"></rect>
                            <rect id="Rectangle-path" stroke="none" fill="#E6E8EC" fill-rule="nonzero" x="55" y="105" width="15" height="1"></rect>
                            <rect id="Rectangle-path" stroke="none" fill="#E6E8EC" fill-rule="nonzero" x="55" y="107" width="15" height="1"></rect>
                            <rect id="Rectangle-path" stroke="none" fill="#E6E8EC" fill-rule="nonzero" x="55" y="108" width="15" height="1"></rect>
                            <rect id="Rectangle-path" stroke="none" fill="#E6E8EC" fill-rule="nonzero" x="55" y="109" width="13" height="1"></rect>
                            <rect id="Rectangle-path" stroke="none" fill="#E6E8EC" fill-rule="nonzero" x="55" y="110" width="15" height="1"></rect>
                            <rect id="Rectangle-path" stroke="none" fill="#E6E8EC" fill-rule="nonzero" x="55" y="111" width="15" height="1"></rect>
                            <rect id="Rectangle-path" stroke="none" fill="#FFFFFF" fill-rule="nonzero" x="73" y="99" width="18" height="13"></rect>
                            <rect id="Rectangle-path" stroke="none" fill="#FF6347" fill-rule="nonzero" opacity="0.2" x="75" y="101" width="6" height="3"></rect>
                            <rect id="Rectangle-path" stroke="none" fill="#E6E8EC" fill-rule="nonzero" x="84" y="101" width="6" height="1"></rect>
                            <rect id="Rectangle-path" stroke="none" fill="#E6E8EC" fill-rule="nonzero" x="84" y="102" width="4" height="1"></rect>
                            <rect id="Rectangle-path" stroke="none" fill="#E6E8EC" fill-rule="nonzero" x="84" y="103" width="6" height="1"></rect>
                            <rect id="Rectangle-path" stroke="none" fill="#E6E8EC" fill-rule="nonzero" x="75" y="105" width="15" height="1"></rect>
                            <rect id="Rectangle-path" stroke="none" fill="#E6E8EC" fill-rule="nonzero" x="75" y="107" width="15" height="1"></rect>
                            <rect id="Rectangle-path" stroke="none" fill="#E6E8EC" fill-rule="nonzero" x="75" y="108" width="15" height="1"></rect>
                            <rect id="Rectangle-path" stroke="none" fill="#E6E8EC" fill-rule="nonzero" x="75" y="109" width="13" height="1"></rect>
                            <rect id="Rectangle-path" stroke="none" fill="#E6E8EC" fill-rule="nonzero" x="75" y="110" width="15" height="1"></rect>
                            <rect id="Rectangle-path" stroke="none" fill="#E6E8EC" fill-rule="nonzero" x="75" y="111" width="15" height="1"></rect>
                            <rect id="Rectangle-path" stroke="none" fill="#FFFFFF" fill-rule="nonzero" x="36" y="114" width="18" height="13"></rect>
                            <rect id="Rectangle-path" stroke="none" fill="#FF6347" fill-rule="nonzero" opacity="0.2" x="36" y="116" width="6" height="3"></rect>
                            <rect id="Rectangle-path" stroke="none" fill="#E6E8EC" fill-rule="nonzero" x="43" y="116" width="6" height="1"></rect>
                            <rect id="Rectangle-path" stroke="none" fill="#E6E8EC" fill-rule="nonzero" x="43" y="117" width="4" height="1"></rect>
                            <rect id="Rectangle-path" stroke="none" fill="#E6E8EC" fill-rule="nonzero" x="43" y="118" width="6" height="1"></rect>
                            <rect id="Rectangle-path" stroke="none" fill="#E6E8EC" fill-rule="nonzero" x="36" y="120" width="15" height="1"></rect>
                            <rect id="Rectangle-path" stroke="none" fill="#E6E8EC" fill-rule="nonzero" x="36" y="121" width="15" height="1"></rect>
                            <rect id="Rectangle-path" stroke="none" fill="#E6E8EC" fill-rule="nonzero" x="36" y="122" width="15" height="1"></rect>
                            <rect id="Rectangle-path" stroke="none" fill="#E6E8EC" fill-rule="nonzero" x="36" y="123" width="13" height="1"></rect>
                            <rect id="Rectangle-path" stroke="none" fill="#E6E8EC" fill-rule="nonzero" x="36" y="124" width="15" height="1"></rect>
                            <rect id="Rectangle-path" stroke="none" fill="#E6E8EC" fill-rule="nonzero" x="36" y="125" width="15" height="1"></rect>
                            <rect id="Rectangle-path" stroke="none" fill="#FFFFFF" fill-rule="nonzero" x="54" y="114" width="18" height="13"></rect>
                            <rect id="Rectangle-path" stroke="none" fill="#FF6347" fill-rule="nonzero" opacity="0.2" x="55" y="116" width="6" height="3"></rect>
                            <rect id="Rectangle-path" stroke="none" fill="#E6E8EC" fill-rule="nonzero" x="64" y="116" width="6" height="1"></rect>
                            <rect id="Rectangle-path" stroke="none" fill="#E6E8EC" fill-rule="nonzero" x="64" y="117" width="4" height="1"></rect>
                            <rect id="Rectangle-path" stroke="none" fill="#E6E8EC" fill-rule="nonzero" x="64" y="118" width="6" height="1"></rect>
                            <rect id="Rectangle-path" stroke="none" fill="#E6E8EC" fill-rule="nonzero" x="55" y="120" width="15" height="1"></rect>
                            <rect id="Rectangle-path" stroke="none" fill="#E6E8EC" fill-rule="nonzero" x="55" y="121" width="15" height="1"></rect>
                            <rect id="Rectangle-path" stroke="none" fill="#E6E8EC" fill-rule="nonzero" x="55" y="122" width="15" height="1"></rect>
                            <rect id="Rectangle-path" stroke="none" fill="#E6E8EC" fill-rule="nonzero" x="55" y="123" width="13" height="1"></rect>
                            <rect id="Rectangle-path" stroke="none" fill="#E6E8EC" fill-rule="nonzero" x="55" y="124" width="15" height="1"></rect>
                            <rect id="Rectangle-path" stroke="none" fill="#E6E8EC" fill-rule="nonzero" x="55" y="125" width="15" height="1"></rect>
                            <rect id="Rectangle-path" stroke="none" fill="#000000" fill-rule="nonzero" opacity="0.1" x="73" y="114" width="18" height="13"></rect>
                            <path d="M48.0224784,79.0000066 L17.9775216,79.0000066 C17.1894842,78.9983476 16.4330664,79.3110085 15.8746724,79.8692071 C15.3162784,80.4274058 15.0016492,81.1854171 15,81.9764865 L15,148.023514 C15.0016492,148.814583 15.3162784,149.572594 15.8746724,150.130793 C16.4330664,150.688992 17.1894842,151.001652 17.9775216,150.999993 L48.0224784,150.999993 C48.8105158,151.001652 49.5669336,150.688992 50.1253276,150.130793 C50.6837216,149.572594 50.9983508,148.814583 51,148.023514 L51,81.9785694 C50.9989006,81.1871388 50.684514,80.4285924 50.1260603,79.8699434 C49.5676066,79.3112944 48.8108747,78.9983478 48.0224784,79.0000066 Z" id="Shape" stroke="none" fill="url(#linearGradient-5)" fill-rule="nonzero"></path>
                            <rect id="Rectangle-path" stroke="none" fill="#535461" fill-rule="nonzero" x="15" y="80" width="36" height="72" rx="11"></rect>
                            <rect id="Rectangle-path" stroke="none" fill="#F1F1F4" fill-rule="nonzero" x="18" y="88" width="30" height="57"></rect>
                            <circle id="Oval" stroke="none" fill="#FFFFFF" fill-rule="nonzero" cx="29.25" cy="86.25" r="1"></circle>
                            <rect id="Rectangle-path" stroke="none" fill="#FFFFFF" fill-rule="nonzero" x="30" y="86" width="6" height="1" rx="0.5"></rect>
                            <circle id="Oval" stroke="none" fill="#FFFFFF" fill-rule="nonzero" cx="31.5" cy="146.5" r="1.5"></circle>
                            <rect id="Rectangle-path" stroke="none" fill="#000000" fill-rule="nonzero" opacity="0.1" x="22" y="91" width="21" height="17"></rect>
                            <rect id="Rectangle-path" stroke="none" fill="#FFFFFF" fill-rule="nonzero" x="22" y="109" width="21" height="17"></rect>
                            <rect id="Rectangle-path" stroke="none" fill="#FF6347" fill-rule="nonzero" opacity="0.2" x="23" y="110" width="6" height="3"></rect>
                            <rect id="Rectangle-path" stroke="none" fill="#E6E8EC" fill-rule="nonzero" x="33" y="110" width="8" height="1"></rect>
                            <rect id="Rectangle-path" stroke="none" fill="#E6E8EC" fill-rule="nonzero" x="33" y="111" width="6" height="1"></rect>
                            <rect id="Rectangle-path" stroke="none" fill="#E6E8EC" fill-rule="nonzero" x="33" y="113" width="8" height="1"></rect>
                            <rect id="Rectangle-path" stroke="none" fill="#E6E8EC" fill-rule="nonzero" x="23" y="114" width="18" height="1"></rect>
                            <rect id="Rectangle-path" stroke="none" fill="#E6E8EC" fill-rule="nonzero" x="23" y="116" width="18" height="1"></rect>
                            <rect id="Rectangle-path" stroke="none" fill="#E6E8EC" fill-rule="nonzero" x="23" y="117" width="18" height="1"></rect>
                            <rect id="Rectangle-path" stroke="none" fill="#E6E8EC" fill-rule="nonzero" x="23" y="118" width="15" height="1"></rect>
                            <rect id="Rectangle-path" stroke="none" fill="#E6E8EC" fill-rule="nonzero" x="23" y="121" width="18" height="1"></rect>
                            <rect id="Rectangle-path" stroke="none" fill="#E6E8EC" fill-rule="nonzero" x="23" y="121" width="18" height="1"></rect>
                            <rect id="Rectangle-path" stroke="none" fill="#FFFFFF" fill-rule="nonzero" x="22" y="125" width="21" height="17"></rect>
                            <rect id="Rectangle-path" stroke="none" fill="#FF6347" fill-rule="nonzero" opacity="0.2" x="23" y="127" width="6" height="3"></rect>
                            <rect id="Rectangle-path" stroke="none" fill="#E6E8EC" fill-rule="nonzero" x="33" y="127" width="8" height="1"></rect>
                            <rect id="Rectangle-path" stroke="none" fill="#E6E8EC" fill-rule="nonzero" x="33" y="130" width="6" height="1"></rect>
                            <rect id="Rectangle-path" stroke="none" fill="#E6E8EC" fill-rule="nonzero" x="33" y="131" width="8" height="1"></rect>
                            <rect id="Rectangle-path" stroke="none" fill="#E6E8EC" fill-rule="nonzero" x="23" y="132" width="18" height="1"></rect>
                            <rect id="Rectangle-path" stroke="none" fill="#E6E8EC" fill-rule="nonzero" x="23" y="134" width="18" height="1"></rect>
                            <rect id="Rectangle-path" stroke="none" fill="#E6E8EC" fill-rule="nonzero" x="23" y="134" width="18" height="1"></rect>
                            <rect id="Rectangle-path" stroke="none" fill="#E6E8EC" fill-rule="nonzero" x="23" y="138" width="15" height="1"></rect>
                            <rect id="Rectangle-path" stroke="none" fill="#E6E8EC" fill-rule="nonzero" x="23" y="139" width="18" height="1"></rect>
                            <rect id="Rectangle-path" stroke="none" fill="#E6E8EC" fill-rule="nonzero" x="23" y="140" width="18" height="1"></rect>
                            <path d="M113,133.547491 C111.587769,131.816538 109.877119,129.826473 110.116694,127.522075 C110.310036,125.655194 109.845596,123.930612 109.938064,122.059483 C110.068359,119.400399 109.536671,117.316884 107.641086,115.611417 C106.533578,114.615322 104.682125,113.831614 104.131523,114.031258 C103.038725,114.426298 101.847155,114.275503 100.722834,114.540987 C99.8696109,114.753374 99.300095,115.052839 98.9491387,115.441507 C98.2409215,116.078668 98.2283123,116.983436 98.5519486,117.949797 C97.9804769,119.005435 97.8803267,120.256919 98.276514,121.39165 C98.6727012,122.526381 99.5278157,123.43721 100.628265,123.89663 C99.8401894,124.227954 99.1571906,124.99467 98.8944988,126.549343 C98.7076073,127.617587 98.4262753,128.666734 98.0538849,129.684173 C97.8869405,129.764413 97.7157574,129.835315 97.5411104,129.89656 C97.578938,129.911427 97.6188672,129.922047 97.6587964,129.936914 C97.5768365,129.968772 97.4927751,130.00063 97.4108153,130.030364 C97.5619857,130.089707 97.7181273,130.135199 97.877356,130.166292 C97.3040057,131.670214 96.5335742,133.089587 95.5866831,134.38642 C95.5866831,134.38642 93.2077458,134.917387 92.2830705,133.989256 C92.2830705,133.989256 92.434381,134.167661 92.6382299,134.435269 C91.7324684,134.055096 90.2487849,133.43705 88.9794579,132.927322 C88.0589857,132.557768 87.8215122,132.927322 87.8341214,133.441298 C87.6078509,133.467841 87.3891654,133.540066 87.1910518,133.653685 C86.9190034,133.477139 86.6337284,133.322334 86.3378287,133.190681 C85.8082419,133.059001 84.0912881,132.128747 82.3722326,135.31455 C81.3719021,137.168688 78.7996236,140.549888 76.8346886,143.053929 C72.9993877,144.835856 68.0082427,147.089281 66.154689,147.660602 L64.9694234,147.660602 C64.8139098,147.403613 64.70463,147.235828 64.70463,147.235828 L64.6121625,147.29742 L64.5722333,147.235828 C64.5722333,147.235828 62.2374282,148.869083 59.8668971,148.881826 C59.5295987,148.876312 59.1940085,148.832136 58.8665665,148.750146 C57.77587,148.47192 57.0088098,148.348735 56.4603092,148.359354 C55.810935,148.348735 55.4431664,148.503778 55.2140991,148.796871 C55.184265,148.835426 55.1568896,148.875862 55.1321393,148.917932 C55.1066982,148.961263 55.0835488,149.005927 55.0627886,149.051736 C55.0417733,149.098461 55.0228595,149.14731 55.0039457,149.198283 C54.9891872,149.288798 55.0162935,149.381156 55.0774994,149.448899 C55.1090728,149.494921 55.1434651,149.5389 55.1804746,149.580579 L55.2456221,149.652791 C55.715168,150.094585 56.2237618,150.491992 56.7650318,150.840034 C56.9604745,150.973837 57.1664249,151.109765 57.382883,151.24994 L57.7926823,151.5133 L58.1583493,151.744802 L58.3054567,151.836128 L58.4693764,151.938074 L58.7614898,152.118603 L58.9359172,152.224796 L59.2637566,152.422316 L59.52855,152.581606 C60.2220564,153.00638 60.9155629,153.397172 61.5376172,153.751858 L61.9747364,154.000351 L62.0167671,154.023713 L62.2962712,154.18088 L62.7817257,154.452735 L63.1158698,154.637512 L63.2713833,154.72459 L63.4395061,154.815917 L63.4731307,154.835031 L63.7631425,154.994322 C63.884011,155.014492 64.0075722,154.980365 64.1014896,154.900871 C64.185551,154.539814 64.3915014,153.766725 64.610061,153.707257 C64.8286206,153.647789 65.7827174,151.957189 66.0538153,150.831538 L68.6323985,150.831538 C69.1392228,150.788513 69.64262,150.711172 70.1391989,150.600036 C69.4730124,151.080031 68.8131305,151.38162 68.300356,151.252064 C67.2159641,150.980209 66.1883136,151.647104 66.0853384,152.313999 L66.0727292,152.354352 C66.0727292,152.367095 66.0727292,152.381963 66.0727292,152.394706 C66.0727292,152.407449 66.0727292,152.426564 66.0727292,152.443555 C66.0727292,152.460546 66.0727292,152.471165 66.0727292,152.483908 C66.0727292,152.496651 66.0727292,152.515766 66.0727292,152.532757 C66.0727292,152.549748 66.0727292,152.560368 66.0727292,152.573111 C66.0727292,152.585854 66.0727292,152.607093 66.0727292,152.62196 C66.0727292,152.636827 66.0727292,152.647446 66.0727292,152.660189 C66.0727292,152.672933 66.0727292,152.696295 66.0853384,152.713286 C66.0979476,152.730277 66.0853384,152.736649 66.0853384,152.747268 C66.093146,152.770434 66.1022677,152.793126 66.1126583,152.815232 L66.1126583,152.832223 C66.1269414,152.860201 66.1430904,152.887166 66.1609936,152.91293 L66.182009,152.94054 L66.2240397,152.993637 L66.2534611,153.023371 L66.3017964,153.070096 L66.3375225,153.09983 L66.394264,153.142308 L66.4362947,153.169918 L66.5056453,153.210271 L66.5518791,153.235758 L66.638042,153.276111 L66.6821742,153.295226 C66.728408,153.314341 66.7767433,153.333456 66.8292817,153.350447 C66.88182,153.367438 67.0100136,153.405667 67.121395,153.433278 L67.2327763,153.460888 L67.3945945,153.499118 L67.4807574,153.518233 L67.8338153,153.590444 L68.0061411,153.622302 L68.1469439,153.647789 L68.4705803,153.705133 L69.1010407,153.809203 L69.6579474,153.894157 L70.3829769,153.998227 L70.5426936,154.019466 L70.8032839,154.055571 L71.177357,154.106544 L71.4337443,154.140526 L72.0957277,154.225481 L72.3058812,154.250967 L72.7261882,154.30194 C73.2746887,154.36778 73.806377,154.431496 74.2939331,154.486717 L74.8592459,154.550433 L75.1450546,154.582291 L75.2669437,154.595034 L75.6094938,154.633264 L75.8007335,154.654502 L76.0340038,154.679989 L76.3639448,154.713971 L76.3996709,154.713971 L76.6098244,154.73521 C76.663009,154.74056 76.7159823,154.723172 76.7559074,154.687261 C76.7958325,154.65135 76.819066,154.600193 76.8199778,154.546185 C76.8199778,154.546185 76.8199778,154.531318 76.8199778,154.524946 C76.8399643,154.494734 76.8509089,154.459339 76.8515009,154.423001 C76.856812,154.105288 76.8962723,153.789099 76.9691868,153.480003 C76.9838975,153.426906 77.0007098,153.371686 77.0175221,153.318589 L77.0385375,153.256997 C77.0616543,153.191157 77.0847712,153.125317 77.1120912,153.057353 C77.1307972,153.009417 77.1469324,152.960497 77.1604265,152.910806 L77.1730357,152.864081 C77.1730357,152.838594 77.1856449,152.810984 77.1919495,152.783374 C77.4588444,151.865862 77.1373096,150.156148 77.0448421,149.485005 C77.0158331,149.268594 76.9672956,149.055318 76.8998362,148.847844 C76.9166076,148.84952 76.9335016,148.84952 76.950273,148.847844 C77.0873012,148.796209 77.2161492,148.724661 77.3327523,148.635457 C79.280875,147.932457 80.9263767,147.129634 81.4454558,146.324688 C82.2898216,146.097401 83.1874095,146.191893 83.9672975,146.590171 C84.9760342,147.097776 92.6109099,149.614561 96.1667067,150.778441 C96.7971671,151.334895 97.3057385,151.659847 97.5810396,151.627989 C97.5810396,151.627989 102.105644,152.367095 103.925573,150.922864 C104.087391,151.03543 104.188265,151.097022 104.188265,151.097022 C104.188265,151.097022 106.831996,149.769604 107.229186,148.045022 C107.357379,147.486444 107.472964,146.660259 107.59065,145.746995 C108.204501,145.12245 108.54964,144.278292 108.551051,143.397996 C108.633011,140.498915 109.744723,137.187803 110.568524,134.237749 C111.568855,134.316332 111.955537,134.127308 112.880213,133.668552 L112.840283,133.615455 L113,133.547491 Z M97.8437314,137.88868 L97.3393631,137.716646 C97.5101948,137.48597 97.6573595,137.238326 97.7785838,136.97754 L97.8437314,137.88868 Z M94.9982534,139.107781 L98.062291,140.966166 L98.089611,141.344215 C98.0522165,141.631862 98.0607308,141.923709 98.1148294,142.20863 C96.7656441,140.9959 95.18529,139.524059 95.0003549,139.107781 L94.9982534,139.107781 Z M93.7478402,136.401971 C93.4136962,136.261796 93.1362936,136.136488 92.9471555,136.032418 L93.6574742,136.077019 C93.6995421,136.181741 93.7305369,136.290663 93.7499417,136.401971 L93.7478402,136.401971 Z M85.5518547,139.428485 C85.5518547,139.428485 86.0814415,138.23487 87.2709101,140.224936 C87.4558452,140.535021 87.7962938,141.025634 88.2460222,141.637309 L84.7868961,141.167934 C85.1462102,140.641484 85.4042864,140.051399 85.5476516,139.428485 L85.5518547,139.428485 Z" id="Shape" stroke="none" fill="url(#linearGradient-6)" fill-rule="nonzero"></path>
                            <path d="M93.2589952,134.805972 C93.2589952,134.805972 90.9162018,133.849963 89.068765,133.13394 C87.2213283,132.417916 88.3297904,134.805972 88.3297904,134.805972 C88.3297904,134.805972 91.4115584,135.641988 91.4115584,135.761981 C91.4115584,135.881974 94,136 94,136 L93.2589952,134.805972 Z" id="Shape" stroke="none" fill="#F7C4A7" fill-rule="nonzero"></path>
                            <path d="M93.2589952,134.805972 C93.2589952,134.805972 90.9162018,133.849963 89.068765,133.13394 C87.2213283,132.417916 88.3297904,134.805972 88.3297904,134.805972 C88.3297904,134.805972 91.4115584,135.641988 91.4115584,135.761981 C91.4115584,135.881974 94,136 94,136 L93.2589952,134.805972 Z" id="Shape" stroke="none" fill="#000000" fill-rule="nonzero" opacity="0.05"></path>
                            <path d="M106,123.592325 C106,123.592325 101.087514,121.288679 100.218784,125.767405 C99.6779158,128.493889 98.4449788,131.076024 96.6129623,133.319064 C96.6129623,133.319064 94.0115342,133.831219 93,132.935474 C93,132.935474 95.4562431,135.494144 94.299524,135.751275 C94.299524,135.751275 96.900952,137.4142 98.0576712,136.902045 C99.2143903,136.389889 100.08074,132.935474 100.513914,132.039729 C100.947089,131.143984 102.536983,123.335193 106,123.592325 Z" id="Shape" stroke="none" fill="#575988" fill-rule="nonzero"></path>
                            <path d="M106,123.592325 C106,123.592325 101.087514,121.288679 100.218784,125.767405 C99.6779158,128.493889 98.4449788,131.076024 96.6129623,133.319064 C96.6129623,133.319064 94.0115342,133.831219 93,132.935474 C93,132.935474 95.4562431,135.494144 94.299524,135.751275 C94.299524,135.751275 96.900952,137.4142 98.0576712,136.902045 C99.2143903,136.389889 100.08074,132.935474 100.513914,132.039729 C100.947089,131.143984 102.536983,123.335193 106,123.592325 Z" id="Shape" stroke="none" fill="#000000" fill-rule="nonzero" opacity="0.1"></path>
                            <path d="M101,122.763768 C101,122.763768 103.617301,125.303248 103.74252,127.41919 C103.86774,129.535133 106.733428,125.196928 106.983868,125.090608 C107.234307,124.984288 104.489734,121.38858 104.239294,120.226032 C103.988855,119.063483 101,122.763768 101,122.763768 Z" id="Shape" stroke="none" fill="#F7C4A7" fill-rule="nonzero"></path>
                            <polygon id="Shape" stroke="none" fill="#F7C4A7" fill-rule="nonzero" points="102.139617 124 101 125.287926 101.537208 128 103 126.282176 102.82849 124.564352"></polygon>
                            <polygon id="Shape" stroke="none" fill="#F7C4A7" fill-rule="nonzero" points="68.2252922 146 66 146 66.8703507 148 69 147.454682"></polygon>
                            <path d="M66.5649391,146 C66.5649391,146 63.4256208,147.977359 60.7363295,147.360785 C58.0470381,146.74421 57.3209077,146.968062 57.0078455,147.77118 C56.7186978,148.501644 64.5104684,152.368001 65.751847,152.978685 C65.7916052,153.002536 65.8420068,153.006648 65.8858538,152.989619 C65.9297008,152.97259 65.9610676,152.93672 65.9692513,152.894249 C66.054039,152.570253 66.2583991,151.875134 66.4758034,151.822116 C66.760603,151.753389 68.0628549,149.560032 67.9976336,148.694079 C67.9324123,147.828125 66.5649391,146 66.5649391,146 Z" id="Shape" stroke="none" fill="#000000" fill-rule="nonzero" opacity="0.1"></path>
                            <path d="M66.5649391,146 C66.5649391,146 63.4256208,147.977359 60.7363295,147.360785 C58.0470381,146.74421 57.3209077,146.968062 57.0078455,147.77118 C56.7186978,148.501644 64.5104684,152.368001 65.751847,152.978685 C65.7916052,153.002536 65.8420068,153.006648 65.8858538,152.989619 C65.9297008,152.97259 65.9610676,152.93672 65.9692513,152.894249 C66.054039,152.570253 66.2583991,151.875134 66.4758034,151.822116 C66.760603,151.753389 68.0628549,149.560032 67.9976336,148.694079 C67.9324123,147.828125 66.5649391,146 66.5649391,146 Z" id="Shape" stroke="none" fill="#F3B5B7" fill-rule="nonzero"></path>
                            <path d="M90.9142857,141.123226 L82.436437,140 C82.436437,140 68.6443025,146.494548 67,146.620037 L67.3792941,149.500103 L69.9093109,149.500103 C70.9221513,149.500103 80.7900504,147.377083 82.1821849,145.254063 C82.9875746,145.042254 83.8437942,145.130874 84.5871597,145.502983 C85.8521681,146.12014 98,150 98,150 L90.9142857,141.123226 Z" id="Shape" stroke="none" fill="#575988" fill-rule="nonzero"></path>
                            <path d="M90.9142857,141.123226 L82.436437,140 C82.436437,140 68.6443025,146.494548 67,146.620037 L67.3792941,149.500103 L69.9093109,149.500103 C70.9221513,149.500103 80.7900504,147.377083 82.1821849,145.254063 C82.9875746,145.042254 83.8437942,145.130874 84.5871597,145.502983 C85.8521681,146.12014 98,150 98,150 L90.9142857,141.123226 Z" id="Shape" stroke="none" fill="#000000" fill-rule="nonzero" opacity="0.1"></path>
                            <polygon id="Shape" stroke="none" fill="#F7C4A7" fill-rule="nonzero" points="75.2219512 145 74 146.400329 75.2219512 147 77 145.800659"></polygon>
                            <path d="M100.509086,144.057529 C100.509086,144.057529 95.8017057,139.939514 95.4719304,139.190784 C95.1421552,138.442054 87.4236899,133.363902 86.8999292,133.229571 C86.3761685,133.09524 84.6755628,132.159327 82.9749571,135.367856 C81.2743514,138.576385 75,146.330145 75,146.330145 C75,146.330145 76.9635638,149.137883 77.6166481,149.003552 C78.2697324,148.869221 85.5916052,142.586495 86.1218321,139.510095 C86.1218321,139.510095 86.6455928,138.307723 87.8224378,140.311677 C88.9992828,142.315631 96.5905798,151.943419 98.0303829,151.809088 C98.0303829,151.809088 103.658116,152.745 104.834961,150.472384 C106.011806,148.199768 100.509086,144.057529 100.509086,144.057529 Z" id="Shape" stroke="none" fill="#575988" fill-rule="nonzero"></path>
                            <rect id="Rectangle-path" stroke="none" fill="url(#linearGradient-7)" fill-rule="nonzero" x="82" y="123" width="19" height="15"></rect>
                            <rect id="Rectangle-path" stroke="none" fill="#FFFFFF" fill-rule="nonzero" x="82" y="123" width="18" height="13"></rect>
                            <rect id="Rectangle-path" stroke="none" fill="#FF6347" fill-rule="nonzero" opacity="0.2" x="84" y="124" width="6" height="3"></rect>
                            <rect id="Rectangle-path" stroke="none" fill="#E6E8EC" fill-rule="nonzero" x="89" y="124" width="6" height="1"></rect>
                            <rect id="Rectangle-path" stroke="none" fill="#E6E8EC" fill-rule="nonzero" x="89" y="125" width="4" height="1"></rect>
                            <rect id="Rectangle-path" stroke="none" fill="#E6E8EC" fill-rule="nonzero" x="89" y="127" width="6" height="1"></rect>
                            <rect id="Rectangle-path" stroke="none" fill="#E6E8EC" fill-rule="nonzero" x="84" y="128" width="15" height="1"></rect>
                            <rect id="Rectangle-path" stroke="none" fill="#E6E8EC" fill-rule="nonzero" x="84" y="130" width="15" height="1"></rect>
                            <rect id="Rectangle-path" stroke="none" fill="#E6E8EC" fill-rule="nonzero" x="84" y="131" width="15" height="1"></rect>
                            <rect id="Rectangle-path" stroke="none" fill="#E6E8EC" fill-rule="nonzero" x="84" y="132" width="13" height="1"></rect>
                            <rect id="Rectangle-path" stroke="none" fill="#E6E8EC" fill-rule="nonzero" x="84" y="134" width="15" height="1"></rect>
                            <rect id="Rectangle-path" stroke="none" fill="#E6E8EC" fill-rule="nonzero" x="84" y="134" width="15" height="1"></rect>
                            <path d="M102.846364,124.185849 C102.846364,124.185849 101.189432,124.839257 101.056266,127.570264 C100.9231,130.301272 98,134.933812 98,134.933812 L98.2641487,140.397783 C98.2641487,140.397783 101.444848,143.248125 101.71118,145.030323 C101.977511,146.81252 104.232599,148 104.232599,148 C104.232599,148 106.882818,146.81252 107.288865,145.261167 C107.694911,143.709814 107.943779,139.916531 108.613974,138.490381 C109.28417,137.064232 108.878123,128.157157 108.878123,128.157157 L106.889367,125.068145 L105.828406,124 L103.045021,126.850342 C103.045021,126.850342 101.521255,125.015324 102.846364,124.185849 Z" id="Shape" stroke="none" fill="#FFE4E4" fill-rule="nonzero"></path>
                            <path d="M98.933287,140.081439 C98.933287,140.081439 98.6227601,135.323208 99.5543409,134.267516 L101.419209,127.519795 C101.419209,127.519795 102.093155,124.283066 101.989077,124.017511 C101.884999,123.751955 99.5543409,126.594705 99.5543409,126.594705 L98,133.599274 L98.4146047,141 L98.933287,140.081439 Z" id="Shape" stroke="none" fill="#000000" fill-rule="nonzero" opacity="0.1"></path>
                            <path d="M98.9216551,141.031092 C98.9216551,141.031092 98.6149984,136.012058 99.5349685,134.898503 L101.376594,127.780933 C101.376594,127.780933 102.092688,124.29562 101.989907,124.017805 C101.887127,123.739991 99.5349685,126.805137 99.5349685,126.805137 L98,134.193634 L98.4094373,142 L98.9216551,141.031092 Z" id="Shape" stroke="none" fill="#575988" fill-rule="nonzero"></path>
                            <path d="M100,137.368405 C100,137.368405 93.5296137,135.543206 93.1462465,135.086436 C92.7628793,134.629666 88.6203837,131.663483 87.1976655,133.716127 C85.7749472,135.768771 92.4987819,136.347722 92.4987819,136.347722 L99.3525354,140 L100,137.368405 Z" id="Shape" stroke="none" fill="#FFC0C0" fill-rule="nonzero"></path>
                            <path d="M75.8690522,146.300852 L73.9501209,146 C73.9501209,146 70.8116021,149.500655 69.1783783,149.145947 C67.5451546,148.791239 66.0398595,150.323356 67.7668977,150.817347 C69.3276286,151.261197 76.0630775,151.883329 77.3508936,151.99847 C77.4041805,152.004863 77.4580548,151.991029 77.4988375,151.96048 C77.5396203,151.929931 77.5633889,151.885606 77.5641082,151.838759 C77.5701889,151.403756 77.6669983,150.973339 77.8498158,150.568494 C78.1952234,149.82565 77.8498158,148.243391 77.7538692,147.641687 C77.7005176,147.286985 77.5725851,146.943881 77.3764794,146.629561 L75.8690522,146.300852 Z" id="Shape" stroke="none" fill="#000000" fill-rule="nonzero" opacity="0.1"></path>
                            <path d="M75.8758687,146.300852 L73.9573167,146 C73.9573167,146 70.8236817,149.502512 69.1801222,149.145947 C67.5365627,148.789382 66.0422238,150.323356 67.7689206,150.817347 C69.3293429,151.261197 76.0634604,151.883329 77.351022,151.99847 C77.4042983,152.004863 77.4581619,151.991029 77.4989366,151.96048 C77.5397113,151.929931 77.5634752,151.885606 77.5641944,151.838759 C77.5702739,151.403756 77.6670641,150.973339 77.8498455,150.568494 C78.1951848,149.82565 77.8498455,148.243391 77.7539179,147.641687 C77.7005768,147.286985 77.5726696,146.943881 77.3766027,146.629561 L75.8758687,146.300852 Z" id="Shape" stroke="none" fill="#F3B5B7" fill-rule="nonzero"></path>
                            <circle id="Oval" stroke="none" fill="#000000" fill-rule="nonzero" opacity="0.1" cx="103" cy="120" r="4"></circle>
                            <circle id="Oval" stroke="none" fill="#FFC0C0" fill-rule="nonzero" cx="103" cy="120" r="4"></circle>
                            <path d="M106.341276,124 C106.341276,124 111,125.631384 111,129.022347 C111,132.41331 108.425283,137.809904 108.3021,142.203682 C108.178918,146.59746 101.436187,145.968891 101.436187,145.968891 C101.436187,145.968891 100.454766,131.156173 101.436187,130.025162 C102.417609,128.894152 106.831987,124.502441 106.341276,124 Z" id="Shape" stroke="none" fill="#575988" fill-rule="nonzero"></path>
                            <path d="M107.06519,131.435318 C107.06519,131.435318 105.058556,139.552762 100.327621,138.120779 C100.327621,138.120779 97.8913308,141.394498 99.6193969,142.835107 C99.6193969,142.835107 103.776671,143.751663 106.498611,141.262946 C109.220551,138.774229 111.222464,137.85336 111.65212,134.83412 C112.081775,131.814879 112.360344,127.633231 110.943896,128.025732 C109.527448,128.418234 107.06519,131.435318 107.06519,131.435318 Z" id="Shape" stroke="none" fill="#000000" fill-rule="nonzero" opacity="0.1"></path>
                            <path d="M107.058371,131.425296 C107.058371,131.425296 105.053434,139.549774 100.326498,138.116551 C100.326498,138.116551 97.8922681,141.393107 99.6188732,142.834965 C99.6188732,142.834965 103.772632,143.752314 106.492271,141.26144 C109.21191,138.770567 111.209771,137.853217 111.648499,134.839994 C112.087226,131.826771 112.356124,127.632865 110.940874,128.025707 C109.525624,128.418548 107.058371,131.425296 107.058371,131.425296 Z" id="Shape" stroke="none" fill="#575988" fill-rule="nonzero"></path>
                            <path d="M77.5,151 C77.5,151.017751 77.5,151.035503 77.4716981,151.050296 C77.2669908,151.356808 77.1090522,151.674797 77,152 C77.0660377,151.857988 77.1462264,151.704142 77.240566,151.571006 C77.3614372,151.38749 77.4484797,151.195912 77.5,151 Z" id="Shape" stroke="none" fill="#DDDBE2" fill-rule="nonzero"></path>
                            <path d="M67.811754,151.612198 C67.3070178,151.472365 67.0950286,151.242151 67.0869528,151 C66.8850583,151.341058 67.0102329,151.716221 67.7229204,151.914034 C69.200788,152.321598 75.5806537,152.892869 76.7980774,152.998597 C76.8488815,153.004504 76.9002294,152.991581 76.9389197,152.963149 C76.9776099,152.934718 76.9998682,152.893553 76.9999719,152.850237 C77.0015978,152.771999 76.932533,152.705541 76.8404752,152.696761 C75.4978769,152.573981 69.2694321,152.012941 67.811754,151.612198 Z" id="Shape" stroke="none" fill="#DDDBE2" fill-rule="nonzero"></path>
                            <path d="M57.1698077,146.267062 C57.19992,146.174373 57.238211,146.08495 57.2841646,146 C57.1570322,146.137266 57.0620625,146.304673 57.0069946,146.488579 C56.7492071,147.258711 63.6959014,151.332959 64.8026431,151.978876 C64.8382966,152.002936 64.8827616,152.006681 64.921505,151.988887 C64.9602483,151.971093 64.9882914,151.934046 64.9964683,151.889856 C65.0098221,151.830327 64.9844792,151.768577 64.9344442,151.738727 C63.7055926,151.022422 56.9139585,147.028913 57.1698077,146.267062 Z" id="Shape" stroke="none" fill="#DDDBE2" fill-rule="nonzero"></path>
                            <path d="M66.3369565,151.103571 C66.2210145,151.135714 66.1050725,151.285714 66,151.5 L66.0362319,151.5 C66.1304348,151.475 66.2971014,151.289286 66.5,151 C66.4544198,151.046381 66.3986365,151.081816 66.3369565,151.103571 Z" id="Shape" stroke="none" fill="#DDDBE2" fill-rule="nonzero"></path>
                            <path d="M101.974827,123.522894 C101.62769,124.341252 101.554608,125.259463 101.298823,126.127748 C100.793837,127.831469 99.5736334,129.185202 98,129.787568 C99.2809582,130.334588 100.791311,129.666008 101.781973,128.558945 C102.772635,127.451882 103.351198,125.977969 103.90743,124.545299 C105.344702,125.578558 105.170118,127.953317 105.651238,129.802763 C106.070913,131.430467 107.129858,132.78371 108.554202,133.51251 C109.974685,134.194446 111.606279,134.159393 113,133.416998 C111.682501,131.697795 109.80674,129.340402 110.030045,127.052471 C110.210719,125.198683 108.966301,123.783379 109.053593,121.92525 C109.175396,119.285664 108.241575,117.950677 106.465286,116.257522 C105.431994,115.267677 107.058059,113.869739 105.72635,114.280003 C105.202598,114.440636 104.650426,113.845861 104.136825,114.039054 C103.121803,114.429782 102.007308,114.282174 100.959805,114.54483 C95.5131953,115.908037 102.478279,122.326832 101.974827,123.522894 Z" id="Shape" stroke="none" fill="#000000" fill-rule="nonzero" opacity="0.1"></path>
                            <path d="M101.974827,123.543814 C101.62769,124.360538 101.554608,125.276916 101.298823,126.143467 C100.793837,127.843785 99.5736334,129.194815 98,129.795979 C99.2809582,130.341906 100.791311,129.674662 101.781973,128.569809 C102.772635,127.464957 103.351198,125.993987 103.90743,124.564177 C105.344702,125.595373 105.170118,127.96539 105.651238,129.811144 C106.070913,131.435598 107.129858,132.786139 108.554202,133.513483 C109.974685,134.194057 111.606279,134.159075 113,133.418162 C111.682501,131.702391 109.930572,129.735321 110.157937,127.460624 C110.338611,125.610538 110.068616,123.710625 110.157937,121.856206 C110.27974,119.22189 109.071864,116.685062 107.303695,114.995288 C106.270402,114.00742 104.664637,113.88177 104.142915,114.07891 C103.127893,114.468858 102.013398,114.321545 100.965895,114.583676 C95.5131953,115.946328 102.482339,122.35014 101.974827,123.543814 Z" id="Shape" stroke="none" fill="#494242" fill-rule="nonzero"></path>
                            <path d="M33.7062493,162.33359 C41.0358258,160.074261 45.3623701,160.260965 45.3623701,160.260965 L44.7613448,156.847847 C44.9491124,156.721821 45.1195049,156.571587 45.2681327,156.401016 C45.2681327,156.401016 44.5163276,152.257864 45.2681327,151.221551 C46.0199378,150.185239 48.0889726,140.770319 48.0889726,140.770319 L48.0889726,137.566981 C51.8584691,136.249563 56.2666858,128.621968 56.2666858,128.621968 L61.8141282,142.931052 C61.8141282,142.931052 67.3594764,153.948689 68.1112815,154.324195 C68.7123068,154.624181 69.0117723,157.089094 69.1101981,158.068766 L69.0641264,158.08345 C69.0871623,158.320502 69.0976331,158.467347 69.0976331,158.467347 L69.1416105,158.437978 L69.1416105,158.467347 C69.2346662,158.402367 69.3326985,158.344848 69.4347936,158.295328 C68.3521104,159.54142 66.7312269,161.33294 65.3825849,162.516099 C64.6391564,163.168514 65.9731393,163.671986 66.5972004,163.661497 C66.9522102,163.649925 67.3065226,163.700325 67.6442828,163.81044 C70.8043773,164.903393 76,160.913381 76,160.913381 L74.6995237,157.279994 C75.0387784,157.252722 75.2481949,157.240135 75.2481949,157.240135 C75.2481949,157.240135 71.0179821,142.362548 69.0431848,140.948632 C68.4189655,140.492767 67.8558982,139.958335 67.367853,139.358501 C66.4286461,138.215094 65.9551871,136.758536 66.0422467,135.28038 L66.7354153,123.073291 C67.8495109,122.909662 68.5678094,122.773305 68.5678094,122.773305 C68.5678094,122.773305 68.8274858,119.437806 68.8191092,116.878491 C68.8191092,115.546389 68.7646609,114.377916 68.5678094,113.920596 C68.3353571,113.379364 68.2620614,112.296899 68.257873,111.21024 C68.257873,109.741781 68.3793346,108.365625 68.3793346,108.365625 C68.3793346,108.365625 69.8829448,106.387401 71.9519796,101.86245 C72.8629412,99.8716388 73.0995819,98.2961921 73.0786402,97.1675764 C73.0927317,96.6417004 73.0420902,96.1160884 72.9278604,95.6026187 C72.8095138,95.0896989 72.4903071,94.645965 72.0420287,94.371211 C70.8525431,93.6411771 68.1447881,91.8391682 67.3469114,90.0937998 C66.3333356,87.8785245 64.8695145,87.5638547 64.8108779,87.5512679 L64.7208288,87.1610774 C65.2821896,86.6961162 65.6920314,86.073712 65.8977494,85.3737531 C66.2034974,84.4297437 66.2663224,83.4228004 66.5259988,82.4641065 C66.6516487,82.0025908 66.8254644,81.5557597 66.9448317,81.0942441 C67.0640547,80.6297684 67.1210969,80.1514749 67.1144591,79.6719366 C67.1371243,78.9734174 66.9935604,78.2795195 66.6956261,77.6475611 C66.2097799,76.6469112 65.2422758,75.8602367 64.1407452,75.7301732 C63.5334374,75.658848 62.8612105,75.763738 62.3627993,75.40921 C62.0193563,75.1637676 61.8392581,74.7463057 61.5251334,74.4547117 C60.9282965,73.8883061 59.9733574,73.9176753 59.1964223,74.1819979 C58.1502649,74.5413574 57.2539733,75.2405852 56.649918,76.1686131 C56.2876275,76.7266275 56.0342335,77.3664561 55.569329,77.8468519 C55.1777202,78.2475314 54.6646498,78.5034629 54.2332519,78.8600886 C53.5865467,79.3656182 53.2018695,80.1363075 53.1861695,80.9578871 C53.1861695,80.9578871 53.1861695,80.9788651 53.1861695,80.9893541 C53.1861695,81.0417991 53.1861695,81.0942441 53.1861695,81.146689 C53.2071112,81.9564393 53.7704415,82.7619939 54.5620357,82.9256222 C54.769315,82.9638307 54.9812676,82.9694925 55.1902852,82.9424046 C54.829631,84.2776288 55.0275388,85.7024125 55.7383828,86.8882846 C56.4492267,88.0741567 57.6116577,88.9187709 58.9576875,89.227409 C58.9451225,89.2945385 58.9304634,89.3616681 58.9158042,89.4371888 L58.9597817,89.4371888 C58.8690899,89.7635846 58.7557286,90.0832293 58.620527,90.393785 L58.5597962,90.393785 L58.7126702,90.1210712 L56.5556806,89.9721275 C55.927633,89.9247873 55.2981373,90.042661 54.7295689,90.3140686 C53.9861404,90.67489 53.1736045,91.3629679 53.0730846,92.663603 C52.8846098,95.1012449 48.2774474,98.7723923 48.2774474,98.7723923 C46.6795997,101.314924 36.2443769,101.784831 36.2443769,101.784831 C36.2443769,101.784831 36.2904485,101.843569 36.3113902,101.875036 L36.1019737,101.835178 L35.3124736,101.69043 C35.3124736,101.69043 32.8685834,94.4404383 30.5189306,95.7578558 C28.1692777,97.0752733 34.5606685,104.232962 34.5606685,104.232962 L36.4077218,104.356732 L36.5941024,104.369319 C36.5263078,104.838592 36.4290858,105.303125 36.3030135,105.760159 C36.2778836,105.852462 36.2590361,105.911201 36.2548477,105.925885 C36.2548477,105.925885 41.1133099,105.363675 45.2409086,105.453881 L45.6136699,105.453881 L45.8775346,105.441294 C46.0869511,107.71321 49.3203414,112.330464 49.3203414,112.330464 L51.3160804,112.750024 L51.4668603,112.781491 C50.8237526,114.1138 50.0068683,115.354655 49.0376292,116.471519 L48.3800615,120.144764 L48.4324156,120.132177 L48.3800615,120.427967 C48.4927618,120.400471 48.5970197,120.34573 48.6837154,120.268534 C47.3958041,123.692141 45.259756,129.020549 43.7749933,130.879199 C41.5195779,133.704934 41.8001959,138.221494 41.8001959,138.221494 C41.8001959,138.221494 39.5447805,150.086642 39.6390179,152.25157 C39.6499153,153.296554 39.3676576,154.323604 38.8243879,155.21576 C38.3819604,155.724607 37.9931756,156.277864 37.6642206,156.866727 C35.9721355,159.786863 33.245533,159.593865 33.245533,159.593865 C30.8958802,161.108476 33.7062493,162.33359 33.7062493,162.33359 Z M48.2250933,104.897964 L48.4680164,104.801465 L48.5245588,104.77839 L48.7570111,104.677695 L48.7968003,104.658815 L49.0062167,104.562316 L49.0522884,104.541338 L49.2742698,104.430155 L49.3266239,104.402884 L49.5360404,104.2917 L49.5527937,104.2917 L49.7622102,104.170028 L49.8124702,104.140659 L50.0218866,104.018986 L50.0553933,103.998008 L50.2375856,103.886825 L50.2794689,103.861652 L50.4742262,103.737881 L50.5182037,103.708512 L50.6983018,103.588938 L50.7150551,103.578449 L50.8993416,103.450483 L50.9412249,103.421114 L51.1171348,103.295246 L51.1443589,103.276366 L51.2993271,103.163085 L51.3328337,103.137911 L51.4940844,103.014141 L51.5275911,102.988967 L51.6741826,102.873588 L51.6867476,102.873588 L51.8354333,102.754014 L51.8668457,102.72884 L52.0071548,102.613461 L52.0197198,102.602972 L52.1453697,102.495985 L52.1663113,102.477105 L52.289867,102.370117 L52.3087145,102.353334 L52.4217994,102.250542 L52.530696,102.151946 L52.5453551,102.137261 L52.7547716,101.927481 L53.0605196,101.902308 C53.3201961,102.240053 53.4228101,102.837926 53.433281,103.523906 C53.4039626,105.283959 52.8720448,107.457278 52.8720448,107.457278 C52.8267015,108.535911 52.6394007,109.603827 52.314997,110.633345 C52.0856827,110.620838 51.8606366,110.566079 51.6511468,110.471815 C51.6511468,110.471815 51.6385818,110.538944 51.6197343,110.652225 L51.4396361,110.606074 L50.5244862,110.377414 C50.5244862,110.377414 49.7643044,106.500682 48.2250933,104.897964 Z" id="Shape" stroke="none" fill="url(#linearGradient-8)" fill-rule="nonzero"></path>
                            <path d="M75.1872001,156 L77,160.322957 C77,160.322957 72.0360187,163.582403 68.8108453,162.908163 C68.3250688,162.804823 67.8300787,162.736292 67.3310087,162.703284 C66.662906,162.660445 65.5138564,162.245099 66.2233075,161.714275 C68.5127018,160.000737 71.5637767,156.817655 71.5637767,156.817655 L75.1872001,156 Z" id="Shape" stroke="none" fill="#4F4D59" fill-rule="nonzero"></path>
                            <path d="M45.1588339,154.000454 L46,158.192072 C46,158.192072 41.6959625,158.027033 34.3987402,160 C34.3987402,160 31.5912951,158.930997 33.9311885,157.61631 C33.9311885,157.61631 36.6446963,157.781349 38.3291634,155.232621 C40.0136304,152.683892 41.0426711,153.01397 41.0426711,153.01397 L45.1588339,154.000454 Z" id="Shape" stroke="none" fill="#4F4D59" fill-rule="nonzero"></path>
                            <path d="M66.8874704,120.808556 L66.0847438,135.165741 C65.9987476,136.695928 66.4987331,138.200628 67.4801571,139.365218 C67.9238417,139.899935 68.4293613,140.378436 68.9857894,140.79038 C70.8990237,142.177537 75,156.79653 75,156.79653 C75,156.79653 70.3520883,157.073117 69.0772919,158 C69.0772919,158 68.804864,154.298802 68.0749235,153.929316 C67.344983,153.559829 61.9692103,142.739156 61.9692103,142.739156 L56.5892785,128.673337 C56.5892785,128.673337 52.3052972,136.168633 48.6597539,137.462891 L48.6597539,140.608803 C48.6597539,140.608803 46.655017,149.860743 45.9250765,150.878414 C45.195136,151.896085 45.9250765,155.966769 45.9250765,155.966769 C45.9250765,155.966769 43.8288372,158.650296 39,155.78097 C39,155.78097 40.5493039,154.022215 40.4557218,151.893973 C40.3621397,149.765732 42.5561204,138.111075 42.5561204,138.111075 C42.5561204,138.111075 42.2836924,133.677239 44.4693547,130.894478 C46.655017,128.111718 50.2922419,117.478955 50.2922419,117.478955 L52.8002426,112 L66.8874704,120.808556 Z" id="Shape" stroke="none" fill="#787C9C" fill-rule="nonzero"></path>
                            <g id="Group" opacity="0.1" stroke="none" stroke-width="1" fill="none" fill-rule="evenodd" transform="translate(42.000000, 112.000000)">
                                <path d="M32.0586538,44.6977169 C32.0586538,44.6977169 27.8871154,30.1541553 25.9409615,28.7741553 C25.3426658,28.3398101 24.8018119,27.8324123 24.3311538,27.2639269 C23.3788584,26.1210201 22.9001316,24.6611819 22.9921154,23.1806393 L23.8086538,8.89753425 L10.1369231,0.529315068 L10.3230769,0.132328767 L24.6421154,8.89543379 L23.8255769,23.1785388 C23.7335931,24.6590814 24.21232,26.1189196 25.1646154,27.2618265 C25.6352734,27.8303119 26.1761273,28.3377097 26.7744231,28.7720548 C28.7205769,30.1520548 32.8921154,44.6956164 32.8921154,44.6956164 C32.8921154,44.6956164 28.1642308,44.9707763 26.8675,45.8928767 C26.8675,45.8928767 26.8569231,45.7500457 26.8336538,45.516895 C28.6571154,44.8972603 32.0586538,44.6977169 32.0586538,44.6977169 Z" id="Shape" fill="#000000" fill-rule="nonzero"></path>
                                <path d="M2.48769231,43.8743379 C2.48769231,43.8743379 1.74519231,39.8246575 2.48769231,38.8122374 C3.23019231,37.7998174 5.26942308,28.5956164 5.26942308,28.5956164 L5.26942308,25.4659361 C8.97769231,24.1762557 13.3353846,16.7217352 13.3353846,16.7217352 L13.6590385,17.5514155 C12.4025,19.5300457 9.04961538,24.4430137 6.105,25.4659361 L6.105,28.5956164 C6.105,28.5956164 4.06576923,37.7998174 3.32326923,38.8122374 C2.58076923,39.8246575 3.32326923,43.8743379 3.32326923,43.8743379 C3.32326923,43.8743379 2.28884615,45.1661187 0.00423076923,44.9917808 C1.70711538,44.8468493 2.48769231,43.8743379 2.48769231,43.8743379 Z" id="Shape" fill="#000000" fill-rule="nonzero"></path>
                            </g>
                            <path d="M34.7102659,104.830675 L36.2094758,104.941612 L37,105 L37,102.859114 L35.9552544,102.648918 L35.3127359,102.518518 C35.3127359,102.518518 33.3294604,95.9518365 31.4210585,97.144894 C29.5126565,98.3379514 34.7102659,104.830675 34.7102659,104.830675 Z" id="Shape" stroke="none" fill="#714B4F" fill-rule="nonzero"></path>
                            <path d="M63.5289961,87 C63.5289961,87 64.646572,91.1431195 64.9896874,93.7129503 C65.3328028,96.2827811 57,94.2102759 57,94.2102759 C57,94.2102759 60.178229,90.4812793 58.3724616,88.4919768 L63.5289961,87 Z" id="Shape" stroke="none" fill="#FFC0C0" fill-rule="nonzero"></path>
                            <path d="M54.6847975,106.189568 L54.4885038,108 L57.5176733,107.808742 L60.5468428,105.237624 L63.5760124,96.950495 L65.5344887,94.0012074 L67,92.1907752 L66.4133493,90 C66.4133493,90 66.145676,90.2173388 65.692862,90.5650809 C64.2050446,91.6756822 60.711908,93.9816469 58.1600892,93.3448442 C58.0420161,93.3161577 57.9258156,93.2805952 57.8121139,93.2383482 L54,99.6194156 L54.6847975,106.189568 Z" id="Shape" stroke="none" fill="#E6E6F0" fill-rule="nonzero"></path>
                            <path d="M64.9190809,90 C64.9190809,90 66.3860795,90.2675343 67.3983086,92.4159776 C68.175818,94.068155 70.7975542,95.7713885 71.9690574,96.4718791 C72.4202792,96.7408402 72.7407536,97.176143 72.8576395,97.6788467 C73.094455,98.69997 73.1845706,100.599259 71.8978032,103.335869 C69.8775364,107.624587 68.408442,109.511623 68.408442,109.511623 C68.408442,109.511623 68.0416924,113.80034 68.5928647,115.060406 C69.1440371,116.320473 68.5928647,123.204885 68.5928647,123.204885 C68.5928647,123.204885 58.9525876,124.993893 55.735669,123.204885 C52.5187505,121.415877 52.9798072,114.506958 52.9798072,114.506958 C52.9798072,114.506958 49.949407,120.776654 48.8533494,120.956372 L49.4820632,117.466173 C49.4820632,117.466173 53.0636357,113.706397 53.2543455,108.874442 C53.2543455,108.874442 54.3566903,104.489739 53.4387682,103.325658 C53.4387682,103.325658 37.917922,104.579598 37,103.505376 C37,103.505376 47.1935452,103.058124 48.754851,100.646231 C48.754851,100.646231 53.2543455,97.1560316 53.4387682,94.8299129 C53.4934675,93.9428191 54.0140135,93.146018 54.8156513,92.7223145 C55.4403822,92.3762015 56.157196,92.2204201 56.8736409,92.2750626 L58.9483962,92.4139353 C58.9483962,92.4139353 55.3689194,98.5774352 55.5596292,99.3943338 C55.750339,100.211232 55.3752065,106.732125 55.3752065,106.732125 C55.3752065,106.732125 59.5079514,98.0505356 61.3437955,97.0661728 C63.1796395,96.08181 65.2858305,92.0422465 65.2858305,92.0422465 L64.9190809,90" id="Shape" stroke="none" fill="#000000" fill-rule="nonzero" opacity="0.1"></path>
                            <path d="M54.6847975,106.189568 L54.4885038,108 L57.5176733,107.808742 L60.5468428,105.237624 L63.5760124,96.950495 L65.5344887,94.0012074 L67,92.1907752 L66.4133493,90 C66.4133493,90 66.145676,90.2173388 65.692862,90.5650809 L65.8266987,91.3170732 C65.8266987,91.3170732 63.578243,95.6182082 61.6242279,96.6657812 C59.6702128,97.7133543 55.2714482,106.952427 55.2714482,106.952427 C55.2714482,106.952427 55.6618051,99.9975851 55.4677419,99.1434436 C55.3339053,98.5609756 57.0470144,95.3508814 58.1600892,93.3448442 C58.0420161,93.3161577 57.9258156,93.2805952 57.8121139,93.2383482 L54,99.6194156 L54.6847975,106.189568 Z" id="Shape" stroke="none" fill="#000000" fill-rule="nonzero" opacity="0.1"></path>
                            <path d="M37.2433333,103.950331 L38,104 L38,102.178808 L37,102 C37.3516667,102.463576 37.34,103.268212 37.2433333,103.950331 Z" id="Shape" stroke="none" fill="#000000" fill-rule="nonzero" opacity="0.1"></path>
                            <path d="M64.9190809,89 C64.9190809,89 66.3860795,89.2675343 67.3983086,91.4159776 C68.175818,93.068155 70.7975542,94.7713885 71.9690574,95.4718791 C72.4202792,95.7408402 72.7407536,96.176143 72.8576395,96.6788467 C73.094455,97.69997 73.1845706,99.5992592 71.8978032,102.335869 C69.8775364,106.624587 68.408442,108.511623 68.408442,108.511623 C68.408442,108.511623 68.0416924,112.80034 68.5928647,114.060406 C69.1440371,115.320473 68.5928647,122.204885 68.5928647,122.204885 C68.5928647,122.204885 58.9525876,123.993893 55.735669,122.204885 C52.5187505,120.415877 52.9798072,113.523296 52.9798072,113.523296 C52.9798072,113.523296 49.949407,119.786866 48.8533494,119.964541 L49.4820632,116.474342 C49.4820632,116.474342 53.0636357,112.714566 53.2543455,107.882611 C53.2543455,107.882611 54.3566903,103.497908 53.4387682,102.333827 C53.4387682,102.333827 49.8571957,106.093603 45.8166621,106.009871 C41.7761286,105.926139 37,106.457123 37,106.457123 C37,106.457123 37.917922,103.597978 37,102.519672 C37,102.519672 47.1935452,102.07242 48.754851,99.6605266 C48.754851,99.6605266 53.2543455,96.1703274 53.4387682,93.8442086 C53.4910732,92.9537196 54.0128639,92.153136 54.817747,91.7284413 C55.4424779,91.3823282 56.1592917,91.2265468 56.8757366,91.2811893 L58.9504919,91.4200621 C58.9504919,91.4200621 55.3689194,97.5917309 55.5596292,98.396376 C55.750339,99.2010211 55.3752065,105.734168 55.3752065,105.734168 C55.3752065,105.734168 59.5079514,97.0525778 61.3437955,96.068215 C63.1796395,95.0838522 65.2921177,91.0422465 65.2921177,91.0422465 L64.925368,89" id="Shape" stroke="none" fill="#67647E" fill-rule="nonzero"></path>
                            <path d="M67.3762839,98 C67.3762839,98 65.1249386,105.781073 63.8130805,106.741104 C62.5012224,107.701135 54.5294912,112.599923 52.1839831,111.447009 C52.1839831,111.447009 51.6211468,114.329293 52.4643312,115 C52.4643312,115 61.2086249,114.649304 61.279247,114.616426 C61.279247,114.616426 66.999633,113.847086 67.9369801,110.966993 C68.8743273,108.0869 70,103.185921 70,103.185921 L67.3762839,98 Z" id="Shape" stroke="none" fill="#000000" fill-rule="nonzero" opacity="0.1"></path>
                            <circle id="Oval" stroke="none" fill="#BA7855" fill-rule="nonzero" cx="54.5" cy="107.5" r="1"></circle>
                            <circle id="Oval" stroke="none" fill="#BA7855" fill-rule="nonzero" cx="54.5" cy="110.5" r="1"></circle>
                            <g id="Group" opacity="0.1" stroke="none" stroke-width="1" fill="none" fill-rule="evenodd" transform="translate(37.000000, 89.000000)">
                                <path d="M30.9079769,35.0644311 C30.9079769,35.0644311 31.4552601,27.7911377 30.9079769,26.4675449 C30.3606936,25.1439521 30.7248555,20.6105389 30.7248555,20.6105389 C30.7248555,20.6105389 32.1815029,18.6273054 34.1895954,14.0917365 C35.4672832,11.2031138 35.3757225,9.19832335 35.142659,8.12047904 C35.0260982,7.589483 34.7070925,7.12993942 34.2582659,6.84646707 C33.0950289,6.10706587 30.4917919,4.30922156 29.7218497,2.56526946 C29.1558382,1.28694611 28.4462428,0.638083832 27.9322543,0.316886228 L27.8968786,0.101317365 C27.8968786,0.101317365 29.353526,0.383712575 30.3586127,2.65149701 C31.1306358,4.3954491 33.7338728,6.19329341 34.8950289,6.93269461 C35.3438555,7.21616696 35.6628612,7.67571055 35.779422,8.20670659 C36.0145665,9.2845509 36.1040462,11.2893413 34.8263584,14.1779641 C32.8203468,18.7049102 31.3616185,20.6967665 31.3616185,20.6967665 C31.3616185,20.6967665 30.9974566,25.2237126 31.5447399,26.5537725 C32.0920231,27.8838323 31.5447399,35.1506587 31.5447399,35.1506587 C31.5447399,35.1506587 24.7047399,36.5001198 20.659422,35.7779641 C24.7463584,36.2802395 30.9079769,35.0644311 30.9079769,35.0644311 Z" id="Shape" fill="#000000" fill-rule="nonzero"></path>
                                <path d="M18.6055491,10.0304192 C18.7304046,10.6124551 18.6055491,14.0356886 18.5035838,16.131018 C18.0624277,17.0644311 17.7856647,17.6809581 17.7856647,17.6809581 C17.7856647,17.6809581 18.1498266,10.7827545 17.9687861,9.93556886 C17.7960694,9.12718563 20.9986127,3.19904192 21.3169942,2.60622754 L21.9808092,2.65365269 C21.9808092,2.65365269 18.416185,9.18107784 18.6055491,10.0304192 Z" id="Shape" fill="#000000" fill-rule="nonzero"></path>
                                <path d="M8.29248555,17.965509 C12.3045087,18.0603593 15.8608092,14.0852695 15.8608092,14.0852695 C15.9683583,14.2396606 16.0467314,14.4137414 16.0917919,14.5983234 C15.0513295,15.6136527 12.1380347,18.1293413 8.93132948,18.0474251 C4.91930636,17.9525749 0.176878613,18.519521 0.176878613,18.519521 C0.176878613,18.519521 0.195606936,18.457006 0.224739884,18.3492216 C2.90503138,18.0663274 5.59844712,17.938225 8.29248555,17.965509 Z" id="Shape" fill="#000000" fill-rule="nonzero"></path>
                                <path d="M15.4050867,25.9005988 C15.4050867,25.9005988 15.3676301,26.4912575 15.3884393,27.3772455 C14.4395376,29.3173653 12.7123699,32.662994 11.9403468,32.7966467 L12.0756069,32.0205988 C13.403237,30.2938922 15.4050867,25.9005988 15.4050867,25.9005988 Z" id="Shape" fill="#000000" fill-rule="nonzero"></path>
                            </g>
                            <rect id="Rectangle-path" stroke="none" fill="url(#linearGradient-9)" fill-rule="nonzero" x="31" y="91" width="22" height="18"></rect>
                            <rect id="Rectangle-path" stroke="none" fill="#FFFFFF" fill-rule="nonzero" x="32" y="91" width="21" height="17"></rect>
                            <rect id="Rectangle-path" stroke="none" fill="#FF6347" fill-rule="nonzero" opacity="0.2" x="35" y="92" width="6" height="3"></rect>
                            <rect id="Rectangle-path" stroke="none" fill="#E6E8EC" fill-rule="nonzero" x="43" y="92" width="8" height="1"></rect>
                            <rect id="Rectangle-path" stroke="none" fill="#E6E8EC" fill-rule="nonzero" x="43" y="94" width="6" height="1"></rect>
                            <rect id="Rectangle-path" stroke="none" fill="#E6E8EC" fill-rule="nonzero" x="43" y="95" width="8" height="1"></rect>
                            <rect id="Rectangle-path" stroke="none" fill="#E6E8EC" fill-rule="nonzero" x="35" y="97" width="18" height="1"></rect>
                            <rect id="Rectangle-path" stroke="none" fill="#E6E8EC" fill-rule="nonzero" x="35" y="98" width="18" height="1"></rect>
                            <rect id="Rectangle-path" stroke="none" fill="#E6E8EC" fill-rule="nonzero" x="35" y="99" width="18" height="1"></rect>
                            <rect id="Rectangle-path" stroke="none" fill="#E6E8EC" fill-rule="nonzero" x="35" y="101" width="15" height="1"></rect>
                            <rect id="Rectangle-path" stroke="none" fill="#E6E8EC" fill-rule="nonzero" x="35" y="102" width="18" height="1"></rect>
                            <rect id="Rectangle-path" stroke="none" fill="#E6E8EC" fill-rule="nonzero" x="35" y="105" width="18" height="1"></rect>
                            <path d="M48.9488219,112.320311 L50.6549161,112.707598 L52,113 L51.2779795,110.86992 L50.7758637,110.736306 L49.9933693,110.531044 C49.9933693,110.531044 48.8700227,104.595868 46.6214968,105.021884 C44.372971,105.4479 48.9488219,112.320311 48.9488219,112.320311 Z" id="Shape" stroke="none" fill="#FFC0C0" fill-rule="nonzero"></path>
                            <path d="M52.0077969,112.734816 L53,113 L52.4674005,111.11805 L52.097014,111 C52.01416,111.571927 51.9842192,112.154121 52.0077969,112.734816 Z" id="Shape" stroke="none" fill="#000000" fill-rule="nonzero" opacity="0.1"></path>
                            <path d="M67.3762839,97 C67.3762839,97 65.1249386,104.781073 63.8130805,105.741104 C62.5012224,106.701135 54.5294912,111.599923 52.1839831,110.447009 C52.1839831,110.447009 51.6211468,113.329293 52.4643312,114 C52.4643312,114 61.2086249,113.649304 61.279247,113.616426 C61.279247,113.616426 66.999633,112.847086 67.9369801,109.966993 C68.8743273,107.0869 70,102.185921 70,102.185921 L67.3762839,97 Z" id="Shape" stroke="none" fill="#67647E" fill-rule="nonzero"></path>
                            <path d="M65.5602537,87 C65.5602537,87 65.7484144,87.4898822 66,88.2025679 C64.9433304,89.5507078 62.6802304,90.2530851 60.4778013,89.9164415 C60.6997886,89.2737389 60.6511628,88.6310363 60,88.1211589 L65.5602537,87 Z" id="Shape" stroke="none" fill="#000000" fill-rule="nonzero" opacity="0.1"></path>
                            <circle id="Oval" stroke="none" fill="#FFC0C0" fill-rule="nonzero" cx="60" cy="85" r="5"></circle>
                            <path d="M56.5218922,84.4493203 C56.1512921,84.5492526 55.7631481,84.5720987 55.3828339,84.5163653 C54.5867876,84.3571334 54.0194158,83.5714497 54,82.7815758 C54.0161246,81.98022 54.4027552,81.2284667 55.0527659,80.734608 C55.4842274,80.3847169 56.0019811,80.1353932 56.3967683,79.7456941 C56.864904,79.2826646 57.1194663,78.658308 57.475422,78.1135673 C58.0836092,77.2088253 58.985679,76.5274284 60.038303,76.1776428 C60.8214055,75.9199385 61.7792499,75.8906064 62.3811386,76.4437276 C62.6896335,76.7265738 62.8708474,77.1351293 63.2160165,77.3739771 C63.7165118,77.7196779 64.3939063,77.6170152 65.0044242,77.6861554 C66.12822,77.8539373 67.091881,78.554879 67.5737771,79.5550349 C68.0373715,80.5527167 68.1259286,81.676724 67.8240248,82.731292 C67.7053729,83.1817507 67.5327883,83.6196383 67.4055072,84.0680018 C67.1401584,85.0024416 67.0775965,85.9829748 66.7712588,86.9048436 C66.4649212,87.8267124 65.8328302,88.7276297 64.8771431,89 C64.952754,87.96651 64.7427274,86.9321645 64.2687824,86.0039263 C64.1903256,85.8016948 64.0362646,85.6356137 63.837321,85.5388016 C63.6667777,85.4963181 63.4879533,85.4963181 63.3174099,85.5388016 C62.1205187,85.7111834 60.8992623,85.4710037 59.8657184,84.8599709 C59.5032908,84.6504553 58.9380763,83.9150554 58.549761,83.8417249 C58.0600522,83.7558235 57.0396459,84.3361818 56.5218922,84.4493203 Z" id="Shape" stroke="none" fill="#000000" fill-rule="nonzero" opacity="0.1"></path>
                            <path d="M56.5218922,84.4493203 C56.1512921,84.5492526 55.7631481,84.5720987 55.3828339,84.5163653 C54.5867876,84.3571334 54.0194158,83.5714497 54,82.7815758 C54.0161246,81.98022 54.4027552,81.2284667 55.0527659,80.734608 C55.4842274,80.3847169 56.0019811,80.1353932 56.3967683,79.7456941 C56.864904,79.2826646 57.1194663,78.658308 57.475422,78.1135673 C58.0836092,77.2088253 58.985679,76.5274284 60.038303,76.1776428 C60.8214055,75.9199385 61.7792499,75.8906064 62.3811386,76.4437276 C62.6896335,76.7265738 62.8708474,77.1351293 63.2160165,77.3739771 C63.7165118,77.7196779 64.3939063,77.6170152 65.0044242,77.6861554 C66.12822,77.8539373 67.091881,78.554879 67.5737771,79.5550349 C68.0373715,80.5527167 68.1259286,81.676724 67.8240248,82.731292 C67.7053729,83.1817507 67.5327883,83.6196383 67.4055072,84.0680018 C67.1401584,85.0024416 67.0775965,85.9829748 66.7712588,86.9048436 C66.4649212,87.8267124 65.8328302,88.7276297 64.8771431,89 C64.952754,87.96651 64.7427274,86.9321645 64.2687824,86.0039263 C64.1903256,85.8016948 64.0362646,85.6356137 63.837321,85.5388016 C63.6667777,85.4963181 63.4879533,85.4963181 63.3174099,85.5388016 C62.1205187,85.7111834 60.8992623,85.4710037 59.8657184,84.8599709 C59.5032908,84.6504553 58.9380763,83.9150554 58.549761,83.8417249 C58.0600522,83.7558235 57.0396459,84.338277 56.5218922,84.4493203 Z" id="Shape" stroke="none" fill="#494242" fill-rule="nonzero"></path>
                            <path d="M17.2307564,156.988305 C17.5869607,156.747217 17.8465454,156.421981 17.9751284,156.055673 C18.0723049,155.684557 17.881839,155.240831 17.4542624,155.105293 C16.976154,154.953619 16.4650056,155.227923 16.0782432,155.507067 C15.6914807,155.786211 15.2464123,156.102466 14.739151,156.042765 C15.2694876,155.64365 15.5085524,155.042711 15.3688547,154.459873 C15.346928,154.341112 15.2864585,154.22955 15.193937,154.137163 C14.9276734,153.901585 14.4476215,154.003239 14.1288826,154.188797 C13.118247,154.779356 12.8364351,155.918522 12.8306045,156.944739 C12.729541,156.575236 12.8150563,156.189598 12.8111692,155.815254 C12.8072822,155.440911 12.6828963,155.00848 12.2980773,154.811627 C12.059449,154.705179 11.7914622,154.652338 11.5206653,154.65834 C11.0658793,154.643818 10.5605615,154.682543 10.2495967,154.95846 C9.8608907,155.300532 9.96389779,155.876569 10.3001285,156.249299 C10.6363592,156.622029 11.145564,156.862448 11.6158983,157.123843 C11.9928522,157.309897 12.3143906,157.564158 12.5565668,157.867689 C12.5850505,157.909785 12.6084854,157.954101 12.6265339,158 L15.4699183,158 C16.1092265,157.730367 16.7015644,157.390038 17.2307564,156.988305 Z" id="Shape" stroke="none" fill="#9AA8FF" fill-rule="nonzero"></path>
                        </g>
                    </g>
                </g>
            </g>
        </g>
    </g>
</svg>