<?xml version="1.0" encoding="UTF-8"?>
<svg width="180px" height="180px" viewBox="0 0 180 180" version="1.1" xmlns="http://www.w3.org/2000/svg" xmlns:xlink="http://www.w3.org/1999/xlink">
    <!-- Generator: Sketch 50.2 (55047) - http://www.bohemiancoding.com/sketch -->
    <title>pc</title>
    <desc>Created with Sketch.</desc>
    <defs>
        <circle id="path-1" cx="90" cy="90" r="90"></circle>
        <linearGradient x1="-3.01724138%" y1="50.2564103%" x2="96.9827586%" y2="50.2564103%" id="linearGradient-3">
            <stop stop-color="#808080" stop-opacity="0.25" offset="0%"></stop>
            <stop stop-color="#808080" stop-opacity="0.12" offset="54%"></stop>
            <stop stop-color="#808080" stop-opacity="0.1" offset="100%"></stop>
        </linearGradient>
    </defs>
    <g id="Page-1" stroke="none" stroke-width="1" fill="none" fill-rule="evenodd">
        <g id="Artboard-5-Copy" transform="translate(-330.000000, -195.000000)">
            <g id="Group-2" transform="translate(330.000000, 195.000000)">
                <g id="pc">
                    <mask id="mask-2" fill="white">
                        <use xlink:href="#path-1"></use>
                    </mask>
                    <use id="Oval" fill="#FFBBAE" opacity="0.200892857" xlink:href="#path-1"></use>
                    <g id="undraw_pair_programming_njlp-(1)" mask="url(#mask-2)">
                        <g transform="translate(-33.000000, -1.000000)">
                            <path d="M134.984137,30.9148022 C118.500355,33.7228223 102.039669,32.5190525 86.2048915,30.7681146 C70.3701138,29.0171767 54.5745997,26.7307126 38.083889,27.4199115 C27.475789,27.8623027 15.6620656,29.9811239 8.25510347,36.1396754 C1.1252962,42.0630611 0.0143673655,50.056372 0.000509625413,57.2720057 C-0.0179673614,62.6994475 0.448576555,68.3154877 4.26407433,72.6392798 C6.91552193,75.6382267 10.9966264,77.7873167 14.0707351,80.5557544 C24.7666008,90.1719426 21.5146511,105.313364 14.4957058,118.186949 C11.2021829,124.226753 7.17419975,130.166438 4.93155548,136.348273 C2.6889112,142.530108 2.39096979,149.154335 6.40509517,154.195266 C10.3822666,159.194287 18.075622,162.011621 26.0969438,163.471512 C42.3890269,166.437861 60.5403568,164.596117 78.1027328,162.100099 C116.971384,156.556238 155.438161,147.913311 193.821791,139.291339 C208.023665,136.099137 222.287899,132.892965 235.970108,128.292096 C243.568769,125.730884 251.306007,122.543338 256.213957,117.581572 C262.44994,111.294959 262.606994,102.696271 256.597354,97.5575477 C246.513539,88.9425607 223.689841,90.8541564 215.890243,81.0051307 C211.598962,75.5823457 213.467448,68.217696 216.883381,61.7122166 C224.207196,47.7605944 238.362878,33.9766151 236.529037,20.0669037 C235.263363,10.5205667 225.606828,2.62039079 212.663699,0.562107409 C199.096971,-1.59396772 181.673173,2.49465855 173.862026,12.1015333 C165.831466,21.9994548 149.539383,28.4280978 134.984137,30.9148022 Z" id="Shape" stroke="none" fill="#FD7764" fill-rule="nonzero" opacity="0.1"></path>
                            <rect id="Rectangle-path" stroke="none" fill="#565661" fill-rule="nonzero" x="83" y="83" width="66" height="15"></rect>
                            <rect id="Rectangle-path" stroke="none" fill="#000000" fill-rule="nonzero" opacity="0.1" x="83" y="83" width="66" height="15"></rect>
                            <polygon id="Shape" stroke="none" fill="#BCBEC9" fill-rule="nonzero" points="90.5257065 98 91 138.925173 84.5028941 155 84 98"></polygon>
                            <polygon id="Shape" stroke="none" fill="#565661" fill-rule="nonzero" points="84 87 148 87.361298 148 98 84 98"></polygon>
                            <polygon id="Shape" stroke="none" fill="#BCBEC9" fill-rule="nonzero" points="142 98 149 98.786386 149 155 142 137.805775"></polygon>
                            <rect id="Rectangle-path" stroke="none" fill="#EFEFF0" fill-rule="nonzero" x="149" y="84" width="31" height="66"></rect>
                            <rect id="Rectangle-path" stroke="none" fill="#565661" fill-rule="nonzero" x="151" y="87" width="26" height="50"></rect>
                            <rect id="Rectangle-path" stroke="none" fill="#000000" fill-rule="nonzero" opacity="0.1" x="151" y="87" width="26" height="50"></rect>
                            <rect id="Rectangle-path" stroke="none" fill="#565661" fill-rule="nonzero" x="151" y="88" width="26" height="10"></rect>
                            <rect id="Rectangle-path" stroke="none" fill="#565661" fill-rule="nonzero" x="151" y="98" width="26" height="24"></rect>
                            <rect id="Rectangle-path" stroke="none" fill="#565661" fill-rule="nonzero" x="151" y="124" width="26" height="24"></rect>
                            <rect id="Rectangle-path" stroke="none" fill="#000000" fill-rule="nonzero" opacity="0.1" x="151" y="124" width="26" height="24"></rect>
                            <circle id="Oval" stroke="none" fill="#565661" fill-rule="nonzero" cx="152.5" cy="150.5" r="1.5"></circle>
                            <circle id="Oval" stroke="none" fill="#565661" fill-rule="nonzero" cx="176.5" cy="150.5" r="1.5"></circle>
                            <polygon id="Shape" stroke="none" fill="#EFEFF0" fill-rule="nonzero" points="81.3273569 154 83 154 82.5401966 84 80 84"></polygon>
                            <polygon id="Shape" stroke="none" fill="#EFEFF0" fill-rule="nonzero" points="147 84 147 154 149 154 149 84.5594885"></polygon>
                            <polygon id="Shape" stroke="none" fill="#EFEFF0" fill-rule="nonzero" points="84 97 84 99 148 99 148 97.5464481"></polygon>
                            <polygon id="Shape" stroke="none" fill="#FFFFFF" fill-rule="nonzero" points="88.1786112 79 168.349424 79 180 83.4303123 180 86 80 85.1150038 80 82.5"></polygon>
                            <polygon id="Shape" stroke="none" fill="#BCBEC9" fill-rule="nonzero" points="80 82 180 82.531607 180 84 80 83.4942879"></polygon>
                            <path d="M89.9482759,110 L89.0862069,109.846154 C89.0862069,109.8 89.0862069,109.758974 89.0862069,109.717949 C89.0603448,109.476923 89.0301724,109.241026 89,109 C89.3534483,109.333333 89.6896552,109.666667 90,110 L89.9482759,110 Z" id="Shape" stroke="none" fill="url(#linearGradient-3)" fill-rule="nonzero"></path>
                            <path d="M80.0798558,145.376571 C80.3609745,145.314499 80.6464181,145.262772 80.9318617,145.225529 C82.8922751,144.958411 84.8915883,145.240112 86.688308,146.036605 C86.5066621,147.315292 86.3271786,148.637429 86.712095,149.872665 C86.980239,150.741675 87.5186895,151.527923 87.6332994,152.434176 C88.2223003,152.531081 88.7036035,152.93794 88.8767091,153.485265 C88.9596638,153.722683 89.0013046,153.971524 88.9999689,154.221855 C88.9975664,154.531573 88.9569187,154.839934 88.8788716,155.140523 C88.8242068,155.639827 88.3640365,156.006743 87.8408948,155.968152 C86.1671572,156.15023 84.5258564,155.519163 82.9688912,154.90051 L79.9414589,153.69631 C79.5868168,153.555613 79.2300123,153.412847 78.8905074,153.239045 C78.2465521,152.906138 77.6748301,152.45882 77.2059575,151.921046 C77.1068211,151.825055 77.0372394,151.704787 77.0048495,151.573442 C76.9486258,151.209286 77.3940908,150.992033 77.677372,150.745813 C77.7603409,150.670778 77.833005,150.585956 77.8936172,150.493387 C78.2287972,150.009224 78.2612339,149.340913 78.4623419,148.76985 C78.9380813,147.414607 80.4085484,146.541459 80.9275368,145.219322 C80.9556487,145.146904 80.9815981,145.074487 81.0032226,145" id="Shape" stroke="none" fill="#A26565" fill-rule="nonzero"></path>
                            <path d="M89,153.739624 C88.9975975,154.133337 88.9569498,154.525325 88.8789024,154.907434 C88.8242375,155.542149 88.364066,156.008572 87.8409229,155.959514 C86.167181,156.190972 84.5258759,155.388761 82.9689067,154.60233 L79.9414665,153.071553 C79.5868235,152.892699 79.2300181,152.711215 78.8905123,152.490278 C78.2465553,152.067086 77.6748318,151.498457 77.2059581,150.814839 C77.1068214,150.692815 77.0372395,150.539931 77.0048495,150.372965 C76.9486257,149.91005 77.3940918,149.633879 77.6773738,149.320885 C77.7603429,149.2255 77.8330071,149.117674 77.8936195,149 C78.728328,149.218307 79.764145,149.857446 80.4020699,150.104685 C81.0410413,150.316343 81.6545873,150.628463 82.2271838,151.033146 C83.0229681,151.653874 83.5960193,152.611267 84.270706,153.400328 C84.9453926,154.189388 85.8168629,154.907434 86.7575318,154.810116 C87.2548873,154.718933 87.7342508,154.517451 88.1717789,154.21569 L89,153.739624 Z" id="Shape" stroke="none" fill="#000000" fill-rule="nonzero" opacity="0.1"></path>
                            <path d="M84.7727895,121.253307 C84.885935,121.680627 84.7419478,122.139072 84.4116416,122.403175 C84.1333452,122.589453 83.7743217,122.564156 83.4981497,122.766533 C83.1561214,123.026403 83.1072602,123.541544 83.047777,123.987693 C82.835337,125.521617 82.1321608,126.912958 81.5309557,128.322696 C80.9297506,129.732434 80.4220191,131.270958 80.6429566,132.802582 C80.793789,133.842063 81.2654057,134.950536 80.8235306,135.886528 C80.7151862,136.116502 80.5537318,136.321179 80.4305167,136.544253 C79.8250628,137.638927 80.1692155,139.025668 80.1458471,140.299722 C80.1546826,140.441186 80.1259335,140.582432 80.0629955,140.706776 C79.9701218,140.824288 79.8558563,140.9198 79.7273404,140.987343 C79.290417,141.335082 79.0237355,141.879449 79.0029201,142.466074 C78.9850189,143.045171 79.0495049,143.623804 79.1941161,144.181677 C79.2175162,144.406853 79.3094422,144.617206 79.4554172,144.779608 C79.6245455,144.900629 79.8242568,144.96171 80.0268807,144.954388 C81.3615388,145.071462 82.6707297,145.416072 83.9060345,145.975471 C84.7111819,146.33883 85.492961,146.794177 86.349094,146.968957 C86.5164096,147.025206 86.6977367,147.004413 86.8504523,146.911464 C86.958104,146.806287 87.0324316,146.667088 87.0628923,146.51361 C87.3921743,145.340744 87.725705,144.131083 87.6131118,142.912223 C87.5642506,142.387883 87.4346622,141.875042 87.4006719,141.350702 C87.2519639,139.280939 88.5457233,137.413553 88.9557324,135.371387 C89.1405552,134.451493 89.1405552,133.499402 89.2722679,132.570309 C89.6291671,130.024501 90.9250508,127.740863 91.4242848,125.222651 C91.4937702,124.753217 91.6018355,124.291436 91.7471935,123.84281 C92.1189634,122.867721 92.9793453,122.076612 92.9984649,121.021033 C93.0102711,120.788823 92.9537431,120.558542 92.8370105,120.363309 C92.6367346,120.12534 92.3706592,119.963975 92.0785998,119.903361 C90.9244516,119.559645 89.7496727,119.302992 88.5627185,119.13525 C88.0187131,119.019546 87.4634905,118.977828 86.9099355,119.011064 C86.1910869,119.10256 85.5001561,119.366545 84.8875071,119.783775 C84.0674888,120.331112 84.5943399,120.462197 84.7727895,121.253307 Z" id="Shape" stroke="none" fill="#454B69" fill-rule="nonzero"></path>
                            <path d="M84.7727895,121.253307 C84.885935,121.680627 84.7419478,122.139072 84.4116416,122.403175 C84.1333452,122.589453 83.7743217,122.564156 83.4981497,122.766533 C83.1561214,123.026403 83.1072602,123.541544 83.047777,123.987693 C82.835337,125.521617 82.1321608,126.912958 81.5309557,128.322696 C80.9297506,129.732434 80.4220191,131.270958 80.6429566,132.802582 C80.793789,133.842063 81.2654057,134.950536 80.8235306,135.886528 C80.7151862,136.116502 80.5537318,136.321179 80.4305167,136.544253 C79.8250628,137.638927 80.1692155,139.025668 80.1458471,140.299722 C80.1546826,140.441186 80.1259335,140.582432 80.0629955,140.706776 C79.9701218,140.824288 79.8558563,140.9198 79.7273404,140.987343 C79.290417,141.335082 79.0237355,141.879449 79.0029201,142.466074 C78.9850189,143.045171 79.0495049,143.623804 79.1941161,144.181677 C79.2175162,144.406853 79.3094422,144.617206 79.4554172,144.779608 C79.6245455,144.900629 79.8242568,144.96171 80.0268807,144.954388 C81.3615388,145.071462 82.6707297,145.416072 83.9060345,145.975471 C84.7111819,146.33883 85.492961,146.794177 86.349094,146.968957 C86.5164096,147.025206 86.6977367,147.004413 86.8504523,146.911464 C86.958104,146.806287 87.0324316,146.667088 87.0628923,146.51361 C87.3921743,145.340744 87.725705,144.131083 87.6131118,142.912223 C87.5642506,142.387883 87.4346622,141.875042 87.4006719,141.350702 C87.2519639,139.280939 88.5457233,137.413553 88.9557324,135.371387 C89.1405552,134.451493 89.1405552,133.499402 89.2722679,132.570309 C89.6291671,130.024501 90.9250508,127.740863 91.4242848,125.222651 C91.4937702,124.753217 91.6018355,124.291436 91.7471935,123.84281 C92.1189634,122.867721 92.9793453,122.076612 92.9984649,121.021033 C93.0102711,120.788823 92.9537431,120.558542 92.8370105,120.363309 C92.6367346,120.12534 92.3706592,119.963975 92.0785998,119.903361 C90.9244516,119.559645 89.7496727,119.302992 88.5627185,119.13525 C88.0187131,119.019546 87.4634905,118.977828 86.9099355,119.011064 C86.1910869,119.10256 85.5001561,119.366545 84.8875071,119.783775 C84.0674888,120.331112 84.5943399,120.462197 84.7727895,121.253307 Z" id="Shape" stroke="none" fill="#000000" fill-rule="nonzero" opacity="0.05"></path>
                            <polygon id="Shape" stroke="none" fill="#565661" fill-rule="nonzero" points="81 158 79.2351724 158 78.0806897 131.126182 78 129.597769 79.5 129 79.6013793 130.624525"></polygon>
                            <polygon id="Shape" stroke="none" fill="#000000" fill-rule="nonzero" opacity="0.1" points="80 130.528115 78.1007752 131 78 129.562293 79.873385 129"></polygon>
                            <polygon id="Shape" stroke="none" fill="#565661" fill-rule="nonzero" points="104 162.334352 100.881775 162.728035 86.5162187 128.660599 82.6422614 128.36418 75.8384575 130.439118 74.5153725 171 71.3971471 171 72.6249345 128.957019 65.1584801 129.156176 51.8345489 163.814136 49 163.814136 63.0131765 123.308832 63.5539348 121.747997 84.4374018 121 89.643309 124.049882 89.7097957 124.225881"></polygon>
                            <path d="M91,124.287223 C86.4611489,125.726711 81.7497094,127.298348 81.7497094,127.298348 C81.7497094,127.298348 77.4529304,128.877065 75.6329072,127.298348 C75.403405,127.109845 75.146934,126.960896 74.8730699,126.857063 C75.1092427,127.034675 75.3642349,127.182765 75.6329072,127.298348 L64,123.350376 L64.5446621,121.76222 L85.6676905,121 L90.9327578,124.107877 L91,124.287223 Z" id="Shape" stroke="none" fill="#000000" fill-rule="nonzero" opacity="0.1"></path>
                            <path d="M68.002658,116.806738 L76.9727611,115 C76.9727611,115 98.4056267,118.613476 100,120.058019 C100,120.058019 82.8546426,123.218221 80.9610321,124.294215 C79.0674216,125.370209 67.801608,126.560581 68.002658,116.806738 Z" id="Shape" stroke="none" fill="#FFFFFF" fill-rule="nonzero"></path>
                            <path d="M66.520676,95.6541301 C65.78788,97.8863267 63.787347,99.8978855 61.3520218,99.9941211 C61.1748216,100.014061 60.9954491,99.9830192 60.8366219,99.9049271 C60.5312903,99.7218448 60.5239623,99.2923054 60.6485376,98.9660432 C60.773113,98.639781 60.9905091,98.3463798 61.0247062,98.0036872 C61.0319997,97.9337555 61.0270458,97.8631437 61.0100503,97.7947855 C60.9465413,97.5154675 60.709604,97.2666633 60.4311415,97.3253435 C60.8240068,97.0232389 60.9138645,96.4838262 60.638767,96.0789751 C60.52822,95.9590388 60.4285239,95.8302576 60.3407633,95.6940327 C60.1380231,95.295007 60.4531254,94.8466899 60.5850287,94.4194978 C60.8561632,93.4806138 60.167335,92.5417299 60.1111539,91.5629434 C60.0623009,90.6874341 60.5239623,89.8635635 60.638767,88.9950958 C60.821966,87.58677 60.0940554,86.2371243 60.0085625,84.8311456 C59.9499388,83.8500119 60.2015321,82.878267 60.4824372,81.9323415 C60.7267025,81.0873459 61.0027224,80.2329616 61.0198209,79.3504107 C61.0198209,78.7096224 60.9050162,78.0758757 60.8732617,77.4374347 C60.8225839,76.8537927 60.9329567,76.2676285 61.1932493,75.7380547 C61.3623645,75.4266689 61.6503718,75.1902925 61.9968822,75.0784888 C62.7980725,74.8202957 63.3232429,75.2216686 63.4404903,75.9516508 C63.6359025,77.1933248 63.5235405,78.4608181 63.7800191,79.7071866 C64.0171562,80.8727443 64.3764279,82.0122514 64.8523439,83.1082936 C65.2846935,84.0988161 65.8098639,85.0564778 66.1420648,86.0822085 C66.3921646,86.9276699 66.5710557,87.7911003 66.6770058,88.6641393 C67.0043213,91.0090019 67.2607999,93.4219336 66.520676,95.6541301 Z" id="Shape" stroke="none" fill="#FD7764" fill-rule="nonzero"></path>
                            <path d="M116.523837,151.407484 C115.972019,152.2661 115.114427,152.823881 114.166625,152.940623 C113.230641,153.069178 112.257995,152.809688 111.350048,153.092985 C111.064467,153.144881 110.821493,153.351404 110.703055,153.642915 C110.680581,153.836458 110.666905,154.031122 110.662079,154.226175 C110.556403,154.861808 109.799421,155.004648 109.210657,154.999886 L106.782276,154.983222 C106.277622,154.983222 105.719051,154.952273 105.356735,154.566608 C105.000422,154.13098 104.991203,153.471503 105.335168,153.023946 C105.410498,152.925425 105.502881,152.84449 105.606905,152.785881 C105.297678,152.672927 105.07245,152.377343 105.024612,152.021692 C104.980455,151.671671 104.995814,151.31563 105.069901,150.971825 C105.069901,149.976713 105.285566,148.310258 105.919619,147.531785 C106.698167,146.56286 108.048226,145.310638 109.223597,145.051147 C110.028438,144.88079 110.858813,145.141295 111.462193,145.753439 C112.018608,146.324795 112.424057,147.21992 113.187509,147.319907 C113.603741,147.377043 114.004877,147.160403 114.416796,147.081842 C115.376064,146.945538 116.309369,147.489729 116.748128,148.441193 C116.852636,148.676598 116.925298,148.927651 116.963792,149.186337 C117.077745,149.961521 116.92047,150.755536 116.523837,151.407484 Z" id="Shape" stroke="none" fill="#A26565" fill-rule="nonzero"></path>
                            <path d="M116.529158,150.672623 C115.97307,151.706872 115.10884,152.378749 114.153703,152.519371 C113.210476,152.674222 112.230302,152.361652 111.315328,152.702898 C111.027537,152.76541 110.782682,153.014178 110.663328,153.365319 C110.64068,153.598451 110.626898,153.832934 110.622034,154.067886 C110.515541,154.833541 109.7527,155.005598 109.15938,154.999863 L106.712205,154.97979 C106.203645,154.97979 105.640751,154.942511 105.275631,154.477956 C104.916561,153.953219 104.90727,153.158844 105.253898,152.619737 C106.666565,152.542312 108.055326,152.619737 109.463647,152.235476 C110.035234,152.083492 110.598128,151.882759 111.176235,151.776657 C112.428075,151.541512 113.760329,151.742245 114.910023,151.042546 C115.868464,150.469022 116.555238,149.3019 116.961651,148 C117.07909,148.930992 116.92453,149.886105 116.529158,150.672623 Z" id="Shape" stroke="none" fill="#000000" fill-rule="nonzero" opacity="0.1"></path>
                            <path d="M111.28457,146.673598 C110.372512,147.382516 109.303125,147.935929 108.153933,147.995386 C107.00474,148.054844 105.784863,147.53802 105.221668,146.536388 C104.398536,145.065956 105.128182,143.02153 104.120358,141.6723 C103.805699,141.249236 103.35195,140.949661 103.019049,140.540318 C102.686148,140.130976 102.494616,139.515818 102.791035,139.08132 C102.433052,139.21853 102.054548,138.870932 101.949662,138.500465 C101.844775,138.129999 101.910899,137.73209 101.847055,137.35705 C101.680605,136.362279 100.706983,135.724253 100.239554,134.841536 C99.7721244,133.95882 99.8359684,132.813117 99.7835251,131.768036 C99.666972,129.221809 98.7219235,126.783984 97.0929555,124.827505 C96.782856,124.457038 96.386111,124.079711 95.9027205,124.098006 C95.9870858,123.261026 95.4307308,122.460635 94.7102054,122.039858 C93.9896799,121.619081 93.1323459,121.477298 92.2978133,121.394972 C83.8772427,120.562565 75.1032497,123.702384 67.0634631,121.061094 C64.8266421,120.327022 62.6696262,119.098994 61.30154,117.173482 C60.2249395,115.693026 59.7899953,113.839298 60.0953439,112.032687 L60.0953439,112.000671 C60.4122839,110.377021 61.2673378,109.976826 62.683307,109.235893 C64.3179434,108.36916 66.0264733,107.650529 67.7885488,107.088559 C71.2087643,106.016035 74.8911964,105.629561 78.4208588,106.416231 C80.0694027,106.786697 81.6586629,107.399568 83.3094869,107.7586 C83.9593278,107.900384 84.6137291,108.001004 85.2726906,108.085617 C86.2964751,108.21368 87.3248199,108.298292 88.3554449,108.417207 C91.6508679,108.797779 94.8964,109.529897 98.036935,110.601131 C99.2066487,110.999039 100.376362,111.454119 101.381906,112.17447 C102.988552,113.344729 104.059709,115.112708 104.355213,117.082009 C104.450979,117.754337 104.453259,118.454107 104.599189,119.105854 C104.737472,119.653611 104.920502,120.189015 105.146423,120.706636 C107.094706,125.537857 108.686724,130.506009 109.909643,135.571035 C109.978992,135.947276 110.107523,136.310072 110.290427,136.645846 C110.582286,137.11922 111.083917,137.437089 111.378056,137.910463 C112.062099,139.026436 111.403137,140.583768 112.009656,141.745478 C112.219429,142.14796 112.568291,142.46583 112.778064,142.868312 C113.462107,144.187813 112.452003,145.765727 111.28457,146.673598 Z" id="Shape" stroke="none" fill="#454B69" fill-rule="nonzero"></path>
                            <path d="M99.0110157,120.607937 C99.2954617,120.410692 99.5408716,120.173721 99.7373825,119.906547 C99.9345555,119.638033 100.012844,119.315595 99.9574937,119 C100.115713,119.809539 99.8269721,120.636903 99.1791006,121.23042 C98.6768469,121.681063 97.7343709,122.122939 97,121.968633 C97.1040526,121.453112 98.5447802,120.955125 99.0110157,120.607937 Z" id="Shape" stroke="none" fill="#000000" fill-rule="nonzero" opacity="0.1"></path>
                            <path d="M85.9762151,109.493359 C85.8325455,110.073144 85.4415192,110.531614 84.9361358,110.712829 C84.4366361,110.886349 83.9136534,110.955806 83.3924145,110.917849 L82.9239103,110.917849 C76.7771352,110.763418 70.5647696,109.213787 64.5608883,110.691528 C63.8372989,110.861068 63.1274003,111.098862 62.4385643,111.402442 C61.5609497,111.795606 60.7392301,112.333933 60,113 L60,112.962724 C60.3256104,111.07228 61.2040558,110.606325 62.6587613,109.743644 C64.3365907,108.743149 66.0894727,107.914471 67.8966382,107.267428 C71.4104197,106.01867 75.193591,105.568691 78.8198135,106.484625 C80.5134562,106.915965 82.1461933,107.629541 83.8421785,108.047569 C84.509797,108.21265 85.1821005,108.329804 85.859089,108.428321 C85.990393,108.762211 86.0311705,109.133005 85.9762151,109.493359 Z" id="Shape" stroke="none" fill="#000000" fill-rule="nonzero" opacity="0.1"></path>
                            <path d="M84.980593,109.729022 C84.8362619,110.255438 84.4402268,110.671985 83.9279038,110.836234 C83.4224504,110.993836 82.8929109,111.05597 82.3654663,111.019563 L81.891282,111.019563 C75.6699833,110.879654 69.3822988,109.475739 63.3056264,110.814524 C62.5736012,110.968425 61.8551845,111.183025 61.1575713,111.456176 C60.2273764,111.833581 59.3597542,112.354274 58.5851212,113 C58.4033505,112.491825 58.2223702,111.982845 58.0421801,111.473061 C57.8240553,110.86518 58.5163645,110.730096 58.6491361,110.184933 C58.7368602,109.815862 58.5874921,109.396135 58.5116226,109.002942 C58.4921596,108.906693 58.4794824,108.809151 58.4736879,108.711063 C58.4310113,107.84025 58.7368602,107.338507 59.438653,106.868123 C61.5203223,105.469032 64.0595795,104.508966 66.4352431,103.787711 C67.698226,103.381475 69.0028703,103.124095 70.3235548,103.020623 C72.1918411,102.909661 74.0577565,103.261846 75.8762535,103.708108 C78.1120327,104.270156 80.3241027,105.013122 82.3061933,106.202349 C83.2782712,106.778871 84.2266399,107.502538 84.7506136,108.530146 C84.9597196,108.891274 85.0408872,109.314399 84.980593,109.729022 Z" id="Shape" stroke="none" fill="#A26565" fill-rule="nonzero"></path>
                            <path d="M66.478758,95.6512721 C65.680559,97.8849366 63.5014757,99.8978183 60.8487944,99.9941172 C60.6557789,100.01407 60.4603972,99.983008 60.2873944,99.9048646 C59.9548115,99.7216618 59.9468295,99.2918399 60.0825234,98.9653632 C60.2182172,98.6388865 60.4550162,98.3452923 60.4922655,98.0023743 C60.50021,97.9323966 60.4948139,97.8617384 60.4763015,97.7933352 C61.8837924,96.0411651 63.2487127,94.270205 63.7888274,92.1962557 C63.8981633,91.8391479 63.9315423,91.467239 63.8872719,91.0993878 C63.815434,90.6766122 63.5733136,90.2937654 63.4402805,89.8850823 C63.2061421,89.1616662 63.3152293,88.3959726 63.3817459,87.6467202 C63.6587949,84.3474987 63.0346797,81.0377706 61.5618522,77.9956922 C61.2026626,77.2628811 60.7929205,76.520675 60.6678693,75.7385401 C60.8520782,75.4269495 61.1657906,75.1904176 61.5432275,75.0785404 C62.4159251,74.8201775 62.9879677,75.2218144 63.1156795,75.9522767 C63.3285326,77.1947673 63.2061421,78.4630941 63.4855117,79.7102822 C63.7438136,80.8766065 64.1351508,82.016863 64.6535429,83.113626 C65.1244803,84.1048 65.6965229,85.0630914 66.0583731,86.0894967 C66.3307948,86.9355142 66.5256521,87.7995123 66.6410584,88.6731255 C67.0055693,91.0030889 67.2849389,93.4176075 66.478758,95.6512721 Z" id="Shape" stroke="none" fill="#000000" fill-rule="nonzero" opacity="0.1"></path>
                            <path d="M85.9809758,109.705713 C85.8394913,110.229554 85.4512671,110.644064 84.9490484,110.807509 C84.453564,110.964341 83.9344684,111.026171 83.4174265,110.989942 L82.9525944,110.989942 C80.9673492,109.628136 78.5806641,109.033135 76.2125283,109.309643 C75.4548519,109.403259 74.6971755,109.585692 73.9394991,109.513679 C72.4078772,109.369653 71.1667753,108.231851 69.802493,107.504521 C66.6266529,105.884926 62.8168193,106.418691 60.1734951,108.853561 L60.0410179,108.973583 C60.0219388,108.877804 60.0095116,108.78074 60.0038314,108.683131 C59.9619965,107.816577 60.2618132,107.317288 60.9497648,106.849204 C62.9903779,105.456956 65.479554,104.501586 67.8083631,103.783858 C69.0464366,103.37961 70.3253497,103.123488 71.6199867,103.020522 C73.4514253,102.910103 75.2805398,103.260565 77.0631711,103.704644 C79.2548546,104.263944 81.4232966,105.003276 83.366295,106.186686 C84.3122284,106.76999 85.2418927,107.490119 85.7555322,108.512701 C85.960514,108.872063 86.0400808,109.293118 85.9809758,109.705713 Z" id="Shape" stroke="none" fill="#000000" fill-rule="nonzero" opacity="0.1"></path>
                            <path d="M88.5351179,84.7331721 L88.5023162,84.8176767 C87.9774894,86.1814879 87.0121829,87.3340375 86.3936369,88.6626385 C85.6134256,90.3456895 85.4213015,92.2329601 85.2479212,94.0826731 C85.0979707,95.6671354 84.9503631,97.260987 85.069855,98.850144 C85.369756,102.765526 87.2792822,106.479036 87.7900512,110.319303 C87.9159105,111.206218 87.9481091,112.103954 87.8861133,112.997632 C87.8439397,113.563343 87.7408487,114.171307 87.3659724,114.589136 C86.9910961,115.006964 86.2624302,115.171279 85.8594382,114.769882 C86.0398474,114.424821 86.2225996,114.082108 86.4053518,113.737047 C85.3346114,112.903737 83.7226432,113.502312 82.4714935,112.9812 C81.9208939,112.746465 81.4804142,112.323942 81.0188478,111.946018 C78.8907319,110.212493 76.1548096,109.411933 73.4299453,109.725424 C72.6661348,109.819318 71.9023244,109.997716 71.1385139,109.927296 C69.594492,109.784107 68.3433423,108.67381 66.9680148,107.962563 C63.7667107,106.37948 59.9268598,106.900402 57.2610612,109.279427 C56.9330445,109.584582 56.4925648,109.94138 56.0895727,109.748897 C55.9338127,109.653362 55.8079774,109.515905 55.7264113,109.352195 C54.1917614,106.725508 55.3210763,103.33828 56.9611602,100.779667 C58.6012441,98.2210538 60.7731837,95.8619655 61.4479611,92.8972606 C61.5453873,92.5405656 61.574798,92.1686626 61.5346512,91.8010474 C61.4713909,91.3785242 61.25818,90.9959059 61.1410311,90.5874667 C60.9348491,89.8644824 61.0309112,89.0992459 61.0894856,88.3504407 C61.3353096,85.0527873 60.7873165,81.7441996 59.4915753,78.702826 C59.116699,77.8272639 58.6715334,76.9399651 58.6715334,75.9892877 C58.6715334,74.4916774 59.7422738,73.2499285 60.6279191,72.0457372 C61.6471141,70.6607998 62.5023007,69.1279793 63.793281,67.9895138 C65.016315,66.9073847 66.7876056,66.2454316 68.3011687,66.7947119 C70.8730251,66.1691731 73.5201883,65.9107588 76.1641995,66.0271279 C77.0779605,66.0693802 78.0221802,66.1656217 78.8234783,66.6092711 C79.6810079,67.0787414 80.2972109,67.9143985 81.1406826,68.4143844 C81.7568855,68.7829186 82.4668075,68.9566226 83.136899,69.2148313 C84.9872171,69.9388408 86.5146491,71.307428 87.4386047,73.0691824 C88.3757955,74.8883799 88.6100932,76.97987 88.8162751,79.0173711 C89.0130852,80.9351573 89.2005234,82.9280588 88.5351179,84.7331721 Z" id="Shape" stroke="none" fill="#9AA8FF" fill-rule="nonzero"></path>
                            <path d="M85.3771209,96.7251529 C85.6927972,100.5742 87.7027676,104.224795 88.2404038,108 C87.1651313,107.148502 85.668135,106.292389 85.468371,105.302436 C85.2464111,104.231718 84.5361394,102.828708 84.4177608,101.746452 C84.2993821,100.664196 85.110769,99.3419512 84.2599226,98.5989097 C83.8455974,98.2366193 84.9479983,98.3381529 84.543538,97.9666322 C83.6335024,97.1382101 83.4090762,95.8621171 83.3523531,94.6783274 C83.2561705,92.5830427 83.539786,90.4646821 83.127927,88.4040112 C82.8813049,87.1325333 82.3658646,85.9210526 81.9540056,84.6864961 C81.4755587,83.2488723 81.1302877,81.7766348 80.7850167,80.3020897 C80.4451963,78.9911014 80.1980391,77.660592 80.0451503,76.3192027 C79.9391028,75.1654115 79.9884272,73.9423929 80.5383946,72.8901354 C81.088362,71.8378779 82.2006278,70.9840724 83.4485358,71.0002255 C87.6213823,71.0509923 86.9012456,76.3445861 87.81868,78.7906233 C88.186147,79.764423 88.6818574,80.7059166 88.8816214,81.7212528 C88.9544863,82.1192823 88.9940658,82.5220226 89,82.9258108 C88.4475664,84.2665161 87.4314832,85.399539 86.7804008,86.7056306 C85.9591491,88.3601671 85.7569189,90.2154633 85.5744186,92.0338381 C85.4067155,93.5960713 85.2513436,95.1629197 85.3771209,96.7251529 Z" id="Shape" stroke="none" fill="#000000" fill-rule="nonzero" opacity="0.1"></path>
                            <path d="M86.7035735,78.7274772 C87.0191143,79.6908231 87.4447767,80.6222097 87.6163123,81.6266462 C87.902205,83.3090773 87.4596008,85.0965177 87.940324,86.7264441 C88.0654626,87.0743543 88.1701442,87.4304169 88.2537471,87.7925165 C88.3363383,88.3107144 88.2410407,88.8403264 88.2410407,89.3676555 C88.2410407,90.2168609 88.4888144,91.0386726 88.7090576,91.8536358 C89.4538615,94.6230946 89.9467921,97.4641339 90.1808755,100.336559 C90.2158446,101.108422 90.3287506,101.873878 90.5175935,102.619369 C90.6065328,102.871988 90.6828798,103.129552 90.7463077,103.390959 C90.803174,103.739786 90.8167051,104.095222 90.7865444,104.4479 C90.7293659,105.566477 90.6128911,106.689619 90.7293659,107.803631 C90.8458407,108.917642 91.2227955,110.047633 92,110.794112 C91.3053867,110.956192 90.5705366,111.118271 89.8928651,110.878576 C88.9398895,110.543003 88.3681041,109.50889 87.8831455,108.568372 C87.2690056,107.367614 84.9352743,106.285562 84.6938538,104.936421 C84.5053764,103.87948 83.8954721,102.491531 83.7938213,101.418611 C83.6921706,100.34569 84.3867839,99.0422051 83.6561693,98.3071403 C83.3025095,97.9487391 84.2491319,98.0468999 83.8997075,97.6816503 C83.1203852,96.8621214 82.9276724,95.5997274 82.8789648,94.4263629 C82.7963735,92.3558541 83.037794,90.2602343 82.6862519,88.2216848 C82.4744796,86.9638564 82.0318753,85.765381 81.6782155,84.5417948 C81.2673772,83.1218868 80.9708959,81.6654539 80.6744146,80.2044554 C80.3817697,78.90773 80.1695282,77.5914432 80.0390975,76.264325 C79.9480354,75.1229199 79.9882721,73.9107477 80.4626422,72.8697863 C80.9370123,71.8288248 81.8921056,70.9864678 82.961556,71.0001647 C86.5299201,71.068649 85.9157803,76.3076984 86.7035735,78.7274772 Z" id="Shape" stroke="none" fill="#9AA8FF" fill-rule="nonzero"></path>
                            <path d="M77.8934761,79.2401425 C78.1848607,79.5808064 78.5592346,79.9546159 79,79.8883246 C78.9303867,79.9984863 78.7853355,80.0328534 78.6735755,79.9656645 C78.5677727,79.8956624 78.4829958,79.7982842 78.428296,79.6839262 L77.7975774,78.6214232 C77.7145881,78.4833162 77.1428841,77.6786129 77.0027244,78.1426523 C76.9473982,78.339685 77.7514722,79.0744141 77.8934761,79.2401425 Z" id="Shape" stroke="none" fill="#000000" fill-rule="nonzero" opacity="0.1"></path>
                            <path d="M78,84 C77.9736124,83.6263349 77.7602219,83.2732039 77.4011815,83.0090407 C77.0784132,82.7929698 76.70173,82.6253516 76.292159,82.515543 C75.2851772,82.2103275 74.0929108,81.9645696 73,82.004208 C73.3974221,82.4323024 74.6729323,82.6879699 75.3120301,82.929764 C76.2178661,83.2746178 77.1138561,83.6313631 78,84 Z" id="Shape" stroke="none" fill="#000000" fill-rule="nonzero" opacity="0.1"></path>
                            <path d="M79.3503623,93.2845739 C79.1869332,94.414341 78.1945163,95.2704926 77.1902567,95.9324656 C76.185997,96.5944385 75.0585735,97.1637352 74.4024888,98.1213894 C73.9477297,98.7833623 73.7440355,99.5512509 73.357964,100.241909 C72.9316274,101.003178 72.294491,101.643085 71.7852555,102.358016 C71.2760201,103.072947 70.8781059,103.926892 71.0344293,104.774217 C71.0389658,104.853031 71.0784247,104.926553 71.143382,104.977222 C71.2426087,105.016265 71.356471,105.004572 71.4441862,104.94633 C72.4768683,104.443231 72.8842566,103.293604 73.3176989,102.298439 C73.7727221,101.293941 74.285057,100.312821 74.8525108,99.3592787 C75.1083128,98.9179634 75.3901686,98.4369298 75.8662445,98.1919998 C76.1922113,98.0654877 76.5259764,97.9571737 76.8657671,97.8676331 C77.3477629,97.6617047 77.7706177,97.3524505 78.0997748,96.9651433 C79.3927536,95.5281087 80.0678762,93.6954829 79.9946043,91.8216137 C79.9803931,91.4266365 79.9567077,89.5245677 79.3195713,90.111517 C78.6824349,90.6984663 79.459315,92.5166853 79.3503623,93.2845739 Z" id="Shape" stroke="none" fill="#000000" fill-rule="nonzero" opacity="0.1"></path>
                            <path d="M81.4546186,46.6672967 C83.4986459,47.5306697 85.2574601,49.4300902 85.1932872,51.5827668 C85.1386213,53.8436529 83.1849115,55.9733062 83.8575391,58.1397968 C84.2473303,59.3968678 85.4214577,60.2395198 86.3507771,61.1949859 C89.8897965,64.8234547 89.8826661,71.1571588 86.3317628,74.7787206 C84.972247,76.1601174 83.2253167,77.1432114 81.7873672,78.4624453 C76.7177041,83.0901244 76.5014175,91.0953186 79.2156956,97.3093016 C77.1360383,97.7449963 75.016319,97.9764001 72.888718,98 C71.8928489,98 70.6735628,97.8365347 70.3122929,96.9363245 C69.9795442,96.1051841 70.5499705,94.9816481 69.8939803,94.3669265 C69.5849994,94.0791356 69.1215281,94.039996 68.7055923,93.9732285 C66.0293426,93.5542048 63.8332016,91.484412 62.8302022,89.0462467 C61.8272027,86.6080815 61.8794918,83.8637066 62.4546715,81.2989133 C62.863477,79.4455393 63.5028297,77.4056768 62.5544961,75.7480007 C61.3661082,73.6620916 57.9483043,72.7826023 58.0005934,70.3973906 C58.0433754,68.4427142 60.4225281,67.4918528 61.7725368,66.0390838 C64.2633981,63.3637788 63.0773869,59.2126816 63.0726333,55.607236 C63.0726333,52.4346282 64.2182393,49.1607179 66.6568114,47.0471808 C70.2837716,43.8768753 77.2691161,44.9060159 81.4546186,46.6672967 Z" id="Shape" stroke="none" fill="#494242" fill-rule="nonzero"></path>
                            <g id="Group" opacity="0.1" stroke="none" stroke-width="1" fill="none" fill-rule="evenodd" transform="translate(58.000000, 53.000000)">
                                <path d="M5.00732824,22.7882353 C3.96847328,20.9247059 1.24,20.0023529 0.605801527,18.1694118 C0.288526626,18.597173 0.11019235,19.11107 0.0946564885,19.6423529 C0.0425954198,22.08 3.44076336,22.9788235 4.62870229,25.1129412 C5.01879711,25.8684545 5.18303754,26.719276 5.10198473,27.5647059 C5.47587786,25.9270588 5.80480916,24.2188235 5.00732824,22.7882353 Z" id="Shape" fill="#000000" fill-rule="nonzero"></path>
                                <path d="M26.1015267,4.19294118 C26.5274809,2.95764706 27.1451145,1.71058824 27.1758779,0.428235294 C27.1801852,0.289301217 27.1762343,0.15023545 27.1640458,0.0117647059 C26.6883969,1.42823529 25.959542,2.80235294 26.1015267,4.19294118 Z" id="Shape" fill="#000000" fill-rule="nonzero"></path>
                                <path d="M5.41435115,10.7741176 C6.22839695,8.21647059 5.52557252,5.04470588 5.52320611,2.20705882 C5.52320611,1.86352941 5.53740458,1.51764706 5.56343511,1.17411765 C5.283052,2.27074416 5.1415492,3.39790327 5.14221374,4.52941176 C5.14694656,6.55529412 5.50427481,8.75294118 5.41435115,10.7741176 Z" id="Shape" fill="#000000" fill-rule="nonzero"></path>
                                <path d="M28.6880153,21.8070588 C27.3344275,23.2188235 25.5951145,24.2235294 24.1634351,25.5717647 C21.6077099,27.9647059 20.2943511,31.2423529 19.9654198,34.7176471 C20.5759542,32.1294118 21.808855,29.7458824 23.7848092,27.8941176 C25.2046565,26.5529412 26.9558015,25.5529412 28.3093893,24.1294118 C29.9194738,22.384712 30.8544945,20.1284226 30.9479389,17.7623529 C30.5392624,19.2743167 29.7632032,20.6632713 28.6880153,21.8070588 Z" id="Shape" fill="#000000" fill-rule="nonzero"></path>
                                <path d="M15.3035878,45.5317647 C14.3120611,45.5317647 13.0980916,45.3623529 12.7383969,44.4423529 C12.4070992,43.5952941 12.9750382,42.4470588 12.3219084,41.8164706 C12.0142748,41.5223529 11.550458,41.4823529 11.1387023,41.4141176 C8.47648855,40.9882353 6.28992366,38.8705882 5.29129771,36.3811765 C4.55534351,34.5411765 4.39679389,32.5341176 4.58137405,30.5529412 C4.56244275,30.6305882 4.54587786,30.7082353 4.52931298,30.7882353 C3.96610687,33.4094118 3.90694656,36.2164706 4.90320611,38.7082353 C5.89946565,41.2 8.08839695,43.3152941 10.7506107,43.7411765 C11.1718321,43.8094118 11.6356489,43.8517647 11.9338168,44.1435294 C12.5940458,44.7741176 12.0190076,45.9223529 12.3503053,46.7694118 C12.71,47.6894118 13.9239695,47.8705882 14.9154962,47.8588235 C17.0338109,47.834561 19.1442729,47.5980718 21.2148855,47.1529412 C20.9228357,46.4665111 20.6676919,45.7651293 20.4505344,45.0517647 C18.7510633,45.3521027 17.0295863,45.5126462 15.3035878,45.5317647 Z" id="Shape" fill="#000000" fill-rule="nonzero"></path>
                            </g>
                            <path d="M80.0068643,88.9156246 C80.6098333,89.4246334 81.2640669,87.4843794 80.8905679,87 C80.7904799,87.1258839 79.9140998,88.8444728 80.0068643,88.9156246 Z" id="Shape" stroke="none" fill="#000000" fill-rule="nonzero" opacity="0.1"></path>
                            <path d="M83,116 C83.6115601,115.823039 84.2609487,115.646078 84.6602491,115.221371 C84.9901974,114.879835 85.2613014,113.524312 84.5635764,114.17376 C83.9709305,114.731188 83.6914202,115.465577 83,116 Z" id="Shape" stroke="none" fill="#000000" fill-rule="nonzero" opacity="0.1"></path>
                            <path d="M89.9751375,112.83805 C89.8843667,113.238585 89.7157924,113.654395 89.2826861,113.942917 C89.2022892,113.997226 89.0233411,114.03117 89,113.958191 C89.4837613,113.789662 89.9333386,113.58212 90.3382206,113.340416 C91.214807,112.77186 91.3341058,111.371683 89.9984786,111 C89.9855113,111.614381 90.1177773,112.213486 89.9751375,112.83805 Z" id="Shape" stroke="none" fill="#000000" fill-rule="nonzero" opacity="0.1"></path>
                            <path d="M98,111.691603 C98,111.691603 91.1412764,108.715233 88.6616956,109.022213 C86.1821148,109.329192 91.4699538,113.645597 91.4699538,113.645597 L94.6310568,116 C94.6310568,116 96.5644532,115.199183 96.6925407,115.137787 C96.8206282,115.076391 98,111.691603 98,111.691603 Z" id="Shape" stroke="none" fill="#454B69" fill-rule="nonzero"></path>
                            <path d="M52,83.0662151 C52,83.0662151 56.85976,80.2633428 63.2740962,83.7465239 C69.6884324,87.229705 70.7574884,107.727409 70.7574884,107.727409 C70.7574884,107.727409 68.1338563,128.610622 78.2499984,123.964113 C78.2499984,123.964113 96.7134395,118.260857 98.562063,119.517161 C98.562063,119.517161 100.312671,119.517161 96.8137347,120.290445 C93.3147986,121.06373 79.7977362,125.324731 79.7977362,125.324731 C79.7977362,125.324731 75.4280552,126.844087 73.5771522,125.324731 C71.7262492,123.805374 66.4812643,125.519752 65.7997126,115.074744 C65.348672,108.492641 64.53751,101.939871 63.3698326,95.4455677 L61.5667978,90.1278205 L52,83.0662151 Z" id="Shape" stroke="none" fill="#565661" fill-rule="nonzero"></path>
                            <path d="M52.9430581,115.024888 C52.9430581,115.024888 55.1683293,93.8164185 51.5196436,86.1647444 C48.3454293,79.4965 60.6200067,82.6148582 63.8226893,83.5233383 C64.3183379,83.6652064 64.7506429,83.9608289 65.0515704,84.3636825 C66.9494564,86.9187829 73.7581222,97.1596255 71.7511078,110.861778 C71.7511078,110.861778 70.9421339,123.064937 76,125 L60.415984,120.19414 C59.1515175,119.803493 57.8680721,119.478712 56.5727649,119.197083 C54.9216042,118.838233 52.2313508,117.818464 52.9430581,115.024888 Z" id="Shape" stroke="none" fill="#FFFFFF" fill-rule="nonzero"></path>
                            <polygon id="Shape" stroke="none" fill="#565661" fill-rule="nonzero" points="159 158 160.764828 158 161.921379 131.126182 162 129.597769 160.5 129 160.40069 130.624525"></polygon>
                            <polygon id="Shape" stroke="none" fill="#000000" fill-rule="nonzero" opacity="0.1" points="162 130.528115 163.901682 131 164 129.562293 162.124191 129"></polygon>
                            <path d="M142.949982,145.873349 C142.903371,146.207834 142.813832,146.535514 142.6834,146.848941 C142.548697,147.258241 142.25955,147.604613 141.872546,147.820271 C141.612598,147.923214 141.33405,147.976052 141.052805,147.975769 C140.00647,148.035413 138.900154,148.020502 138.000439,147.509275 C137.617144,147.272473 137.265721,146.991313 136.954104,146.672141 C134.932285,144.745996 133.094414,142.650116 131.462511,140.409614 C131.189264,140.032584 130.907131,139.587391 131.029314,139.131547 C133.143291,138.56931 135.150658,137.688531 136.976319,136.52216 C137.228255,136.336826 137.510519,136.192863 137.81161,136.096138 C138.327086,135.990486 138.857817,135.971745 139.380002,136.040755 C139.884287,136.119569 139.906502,136.13448 140.099774,136.679788 C140.419673,137.602127 140.366356,138.596889 140.726242,139.519227 C140.954661,140.028925 141.23285,140.516763 141.55709,140.976223 C142.485685,142.465171 143.198792,144.222513 142.949982,145.873349 Z" id="Shape" stroke="none" fill="#A26565" fill-rule="nonzero"></path>
                            <path d="M143,145.766186 C142.953194,146.117526 142.86328,146.461718 142.732302,146.790938 C142.597035,147.220864 142.306678,147.584689 141.918054,147.811215 C141.657019,147.919345 141.377304,147.974846 141.094882,147.974549 C140.044168,148.037197 138.933221,148.021535 138.02974,147.484547 C137.644841,147.235813 137.291947,146.940484 136.979026,146.60523 C134.948744,144.582024 133.103181,142.380532 131.464446,140.027129 C131.190056,139.6311 130.906742,139.163474 131.029437,138.684659 C131.721965,138.492163 132.404031,138.263634 133.072865,138 L133.106328,138.024612 C133.791188,138.514613 134.28866,139.217172 134.772748,139.906307 L136.334319,142.110194 C136.612676,142.543063 136.941433,142.941148 137.313648,143.296042 C137.775153,143.667523 138.284691,143.974607 138.828373,144.208922 C139.562311,144.564676 140.29625,144.92043 141.059189,145.206824 C141.5522,145.405957 142.386525,145.484268 143,145.766186 Z" id="Shape" stroke="none" fill="#000000" fill-rule="nonzero" opacity="0.1"></path>
                            <path d="M146.002085,121.58171 C145.847629,121.979052 145.660102,122.360821 145.441756,122.722435 C143.358557,126.454892 141.751541,130.467307 140.663268,134.653417 C140.353966,134.579282 140.179144,135.028876 140.181385,135.370855 C140.183626,135.712833 140.181385,136.143295 139.885531,136.267651 C139.79812,136.303523 139.699502,136.303523 139.614332,136.344178 C139.426061,136.435053 139.372269,136.690939 139.345374,136.910953 L139.080898,138.981956 C138.989004,139.699393 138.908317,140.476617 139.23779,141.110353 C139.46509,141.487024 139.759857,141.812102 140.10518,142.066936 L144.480231,145.749781 C144.659536,145.900442 144.881427,146.06067 145.096593,145.976969 C145.587442,145.785652 145.152626,144.848201 145.544857,144.467959 C145.804849,144.20729 146.217252,144.40339 146.578104,144.372301 C147.04878,144.334038 147.40515,143.872486 147.52394,143.38702 C147.607324,142.89264 147.615649,142.387169 147.548594,141.889968 C147.519018,141.663099 147.54369,141.431933 147.620316,141.217968 C147.754018,140.991255 147.937994,140.803168 148.155991,140.670325 C149.697381,139.469229 150.579883,137.530445 150.511615,135.49521 C150.476018,135.190079 150.486613,134.880826 150.542994,134.579282 C150.634144,134.303214 150.771609,134.047144 150.948672,133.823581 C152.537766,131.530174 153.862384,129.040666 155.178037,126.555942 C155.935602,125.121067 156.706615,123.664669 156.971091,122.048044 C157.01758,121.926099 157.007583,121.787922 156.944104,121.675035 C156.880624,121.562149 156.771062,121.487712 156.648341,121.474094 C155.992012,121.255474 155.322571,121.084493 154.644604,120.962322 C152.584833,120.517511 150.596785,119.831163 148.593048,119.171121 C146.58931,118.511078 146.605,119.855077 146.002085,121.58171 Z" id="Shape" stroke="none" fill="#454B69" fill-rule="nonzero"></path>
                            <polygon id="Shape" stroke="none" fill="#565661" fill-rule="nonzero" points="136 163.334352 139.120442 163.728035 153.483781 129.660599 157.357739 129.36418 164.163759 131.439118 165.484627 172 168.602853 172 167.375065 129.957019 174.84152 130.156176 188.165451 164.814136 191 164.814136 176.986824 124.308832 176.448281 122.747997 155.562598 122 150.356691 125.049882 150.290204 125.225881"></polygon>
                            <path d="M151,125.287223 C155.538851,126.726711 160.250291,128.298348 160.250291,128.298348 C160.250291,128.298348 164.54707,129.877065 166.367093,128.298348 C166.596595,128.109845 166.853066,127.960896 167.12693,127.857063 C166.890757,128.034675 166.635765,128.182765 166.367093,128.298348 L178,124.350376 L177.462062,122.76222 L156.339034,122 L151.073966,125.107877 L151,125.287223 Z" id="Shape" stroke="none" fill="#000000" fill-rule="nonzero" opacity="0.1"></path>
                            <path d="M172.997342,116.806738 L164.027239,115 C164.027239,115 142.594373,118.613476 141,120.058019 C141,120.058019 158.145357,123.218221 160.038968,124.294215 C161.932578,125.370209 173.198392,126.560581 172.997342,116.806738 Z" id="Shape" stroke="none" fill="#FFFFFF" fill-rule="nonzero"></path>
                            <path d="M137.779015,148.770744 C137.268158,149.717285 136.009815,149.984037 134.904065,149.999096 C133.368854,150.01758 131.843973,149.752596 130.410297,149.2182 C129.592042,148.912725 128.80696,148.51905 127.962167,148.295322 C126.703823,147.959731 125.308367,147.987697 124.202617,147.314362 C123.616188,146.934051 123.131682,146.422921 122.789469,145.823561 C122.725335,145.71815 122.663413,145.608438 122.605914,145.496574 C122.077366,144.496253 121.831889,143.332438 122.126019,142.252521 C122.420148,141.172604 123.488303,139.982975 124.726743,140.000185 C126.19739,140.021697 127.951109,140.699334 129.370892,141.049984 C131.140092,141.48023 132.909292,141.977164 134.472822,142.887133 C135.78203,143.652971 136.938645,144.752249 137.555653,146.094615 C137.67426,146.353556 137.771864,146.621124 137.847571,146.894873 C138.039972,147.514426 138.084202,148.204971 137.779015,148.770744 Z" id="Shape" stroke="none" fill="#A26565" fill-rule="nonzero"></path>
                            <path d="M138.769081,149.635199 C138.238159,150.686111 136.930389,150.982277 135.781207,150.998996 C134.185695,151.019518 132.600919,150.725316 131.11093,150.131994 C130.260535,149.792836 129.444615,149.355752 128.56664,149.107355 C127.25887,148.734759 125.808602,148.765808 124.659419,148.018228 C124.049956,147.595981 123.546419,147.028492 123.190764,146.363042 C123.124112,146.246009 123.059757,146.124199 123,146 C123.229836,146.019107 123.441286,146.042992 123.556204,146.054934 C124.9674,146.195852 126.314242,146.730861 127.661084,147.134507 C129.530881,147.695766 131.461537,148.008752 133.406996,148.065997 C134.786015,148.1066 136.224791,148.001509 137.429134,147.301697 C137.788765,147.065932 138.16178,146.852973 138.54614,146.663985 C138.669406,146.951478 138.770843,147.24855 138.849524,147.552483 C139.040288,148.240353 139.086256,149.00704 138.769081,149.635199 Z" id="Shape" stroke="none" fill="#000000" fill-rule="nonzero" opacity="0.1"></path>
                            <path d="M149.019731,105.880675 C146.057064,105.394531 143.039701,105.275848 140.036012,105.157165 L136.362305,105.011094 C136.101015,104.980766 135.836269,105.012833 135.589732,105.104671 C135.377275,105.241441 135.175395,105.39403 134.985804,105.561144 C134.61661,105.812204 134.144862,105.839592 133.700462,105.864698 C130.547967,106.038635 127.412649,106.446009 124.320202,107.083481 C122.72492,107.409859 121.068105,107.836661 119.869364,108.939043 C118.602255,110.105331 118.046185,111.883293 118.002884,113.604195 C117.959584,115.325098 118.410821,117.01633 118.887126,118.668762 C119.493476,120.657945 119.828481,122.720102 119.883038,124.799192 C119.861628,125.375954 119.883721,125.953511 119.949129,126.526942 C120.0552,127.074374 120.216309,127.609651 120.429992,128.124597 L122.107318,132.609443 C122.255451,133.00201 122.401305,133.392294 122.563113,133.775731 C122.72492,134.159169 122.87989,134.460441 123.018908,134.821054 C123.224015,135.314045 123.385823,135.825295 123.54763,136.334262 L124.664327,139.84682 L124.810182,140.303293 C125.21356,141.567723 125.626055,142.854977 126.387232,143.941382 C127.14841,145.027787 128.32664,145.904215 129.650724,145.970404 C130.077944,145.954373 130.50575,145.965808 130.931508,146.004639 C131.294414,146.093364 131.646667,146.221159 131.982115,146.385794 C132.976374,146.799449 134.043657,147.008256 135.120264,146.99975 C136.111618,146.99975 137.212362,146.723584 137.750201,145.888239 C138.046467,145.431766 138.123952,144.870304 138.205995,144.331666 C138.349571,143.249826 138.488588,142.120055 138.121673,141.092991 C137.893776,140.479035 137.510908,139.951809 137.246547,139.346983 C136.877353,138.523049 136.756568,137.612386 136.517275,136.742805 C135.999409,134.871138 134.945726,133.192259 133.486239,131.913322 C132.967905,129.858016 132.587229,127.770331 132.346751,125.664209 C132.313346,125.19785 132.22068,124.737664 132.070995,124.29479 C131.804355,123.610081 131.264238,123.055466 131.03862,122.357063 C130.826675,121.708871 130.890486,120.960256 130.50534,120.401076 C133.711857,121.284351 136.886469,121.085786 140.216051,121.033291 C141.28227,121.036688 142.347724,120.975714 143.406616,120.850702 C143.900257,120.760054 144.399998,120.706649 144.901623,120.690937 C145.93172,120.690937 146.898005,121.14741 147.84378,121.549106 C150.517017,122.690288 153.33383,123.587257 156.237244,123.710505 C159.234096,123.836035 162.196763,123.130784 165.125245,122.432381 C166.412866,122.124261 167.750624,121.791036 168.771605,120.944279 C169.792586,120.097522 170.366887,118.57062 169.73789,117.408897 C169.259306,116.534751 168.267952,116.105667 167.342688,115.740488 C164.78112,114.727119 162.205879,113.738855 159.737749,112.513225 C155.968325,110.67364 153.149233,106.565384 149.019731,105.880675 Z" id="Shape" stroke="none" fill="#454B69" fill-rule="nonzero"></path>
                            <path d="M144.12944,94.7045753 C143.785537,95.4418846 143.207253,96.0447435 142.780111,96.7386817 C142.065565,97.8809706 141.829775,99.254322 142.12297,100.566185 C142.435091,101.880465 143.345354,102.977073 144.587249,103.534939 C145.13426,103.750675 145.709591,103.887957 146.295815,103.942628 C147.06686,104.035876 147.888286,104.055393 148.569522,103.686738 C149.079369,103.38383 149.49771,102.950951 149.780852,102.433312 C150.370088,101.457462 150.70523,100.358003 151.011896,99.262882 C151.579228,97.2417869 152.063322,95.1686465 151.993226,93.0716519 C151.969131,92.3495224 151.82456,91.5363136 151.219991,91.1199506 C150.907931,90.9415362 150.561818,90.8292883 150.203613,90.79033 L147.314383,90.2785505 C146.755814,90.1787969 145.781055,89.7732767 145.296961,90.1722912 C144.812867,90.5713057 144.775629,91.7510007 144.692391,92.3039827 C144.560963,93.1215287 144.479916,93.952086 144.12944,94.7045753 Z" id="Shape" stroke="none" fill="#FFC0C0" fill-rule="nonzero"></path>
                            <path d="M181.746269,85.5465147 L180.951358,92.0480601 C180.786787,93.2076631 180.692157,94.3756957 180.667955,95.5461252 C180.667955,96.1980783 180.688692,96.9219709 180.246307,97.4098116 C180.029919,97.6317963 179.75606,97.7925862 179.453701,97.8751712 C178.488288,98.167426 177.435319,97.9066448 176.513684,97.5042324 C175.974527,97.279421 175.42385,96.9534445 175.179616,96.429634 C175.037706,96.0664958 174.978731,95.6775138 175.00681,95.2898403 C175.00681,91.4118438 175.382376,87.367487 177.45836,84.0627596 C177.635457,83.7384854 177.885092,83.4572651 178.188756,83.2399499 C178.764778,82.8802517 179.518215,82.9814168 180.170272,83.1770027 C180.571184,83.2961528 181.654105,83.4287915 181.909859,83.7772491 C182.165613,84.1257068 181.801567,85.0991401 181.746269,85.5465147 Z" id="Shape" stroke="none" fill="#A1616A" fill-rule="nonzero"></path>
                            <circle id="Oval" stroke="none" fill="#FFC0C0" fill-rule="nonzero" cx="159" cy="52" r="8"></circle>
                            <path d="M157.547491,66.3161117 C157.519309,66.9056456 157.353848,67.4813371 157.063521,68 C161.052475,67.4106391 165.031301,66.7539227 169,66.0298507 C167.683241,65.3733855 166.687716,64.2383686 166.230737,62.8725603 C166.014924,62.1401727 165.896767,61.3839827 165.879153,60.6224646 C165.816177,59.4148298 165.840108,58.2044057 165.950772,57 C164.5618,57.1410256 163.246617,57.6461921 161.922753,58.0797933 C160.591704,58.5160674 159.237723,58.8835313 157.86652,59.1806353 C157.204588,59.3237658 156.538316,59.4458477 155.869873,59.5595101 C155.088576,59.6942212 154.713119,59.6921163 155.255687,60.3572522 C156.711937,62.1337543 157.751496,63.9397245 157.547491,66.3161117 Z" id="Shape" stroke="none" fill="#FFC0C0" fill-rule="nonzero"></path>
                            <path d="M161.081263,65.095118 C159.993454,65.2604738 158.852971,65.4467902 157.985013,66.1315031 C157.654647,66.4200637 157.340409,66.7271891 157.043772,67.0514405 C155.319307,68.7539068 152.884903,69.4386197 150.791728,70.6403607 C150.450342,70.8119713 150.147754,71.0538634 149.903159,71.3506921 C149.674147,71.6744169 149.55735,72.086642 149.316887,72.4080378 C149.037492,72.7806707 148.595497,73.0135662 148.377936,73.4257913 C148.160374,73.8380164 148.208466,74.2758601 148.185565,74.7137037 C148.132892,75.6755622 147.775632,76.5885127 147.498527,77.5084501 C146.227507,81.9125047 146.923706,86.8242716 145,90.9837859 C145.178749,91.4679831 145.544483,91.8567473 146.012236,92.0597633 C146.496301,92.2371069 147.001589,92.3475545 147.514558,92.388146 L151.776482,92.9261347 C152.385656,93.0029903 153.031471,93.0751879 153.587972,92.8166738 C153.078905,94.243872 152.7189,95.7215762 152.513903,97.2253864 C152.410305,98.1446275 152.249676,99.0562902 152.032976,99.9549221 C151.446704,102.004403 149.971863,103.711527 148.224497,104.878334 C148.004412,104.995573 147.818738,105.169931 147.686318,105.383717 C147.457305,105.849508 147.796244,106.371194 148.036707,106.827669 C148.735195,108.150516 148.63901,109.738864 148.629849,111.238711 C148.620689,112.738558 148.769547,114.38513 149.800104,115.461107 C150.409277,116.096912 151.242883,116.441597 152.053587,116.76998 L158.720144,119.478555 C159.820314,119.954956 160.955007,120.344272 162.11411,120.643033 C163.870637,121.0506 165.695867,121.034297 167.498196,120.955113 C168.689061,120.903876 169.8784,120.826244 171.066212,120.722217 C171.538725,120.720611 172.003012,120.596359 172.415096,120.361229 C172.76982,120.076551 173.042717,119.700083 173.205189,119.271278 C174.13269,117.219468 174.444147,114.825302 175.882346,113.106533 C176.869391,111.925753 178.401485,110.982526 178.513701,109.438428 C178.566374,108.669873 178.229725,107.922278 178.225145,107.151394 C178.225145,106.203509 178.712942,105.302204 178.68317,104.356648 C178.621337,102.817208 177.194588,101.643415 176.967866,100.120278 C176.390754,96.2588699 178.31904,92.4021198 179.503035,88.6874359 C179.716017,88.0236837 179.990832,87.2900627 180.618326,87.0059302 C181.245821,86.7217976 182.129809,86.8708507 182.354242,86.2420328 C182.919903,84.663001 183.05502,82.8114815 182.981736,81.1323047 C182.940514,80.1611303 182.601575,79.2109165 182.640508,78.2374132 C182.667989,77.5527003 182.883261,76.886619 182.940514,76.2042351 C183.027539,75.1725079 182.759594,74.1477675 182.482489,73.1509746 C182.402417,72.7951026 182.28255,72.4497216 182.125229,72.1215763 C181.95604,71.8239176 181.756459,71.5452312 181.529797,71.2901393 L180.414505,69.9416741 C179.892357,69.3105272 179.340436,68.6560907 178.582405,68.3370238 C178.337361,67.7198507 177.554138,67.2936518 176.993057,66.9536243 C176.427505,66.6272465 175.843241,66.335605 175.243401,66.0802661 L168.936395,63.2482563 C168.700639,63.1275421 168.448083,63.0442858 168.187524,63.0013871 C167.803622,62.9882888 167.422152,63.0681115 167.074523,63.2342826 C165.150817,64.0098247 163.142377,64.7830379 161.081263,65.095118 Z" id="Shape" stroke="none" fill="#9AA8FF" fill-rule="nonzero"></path>
                            <path d="M154.275067,55.2879315 C154.022885,54.3948746 153.378155,53.6239247 153.280613,52.6997425 C153.192587,51.8785133 153.551828,51.0836208 153.756428,50.2839399 C153.961029,49.4842589 153.953892,48.5074032 153.323437,47.9758787 C153.218757,47.884897 153.085529,47.8034924 153.047464,47.6694141 C152.971333,47.4299887 153.21162,47.2121116 153.285371,46.9702919 C153.420979,46.491441 152.833347,45.9623108 153.047464,45.502614 C153.168797,45.2512173 153.473318,45.1626298 153.739775,45.0836194 C154.75802,44.7795491 155.790539,44.1043694 156.011793,43.0580803 C156.808784,43.3932759 157.658114,42.763587 158.269537,42.1530521 C158.880959,41.5425173 159.632748,40.8457892 160.474941,41.0301468 L160.286994,41.4156218 C161.5856,40.9411575 163.005911,40.9251161 164.31477,41.3701309 L163.915085,41.3701309 C165.063145,41.3896989 166.176616,41.768803 167.100669,42.4547282 C166.998368,42.4547282 166.988852,42.6079604 167.029296,42.6941536 C167.362367,43.4770748 168.218835,43.8912808 169.044374,44.0852154 C169.541601,44.2049281 170.081652,44.2911213 170.44565,44.6502594 C170.809649,45.0093976 170.816786,45.7587992 170.336213,45.9311855 C171.316239,46.315176 172.244257,46.8219644 173.098321,47.4395657 C173.336228,47.6143463 173.605064,47.8513775 173.574136,48.157842 C173.5401,48.3117087 173.49068,48.4617145 173.426633,48.6055676 C173.379136,48.8611275 173.396317,49.1246078 173.476594,49.371729 L173.740671,50.4682975 C174.030919,51.6869729 174.25931,53.1546509 173.376673,54.0381307 C174.055064,55.3138278 173.822047,56.8862616 172.803315,57.9072457 C172.944906,58.33992 172.895859,58.8128799 172.668547,59.2068082 C172.441235,59.6007366 172.057364,59.8780173 171.613777,59.9686987 C171.906403,60.4283956 171.637568,61.0844213 171.176027,61.3717318 C170.714486,61.6590423 170.133991,61.6614366 169.59632,61.6111572 C169.058649,61.5608779 168.51384,61.4387709 167.976169,61.5201756 C167.193453,61.6422825 166.42739,62.1785955 165.673223,61.9391701 C165.392113,61.8182043 165.122219,61.6723814 164.866716,61.5034158 C164.338561,61.2184995 163.724759,61.1538546 163.139506,61.0245649 C162.14178,60.8087839 161.194444,60.4023988 160.34885,59.8274377 C159.788329,59.4883533 159.341668,58.9879707 159.066527,58.3908851 C158.54313,57.0596797 159.423389,55.3142683 158.497928,54.2296711 C157.955499,53.5975879 156.880156,53.5880109 156.273491,54.1291124 C155.971349,54.3996631 155.930904,54.9694957 155.616866,55.1730073 C155.178796,55.284551 154.725568,55.3233696 154.275067,55.2879315 Z" id="Shape" stroke="none" fill="#494242" fill-rule="nonzero"></path>
                            <path d="M142.988984,120.607937 C142.704538,120.410692 142.459128,120.173721 142.262617,119.906547 C142.065444,119.638033 141.987156,119.315595 142.042506,119 C141.884287,119.809539 142.173028,120.636903 142.820899,121.23042 C143.323153,121.681063 144.265629,122.122939 145,121.968633 C144.895947,121.453112 143.45522,120.955125 142.988984,120.607937 Z" id="Shape" stroke="none" fill="#000000" fill-rule="nonzero" opacity="0.1"></path>
                            <path d="M188,84.0662151 C188,84.0662151 183.14024,81.2633428 176.725904,84.7465239 C170.311568,88.229705 169.242512,108.727409 169.242512,108.727409 C169.242512,108.727409 171.866144,129.610622 161.750002,124.964113 C161.750002,124.964113 143.286561,119.260857 141.437937,120.517161 C141.437937,120.517161 139.687329,120.517161 143.186265,121.290445 C146.685201,122.06373 160.202264,126.324731 160.202264,126.324731 C160.202264,126.324731 164.571945,127.844087 166.422848,126.324731 C168.273751,124.805374 173.518736,126.519752 174.200287,116.074744 C174.651328,109.492641 175.46249,102.939871 176.630167,96.4455677 L178.433202,91.1278205 L188,84.0662151 Z" id="Shape" stroke="none" fill="#565661" fill-rule="nonzero"></path>
                            <path d="M189.056942,116.024888 C189.056942,116.024888 186.831671,94.8164185 190.480356,87.1647444 C193.654571,80.4965 181.379993,83.6148582 178.177311,84.5233383 C177.681662,84.6652064 177.249357,84.9608289 176.94843,85.3636825 C175.050544,87.9187829 168.241878,98.1596255 170.248892,111.861778 C170.248892,111.861778 171.057866,124.064937 166,126 L181.584016,121.19414 C182.848483,120.803493 184.131928,120.478712 185.427235,120.197083 C187.078396,119.838233 189.768649,118.818464 189.056942,116.024888 Z" id="Shape" stroke="none" fill="#FFFFFF" fill-rule="nonzero"></path>
                            <ellipse id="Oval" stroke="none" fill="#FF6347" fill-rule="nonzero" opacity="0.1" cx="229" cy="156.5" rx="22" ry="3.5"></ellipse>
                            <path d="M215.874253,100.004809 C224.434707,106.633285 228,117 228,117 C228,117 217.6862,116.621158 209.123403,109.992682 C200.560605,103.364207 197,93 197,93 C197,93 207.316144,93.3788417 215.874253,100.004809 Z" id="Shape" stroke="none" fill="#9AA8FF" fill-rule="nonzero"></path>
                            <path d="M197,93 C197,93 207.705255,99.3600251 211.141626,104.626176 C214.577996,109.892327 228,117 228,117" id="Shape" stroke="#535461" stroke-width="2" fill="none"></path>
                            <path d="M221.736132,85.211062 C226.158209,88.2467832 228,93 228,93 C228,93 222.661476,92.8246591 218.250521,89.788938 C213.839566,86.7532168 212,82 212,82 C212,82 217.31628,82.1732283 221.736132,85.211062 Z" id="Shape" stroke="none" fill="#FF6347" fill-rule="nonzero"></path>
                            <path d="M212,82 C212,82 217.525979,84.9153063 219.297583,87.3278279 C221.069186,89.7403495 228,93 228,93" id="Shape" stroke="#535461" stroke-width="2" fill="none"></path>
                            <path d="M129,79.4684076 L129,80 L114,80 L114,79.568664 C114.411261,79.4065571 114.800596,79.1886549 115.158113,78.9204943 C116.45048,77.9480307 117.217107,76.3801337 117.21698,74.7097225 C117.217231,74.2795275 117.165797,73.8510203 117.063896,73.434367 C116.696478,71.9156136 115.694934,70.6530947 114.339447,70 L128.897944,70 C127.542457,70.6530947 126.540913,71.9156136 126.173495,73.434367 C126.072342,73.8511207 126.021653,74.2796264 126.02263,74.7097225 C126.021622,76.3798043 126.787463,77.9477846 128.079278,78.9204943 C128.367177,79.1363541 128.675761,79.3199901 129,79.4684076 Z" id="Shape" stroke="none" fill="#DFE6F5" fill-rule="nonzero"></path>
                            <path d="M128,70 C126.696512,70.5704935 125.73339,71.6733333 125.380067,73 L116.619933,73 C116.26661,71.6733333 115.303488,70.5704935 114,70 L128,70 Z" id="Shape" stroke="none" fill="#000000" fill-rule="nonzero" opacity="0.1"></path>
                            <path d="M95,68 L95,71.5013635 C95,73.4320218 96.1895713,75 97.659312,75 L143.338392,75 C144.808132,75 146,73.4320218 146,71.5013635 L146,68 L95,68 Z" id="Shape" stroke="none" fill="#DFE6F5" fill-rule="nonzero"></path>
                            <path d="M129,79.5075594 L129,80 L114,80 L114,79.600432 C114.411261,79.4502642 114.800596,79.2484106 115.158113,79 L128.079278,79 C128.367177,79.1999617 128.675761,79.3700729 129,79.5075594 Z" id="Shape" stroke="none" fill="#000000" fill-rule="nonzero" opacity="0.1"></path>
                            <rect id="Rectangle-path" stroke="none" fill="#DFE6F5" fill-rule="nonzero" x="107" y="79" width="26" height="2" rx="1"></rect>
                            <path d="M146,36.6945908 C146,35.9795378 145.719508,35.2938055 145.220294,34.7884049 C144.721079,34.2830044 144.044083,33.9993835 143.338392,34.000001 L97.6593129,34.000001 C96.9538327,33.9993829 96.2770718,34.2830779 95.7782218,34.7885455 C95.2793718,35.2940132 94.999391,35.9797519 95.000001,36.6945908 L95,70 L146,70 L146,36.6945908 Z" id="Shape" stroke="none" fill="#474157" fill-rule="nonzero"></path>
                            <path d="M145.999998,37.3570422 L145.999998,66.6405773 C146.000618,67.0008996 145.86074,67.3466804 145.611202,67.6016903 C145.361664,67.8567001 145.022955,68.0000006 144.669745,68 L98.3302688,68 C97.9770591,68.0000006 97.6383499,67.8567001 97.3888119,67.6016903 C97.1392739,67.3466804 96.9993963,67.0008996 97.0000159,66.6405773 L97.0000159,37.3570422 C96.9988654,37.1187929 97.0600967,36.8845514 97.177383,36.6785212 C97.4151621,36.2583816 97.8547105,35.9996892 98.3302688,36.0000003 L144.669745,36.0000003 C145.404423,36.0000003 145.999998,36.6075686 145.999998,37.3570422 Z" id="Shape" stroke="none" fill="#4C4C78" fill-rule="nonzero"></path>
                            <circle id="Oval" stroke="none" fill="#FFFFFF" fill-rule="nonzero" cx="120.5" cy="34.5" r="1"></circle>
                            <circle id="Oval" stroke="none" fill="#FFFFFF" fill-rule="nonzero" cx="120" cy="70" r="1"></circle>
                            <path d="M146,38 L97,38 C97,36.8954305 97.5956315,36 98.3303801,36 L144.66962,36 C145.404369,36 146,36.8954305 146,38 Z" id="Shape" stroke="none" fill="#C8CAD7" fill-rule="nonzero"></path>
                            <circle id="Oval" stroke="none" fill="#EDEDF4" fill-rule="nonzero" cx="97.5" cy="36.5" r="1"></circle>
                            <circle id="Oval" stroke="none" fill="#EDEDF4" fill-rule="nonzero" cx="99.5" cy="36.5" r="1"></circle>
                            <circle id="Oval" stroke="none" fill="#EDEDF4" fill-rule="nonzero" cx="100.5" cy="36.5" r="1"></circle>
                        </g>
                    </g>
                </g>
            </g>
        </g>
    </g>
</svg>