<?xml version="1.0" encoding="UTF-8"?>
<svg width="180px" height="180px" viewBox="0 0 180 180" version="1.1" xmlns="http://www.w3.org/2000/svg" xmlns:xlink="http://www.w3.org/1999/xlink">
    <!-- Generator: Sketch 50.2 (55047) - http://www.bohemiancoding.com/sketch -->
    <title>wechat</title>
    <desc>Created with Sketch.</desc>
    <defs>
        <circle id="path-1" cx="90" cy="90" r="90"></circle>
        <linearGradient x1="49.9918241%" y1="100%" x2="49.9918241%" y2="-0.0776833077%" id="linearGradient-3">
            <stop stop-color="#808080" stop-opacity="0.25" offset="0%"></stop>
            <stop stop-color="#808080" stop-opacity="0.12" offset="54%"></stop>
            <stop stop-color="#808080" stop-opacity="0.1" offset="100%"></stop>
        </linearGradient>
    </defs>
    <g id="Page-1" stroke="none" stroke-width="1" fill="none" fill-rule="evenodd">
        <g id="Artboard-5-Copy" transform="translate(-1050.000000, -195.000000)">
            <g id="Group-2" transform="translate(330.000000, 195.000000)">
                <g id="wechat" transform="translate(720.000000, 0.000000)">
                    <mask id="mask-2" fill="white">
                        <use xlink:href="#path-1"></use>
                    </mask>
                    <use id="Oval" fill="#FFBBAE" opacity="0.200892857" xlink:href="#path-1"></use>
                    <g id="undraw_programming_2svr" mask="url(#mask-2)">
                        <g transform="translate(-23.000000, 23.000000)">
                            <path d="M229.915668,105.187828 C229.638278,105.787975 229.361685,106.38012 229.085889,106.964264 C228.655456,107.871686 228.230602,108.761505 227.811329,109.633719 C227.624808,110.020213 227.438287,110.399507 227.256548,110.7788 C225.200034,114.996634 223.279824,118.72715 221.648961,121.795102 C218.634743,127.457253 212.784896,131.018905 206.390107,131.085381 L170.126117,131.481479 L169.74351,131.481479 L166.634826,131.515087 L163.975706,131.543894 L155.82139,131.632716 L155.491391,131.632716 L151.340103,131.678327 L151.213364,131.678327 L125.626507,131.956795 L102.787248,132.196854 L100.130519,132.225661 L83.6305827,132.405705 L83.6114524,132.405705 L72.9104069,132.520934 L72.7956247,132.520934 L38.9587993,132.888224 L28.8364472,132.998651 C26.6763175,133.02315 24.5252921,132.713857 22.4588632,132.081626 C18.862857,130.991152 15.6310949,128.936995 13.1112907,126.140168 C8.76391622,121.331789 5.59545024,115.721612 3.46719761,109.633719 C3.15951764,108.755103 2.87256223,107.865285 2.60633138,106.964264 C-4.76124878,81.96213 4.22045556,49.7054164 20.3856103,28.1193207 C21.0631439,27.2166992 21.7518369,26.3364833 22.4516893,25.4786728 L22.4684284,25.4594681 C27.4399308,19.3331651 33.0140397,14.2151095 38.9516254,10.5758167 C49.4733237,4.11583185 61.1308873,2.29618543 72.5971472,7.71911584 C82.2986314,12.3090419 91.3568572,14.4671714 100.137693,15.0529151 C101.024863,15.1105292 101.912034,15.1537398 102.794422,15.1801463 C122.9363,15.8163023 141.813183,8.5305149 163.980489,3.82776117 C164.862877,3.64051524 165.747656,3.45566989 166.639609,3.28042689 C182.453243,0.12125185 199.995784,-1.54475687 220.857442,1.95770239 C223.024812,2.31314858 225.163508,2.82663325 227.256548,3.49407931 C228.1764,3.79175234 229.062773,4.11183086 229.915668,4.45431489 C239.873021,8.52091255 245.303652,16.0347559 247.611252,25.4498657 C247.829657,26.3236801 248.018569,27.2126982 248.177989,28.1169201 C252.269495,50.7640761 240.286715,82.8887573 229.915668,105.187828 Z" id="Shape" stroke="none" fill="#FF6347" fill-rule="nonzero" opacity="0.1"></path>
                            <g id="Group" opacity="0.1" stroke="none" stroke-width="1" fill="none" fill-rule="evenodd" transform="translate(3.000000, 3.000000)">
                                <path d="M36.5889105,7.45701107 L36.5889105,129.69059 L26.459358,129.800923 C24.2976917,129.825401 22.1451362,129.516374 20.0772374,128.884686 L20.0772374,22.3278598 L20.0939883,22.3278598 C25.0690272,16.199631 30.6471012,11.0859779 36.5889105,7.45701107 Z" id="Shape" fill="#FF6347" fill-rule="nonzero"></path>
                                <path d="M245.97607,24.9854244 L18.0096887,24.9854244 C18.6877043,24.0835793 19.3768872,23.2041205 20.0772374,22.347048 L20.0772374,22.3278598 L245.40893,22.3278598 C245.62749,23.1961255 245.816537,24.0819803 245.97607,24.9854244 Z" id="Shape" fill="#FF6347" fill-rule="nonzero"></path>
                                <path d="M164.367724,0.160701107 L164.367724,128.301845 L161.706712,128.330627 L161.706712,0.707564576 C162.589728,0.520479705 163.475136,0.335793358 164.367724,0.160701107 Z" id="Shape" fill="#FF6347" fill-rule="nonzero"></path>
                                <path d="M100.477121,12.0501845 L100.477121,128.997417 L97.8185019,129.026199 L97.8185019,11.9230627 C98.7063035,11.9806273 99.5941051,12.0142066 100.477121,12.0501845 Z" id="Shape" fill="#FF6347" fill-rule="nonzero"></path>
                                <path d="M226.858424,103.762546 C226.427685,104.669188 226.002529,105.558241 225.582957,106.429705 L1.07924125,106.429705 C0.771342412,105.551845 0.484182879,104.662792 0.217762646,103.762546 L226.858424,103.762546 Z" id="Shape" fill="#FF6347" fill-rule="nonzero"></path>
                            </g>
                            <rect id="Rectangle-path" stroke="none" fill="#3F3D56" fill-rule="nonzero" x="51" y="63" width="4" height="14"></rect>
                            <rect id="Rectangle-path" stroke="none" fill="#3F3D56" fill-rule="nonzero" x="172" y="63" width="4" height="14"></rect>
                            <polygon id="Shape" stroke="none" fill="#65617D" fill-rule="nonzero" points="206 128.463918 206 131.412371 169.675667 131.729897 169.288322 131.736701 155.482589 131.856907 155.152629 131.861443 150.956394 131.895464 150.832061 131.895464 125.252959 132.12 83.2643065 132.489691 83.2284412 132.489691 72.5525495 132.584948 72.4377807 132.587216 25 133 25 129.597938 36.1540951 123.247423 58.5340159 123.070515 59.0122193 123.068247 59.1700264 123.065979 59.6482299 123.059175 70.393461 122.975258 70.8740555 122.97299 71.0270806 122.970722 71.505284 122.968454 74.9507398 122.941237 75.0415984 122.938969 83.5416645 122.870928 83.611004 122.870928 149.93782 122.340206 151.561321 122.328866 151.72391 122.328866 152.962457 122.317526 161.964637 122.247216 162.44284 122.240412 162.885178 122.235876 163.114716 122.235876 165.914597 122.215464 166.469313 122.20866 167.212919 122.204124 169.544161 122.183711 173.243065 122.154227 173.721268 122.149691 174.553342 122.145155 174.708758 122.145155 192.572048 122"></polygon>
                            <polygon id="Shape" stroke="none" fill="#000000" fill-rule="nonzero" opacity="0.2" points="206 128.463918 206 131.412371 169.675667 131.729897 169.288322 131.736701 155.482589 131.856907 155.152629 131.861443 150.956394 131.895464 150.832061 131.895464 125.252959 132.12 83.2643065 132.489691 83.2284412 132.489691 72.5525495 132.584948 72.4377807 132.587216 25 133 25 129.597938 36.1540951 123.247423 58.5340159 123.070515 59.0122193 123.068247 59.1700264 123.065979 59.6482299 123.059175 70.393461 122.975258 70.8740555 122.97299 71.0270806 122.970722 71.505284 122.968454 74.9507398 122.941237 75.0415984 122.938969 83.5416645 122.870928 83.611004 122.870928 149.93782 122.340206 151.561321 122.328866 151.72391 122.328866 152.962457 122.317526 161.964637 122.247216 162.44284 122.240412 162.885178 122.235876 163.114716 122.235876 165.914597 122.215464 166.469313 122.20866 167.212919 122.204124 169.544161 122.183711 173.243065 122.154227 173.721268 122.149691 174.553342 122.145155 174.708758 122.145155 192.572048 122"></polygon>
                            <path d="M71,115 L70.9999998,121.245114 C71.0002568,121.848873 70.6825319,122.398816 70.1838032,122.657851 C70.0018634,122.754317 69.8029652,122.806517 69.6008056,122.810855 L61.4621588,122.99956 C61.2448029,123.005261 61.0292226,122.955493 60.8325214,122.854206 C60.3247338,122.599697 59.9994025,122.04464 60.0000008,121.433819 L60,115 L71,115 Z" id="Shape" stroke="none" fill="#3F3D56" fill-rule="nonzero"></path>
                            <path d="M71,115 L70.9999998,121.245114 C71.0002568,121.848873 70.6825319,122.398816 70.1838032,122.657851 C70.0018634,122.754317 69.8029652,122.806517 69.6008056,122.810855 L61.4621588,122.99956 C61.2448029,123.005261 61.0292226,122.955493 60.8325214,122.854206 C60.3247338,122.599697 59.9994025,122.04464 60.0000008,121.433819 L60,115 L71,115 Z" id="Shape" stroke="none" fill="#000000" fill-rule="nonzero" opacity="0.1"></path>
                            <path d="M71,115 L70.9999998,121.245114 C71.0002568,121.848873 70.6825319,122.398816 70.1838032,122.657851 C70.0018634,122.754317 69.8029652,122.806517 69.6008056,122.810855 L61.4621588,122.99956 C61.2448029,123.005261 61.0292226,122.955493 60.8325214,122.854206 C60.3247338,122.599697 59.9994025,122.04464 60.0000008,121.433819 L60,115 L71,115 Z" id="Shape" stroke="none" fill="#3F3D56" fill-rule="nonzero"></path>
                            <rect id="Rectangle-path" stroke="none" fill="#3F3D56" fill-rule="nonzero" x="163" y="115" width="11" height="8"></rect>
                            <rect id="Rectangle-path" stroke="none" fill="#000000" fill-rule="nonzero" opacity="0.1" x="163" y="115" width="11" height="8"></rect>
                            <rect id="Rectangle-path" stroke="none" fill="#3F3D56" fill-rule="nonzero" x="163" y="115" width="11" height="8"></rect>
                            <polygon id="Shape" stroke="none" fill="#000000" fill-rule="nonzero" opacity="0.1" points="55 63 55 64 51 63.9144852 51 63"></polygon>
                            <path d="M84.990018,25.1164936 L79.5370741,64.1173813 C79.4654919,64.6331629 79.016086,65.0130345 78.4932999,64.9996574 L34.8315329,63.8724367 L34.0027237,63.8510337 C33.7108678,63.8441462 33.4357467,63.7139208 33.2461317,63.4929098 C33.0565167,63.2718989 32.9703272,62.9809888 33.009108,62.6928976 L39.1308316,21.8656269 C39.2126388,21.3413656 39.6835615,20.9664738 40.2152103,21.0023755 L84.0346183,23.9559793 C84.3204428,23.9724736 84.5863008,24.1072773 84.7677971,24.327739 C84.9492933,24.5482006 85.0298729,24.8342109 84.990018,25.1164936 Z" id="Shape" stroke="none" fill="#65617D" fill-rule="nonzero"></path>
                            <polygon id="Shape" stroke="none" fill="#9AA8FF" fill-rule="nonzero" points="42.6106753 23 38 59.7071365 78.0720874 61 83 25.5857271"></polygon>
                            <rect id="Rectangle-path" stroke="none" fill="#65617D" fill-rule="nonzero" x="92" y="23" width="49" height="41" rx="5.33"></rect>
                            <rect id="Rectangle-path" stroke="none" fill="#9AA8FF" fill-rule="nonzero" x="94" y="25" width="44" height="34"></rect>
                            <polygon id="Shape" stroke="none" fill="#000000" fill-rule="nonzero" opacity="0.1" points="176 63 176 63.9066986 172 64 172 63"></polygon>
                            <path d="M198.998402,63.2786913 C199.011726,63.4802235 198.941308,63.6784075 198.803425,63.8274356 C198.665541,63.9764637 198.472126,64.063437 198.267884,64.0682528 L152.683596,64.9998391 C152.290813,65.0078614 151.95833,64.7148854 151.921423,64.3282304 L148.003415,24.0605915 C147.983867,23.8587035 148.048833,23.6577125 148.18318,23.5044357 C148.317526,23.3511589 148.509524,23.2589781 148.714452,23.2493651 L193.952961,21.0251125 L194.439973,21.0010405 C194.842381,20.9800816 195.18918,21.2781954 195.224062,21.6750564 L198.998402,63.2786913 Z" id="Shape" stroke="none" fill="#65617D" fill-rule="nonzero"></path>
                            <polygon id="Shape" stroke="none" fill="#9AA8FF" fill-rule="nonzero" points="149 24.0315385 189.573261 22 193 59.025641 152.747174 60"></polygon>
                            <path d="M196.998733,63.2116897 C197.009293,63.4129026 196.953484,63.6107725 196.844205,63.7595644 C196.734926,63.9083564 196.581636,63.9951918 196.419766,64 L193,21.0250727 L193.385978,21.0010388 C193.704904,20.9801131 193.979757,21.2777545 194.007403,21.6739866 L196.998733,63.2116897 Z" id="Shape" stroke="none" fill="#000000" fill-rule="nonzero" opacity="0.1"></path>
                            <path d="M41,21.0028664 L35.0287318,64 L34.1106857,63.9785348 C33.787406,63.9716272 33.4826629,63.8410231 33.2726324,63.6193693 C33.0626018,63.3977156 32.9671324,63.1059593 33.0100886,62.8170303 L39.7909306,21.8710135 C39.8805168,21.3413426 40.4072927,20.9631021 41,21.0028664 Z" id="Shape" stroke="none" fill="#000000" fill-rule="nonzero" opacity="0.1"></path>
                            <rect id="Rectangle-path" stroke="none" fill="#000000" fill-rule="nonzero" opacity="0.1" x="51" y="73" width="4" height="4"></rect>
                            <polygon id="Shape" stroke="none" fill="#000000" fill-rule="nonzero" opacity="0.1" points="71 115 71 115.797753 60 116 60 115"></polygon>
                            <path d="M92,74.937362 L92,114.852373 C91.9939457,115.358421 91.5864338,115.770792 91.0736842,115.789735 L44.962406,117 L44.9503759,117 C44.4282085,116.993602 44.0064873,116.577655 44,116.062638 L44,74.937362 C44.0064873,74.4223449 44.4282085,74.0063985 44.9503759,74 L91.0496241,74 C91.5717915,74.0063985 91.9935127,74.4223449 92,74.937362 Z" id="Shape" stroke="none" fill="#65617D" fill-rule="nonzero"></path>
                            <path d="M45,74 L45,117 L44.9875,117 C44.4449354,116.993602 44.0067407,116.577655 44,116.062638 L44,74.937362 C44.0067407,74.4223449 44.4449354,74.0063985 44.9875,74 L45,74 Z" id="Shape" stroke="none" fill="#000000" fill-rule="nonzero" opacity="0.1"></path>
                            <polygon id="Shape" stroke="none" fill="#D4DFEC" fill-rule="nonzero" points="45 76 87 76 87 112.027915 45 113"></polygon>
                            <rect id="Rectangle-path" stroke="none" fill="#000000" fill-rule="nonzero" opacity="0.1" x="172" y="73" width="4" height="4"></rect>
                            <polygon id="Shape" stroke="none" fill="#000000" fill-rule="nonzero" opacity="0.1" points="174 115 174 116 163 115.803432 163 115"></polygon>
                            <path d="M189,74.937362 L189,116.062638 C188.993416,116.582242 188.564541,117.000041 188.037787,117 L141.92613,115.789735 C141.413483,115.770792 141.006053,115.358421 141,114.852373 L141,74.937362 C141.006486,74.4223449 141.428123,74.0063985 141.950185,74 L188.040192,74 C188.566009,74.0012563 188.993429,74.4186808 189,74.937362 Z" id="Shape" stroke="none" fill="#65617D" fill-rule="nonzero"></path>
                            <path d="M188,74.937362 L188,116.062638 C187.993157,116.582242 187.54744,117.000041 187,117 L187,74 C187.54744,73.9999594 187.993157,74.4177578 188,74.937362 Z" id="Shape" stroke="none" fill="#000000" fill-rule="nonzero" opacity="0.1"></path>
                            <polygon id="Shape" stroke="none" fill="#D4DFEC" fill-rule="nonzero" points="186 76 144 76 144 112.027915 186 113"></polygon>
                            <path d="M140,74.937362 L140,114.852373 C139.993946,115.358421 139.586434,115.770792 139.073684,115.789735 L92.962406,117 C92.4355467,117.000041 92.0065857,116.582242 92,116.062638 L92,74.937362 C92.0064873,74.4223449 92.4282085,74.0063985 92.9503759,74 L139.049624,74 C139.571791,74.0063985 139.993513,74.4223449 140,74.937362 Z" id="Shape" stroke="none" fill="#65617D" fill-rule="nonzero"></path>
                            <polygon id="Shape" stroke="none" fill="#D4DFEC" fill-rule="nonzero" points="94 76 136 76 136 112.027915 94 113"></polygon>
                            <polygon id="Shape" stroke="none" fill="#000000" fill-rule="nonzero" opacity="0.1" points="206 129 206 131.6 169.675667 131.88 169.288322 131.886 155.482589 131.992 155.152629 131.996 150.956394 132.026 150.832061 132.026 125.252959 132.224 83.2643065 132.55 83.2284412 132.55 72.5525495 132.634 72.4377807 132.636 25 133 25 130 73.4204888 129.734 73.5352576 129.734 83.336037 129.678 83.3814663 129.678 151.06638 129.304 151.13572 129.304 151.176367 129.302 151.288745 129.302 152.434042 129.296 152.783131 129.296 170.593818 129.196 171.645865 129.192 171.880185 129.19"></polygon>
                            <circle id="Oval" stroke="none" fill="#FBBEBE" fill-rule="nonzero" cx="116.5" cy="64.5" r="12.5"></circle>
                            <path d="M73,130.916547 C73,130.890319 73.0144362,130.861706 73.0240604,130.833093 C73.264664,129.977101 73.6929384,128.529783 74.0129412,127.37336 C74.0538438,127.230297 74.0923404,127.089619 74.1284309,126.956093 C74.4821182,125.651838 75.1702446,122.597449 75.5528043,120.69233 C75.6875423,120.022319 75.7934079,119.50014 75.8150623,119.237859 C75.863183,118.834899 76.5873998,117.110993 77.4078582,115.129574 C77.9829008,113.737096 78.6108762,112.215863 79.0704291,110.933067 C79.3712531,110.171101 79.6070689,109.385477 79.7753977,108.584453 C79.8114683,108.41705 79.8114683,108.243985 79.7753977,108.076581 C79.7031655,107.80402 79.6643886,107.523817 79.659908,107.242048 C79.6045691,105.763733 80.0496858,103.427042 80.7378121,102.447062 C81.5799248,101.254873 82.1814338,96.8056214 82.1814338,96.8056214 C82.1814338,96.8056214 83.4277605,96.9844498 83.6250555,95.9639357 C83.6459039,95.8539392 83.6539766,95.7419389 83.6491158,95.6301226 C83.648607,95.5414872 83.6413685,95.4530154 83.6274615,95.3654565 C83.4133243,93.8776041 87.1691467,92.2943764 89.2816464,91.9534103 C89.5201737,91.9129 89.761485,91.8905804 90.0034572,91.8866476 C90.5166094,91.831281 91.0213649,91.7160321 91.5072298,91.5432971 C91.7317932,91.4749449 91.9723968,91.3954656 92.2290406,91.3048592 C93.1144619,91.0091962 94.1731178,90.618158 95.2967367,90.1889698 C99.5217361,88.5652078 104.636969,86.3739635 104.636969,86.3739635 C104.673059,86.2046726 104.713962,86.0425348 104.759677,85.8827814 C105.272161,83.8439494 106.73264,82.1682308 108.693546,81.3691521 C108.693546,81.2117831 108.693546,81.0520297 108.693546,80.8922763 C108.693546,80.0696655 108.657455,79.223211 108.621365,78.3791409 C108.621365,78.2146187 108.606928,78.0500966 108.597304,77.8855744 C108.597304,77.8378868 108.597304,77.7878149 108.597304,77.7401273 C108.597304,77.6924397 108.597304,77.656674 108.597304,77.6161396 C108.597304,77.4492331 108.580462,77.2823266 108.570838,77.1178044 L108.527529,77.0844231 C108.157886,76.807745 107.840258,76.4687627 107.589175,76.0829839 C107.449401,75.8575565 107.334839,75.617702 107.247518,75.3676703 C106.946764,74.5593658 106.876988,73.6580705 106.674881,72.8044629 L106.631573,72.6280188 C106.368326,71.7666543 106.046792,70.9238531 105.669158,70.1053459 C105.137424,68.8130125 104.728398,67.4825291 104.321778,66.1353549 C104.074758,65.3198973 103.825333,64.5028502 103.573501,63.6842134 L103.193347,62.4347988 C103.121166,62.1963609 103.048985,61.957923 102.993646,61.7194851 C102.96678,61.6094038 102.945898,61.4979724 102.931089,61.3856721 C102.863569,61.0198239 102.883344,60.6433955 102.988834,60.2864734 C103.082335,60.0428299 103.188339,59.8040807 103.306431,59.5711597 C103.356787,59.4654316 103.397063,59.3552712 103.426733,59.2421154 C103.434556,59.2170511 103.440982,59.1915792 103.445981,59.1658153 C103.463123,59.0810185 103.471986,58.9947829 103.472447,58.9083023 C103.464119,58.5956004 103.422178,58.2846692 103.347334,57.9807789 C103.345853,57.9769405 103.345853,57.9726955 103.347334,57.968857 C103.344489,57.9471998 103.340473,57.9257095 103.335303,57.9044788 C103.292178,57.6679488 103.263255,57.4290911 103.248686,57.1891651 C103.164043,55.8980924 103.45373,54.6099577 104.083581,53.4766871 L104.129295,53.3908494 C104.261952,53.1604626 104.409845,52.9390265 104.572006,52.7279921 C104.646593,52.6278482 104.723586,52.532473 104.812609,52.4370979 C104.475764,52.7566046 103.922376,52.6159263 103.609591,52.2725757 C103.557884,52.2188702 103.513405,52.158762 103.477259,52.0937473 C103.456437,52.0592347 103.43795,52.0233902 103.421921,51.9864502 C103.40989,51.9578377 103.400266,51.9268408 103.390642,51.8958438 C103.22222,51.311671 103.515756,50.6893481 103.900722,50.2148567 C104.279952,49.7526775 104.749762,49.3714526 105.281787,49.0941986 C105.312848,49.0756506 105.344984,49.058931 105.378028,49.0441266 C105.582317,48.9425608 105.794781,48.8580209 106.013222,48.7913824 C106.141867,48.7491715 106.272801,48.7141456 106.405405,48.6864698 L105.512766,48.6054009 L105.151861,48.5720196 C105.519375,47.1272285 106.780141,46.0786789 108.279708,45.9706621 L108.539559,45.9706621 C108.666034,45.972594 108.792234,45.9829496 108.917307,46.0016591 C108.507626,45.8237338 108.253174,45.4117126 108.279708,44.969223 C108.909725,45.4579815 109.690933,45.7157591 110.490855,45.6988429 L110.582284,45.6988429 C110.540655,45.4406228 110.513346,45.1803348 110.500479,44.919151 C110.476418,44.5650743 110.476418,44.2097947 110.500479,43.855718 C110.936883,44.2658854 111.534312,44.4632359 112.131771,44.3945876 L111.631316,43.7031177 C112.07733,44.0557574 112.640409,44.2301357 113.209676,44.1919154 L113.325165,44.1799935 C113.422025,44.1699512 113.517824,44.1516022 113.611484,44.1251528 L113.633138,44.1251528 C113.587423,44.0679277 113.546521,44.0083183 113.505618,43.9463244 L113.491182,43.9177119 C113.391117,43.7617564 113.310336,43.594444 113.250578,43.4193767 C113.226569,43.3516186 113.207276,43.2823091 113.192833,43.2119357 C113.087901,42.7784347 113.125846,42.3230233 113.301105,41.9124492 C114.078255,42.5562315 114.929991,43.4360673 115.947745,42.7708256 C116.965498,42.1055838 116.999182,40.8847818 118.594384,41.0087695 C119.487262,41.0922444 120.263088,41.6517355 120.617861,42.4680094 C121.079182,41.9513322 121.821482,41.7834922 122.46329,42.0507431 C123.094196,42.3471169 123.468203,43.0052896 123.396832,43.6935802 C124.058492,43.5290581 124.770679,43.3669203 125.405873,43.6148957 C126.041066,43.8628711 126.450092,44.6664068 126.089187,45.2028921 C126.079351,45.2197105 126.068082,45.2356644 126.055502,45.2505797 C125.75956,45.6296959 125.105118,45.8371369 125.174893,46.3140127 L125.275947,46.3855441 L125.588731,46.6096757 C126.81581,47.4871271 128.010808,48.409087 129.173725,49.3755553 C129.770422,49.8715061 130.405616,50.4676008 130.446518,51.242524 C130.453691,51.4326286 130.434258,51.6228016 130.388773,51.8076218 C130.350277,51.9936034 130.297344,52.1795849 130.256441,52.3655665 C130.153529,52.8392596 130.125927,53.3259784 130.174636,53.8081158 C130.191478,53.9487941 130.213133,54.0870881 130.239599,54.2277664 C130.607723,56.0708914 132.094653,57.5921252 132.241421,59.4734001 L132.241421,59.6069254 C132.250275,59.8081492 132.244646,60.0097424 132.224579,60.2101732 C132.113901,61.3546751 131.579761,62.4538738 131.146675,63.5483038 C131.120208,63.6150664 131.093742,63.681829 131.069682,63.7485916 C130.234787,65.8945327 129.75358,68.1811521 129.385456,70.4630027 C129.266699,71.2725802 129.106085,72.0755829 128.904249,72.8688411 C128.68474,73.7766903 128.266663,74.6256679 127.679577,75.3557484 C127.444983,75.630287 127.172884,75.8710459 126.871149,76.071062 C126.668065,76.1999054 126.454843,76.3123345 126.233549,76.4072595 C126.233549,76.4072595 126.233549,76.4072595 126.233549,76.4215657 C126.260015,76.5670129 126.28167,76.71246 126.308136,76.8579071 C126.322572,76.9342072 126.334603,77.0105074 126.349039,77.096345 C126.347995,77.1010577 126.347995,77.1059385 126.349039,77.1106513 C126.551146,78.2384625 126.782125,79.34243 127.025135,80.3915567 L127.147843,80.9137357 C130.179448,81.9986281 130.537948,84.2208693 130.559602,85.0720926 C130.56812,85.1855912 130.56812,85.2995601 130.559602,85.4130588 C130.559602,85.4130588 135.131071,85.5322777 136.935598,86.8436862 C137.272848,87.0705585 137.637378,87.2547876 138.02072,87.3920933 C138.748405,87.6645485 139.491533,87.8946358 140.246303,88.0811788 C140.633675,88.1813227 141.037889,88.2790823 141.449321,88.3744574 C142.171132,88.5389796 142.936252,88.698733 143.674905,88.8513332 C145.645448,89.2447558 147.500502,89.5666469 148.441262,89.8050848 C150.686094,90.3677982 155.820575,95.2462376 155.820575,95.2462376 C155.820575,95.2462376 156.422084,100.167596 157.023593,100.885294 C157.625102,101.602992 158.707818,104.125665 158.707818,104.125665 L162.687402,111.138123 L164.371627,114.0876 L165.454344,114.0876 C165.603518,114.0876 165.897054,114.297425 166.226681,114.58832 C166.513,114.841064 166.830596,115.155802 167.109697,115.441927 L167.571655,115.930725 L167.86038,116.247847 C167.86038,116.247847 169.609568,116.290766 170.083557,117.661784 C171.507931,117.62125 173.257119,117.71424 174.481791,118.257879 C174.648907,118.330781 174.809829,118.416896 174.962998,118.515392 C175.470867,118.806892 175.831526,119.296712 175.956691,119.86495 C175.981167,119.977936 175.995658,120.092821 176,120.208301 C176,120.34421 176,120.48012 176,120.613645 C175.913383,122.41862 174.727207,123.920779 173.637273,124.931756 L173.714266,125.067665 C173.714266,125.067665 173.678175,125.153503 173.6084,125.306103 C173.589152,125.351406 173.565091,125.401478 173.538625,125.458703 C173.396669,125.759135 173.170502,126.209783 172.874559,126.73673 C172.246603,127.877313 171.47268,128.932779 170.571983,129.876958 L170.502207,129.948489 L156.609755,130.074861 L156.568852,130.027173 L153.874092,126.841643 L152.53393,125.258415 L152.493027,125.208344 L152.454531,125.58746 L152.324605,126.851181 L152.01182,129.90557 L151.994978,130.05817 L151.994978,130.098705 L151.958887,130.451593 L151.985354,130.098705 L151.915578,130.098705 L126.170992,130.337143 L83.9161858,130.799712 L83.9161858,131 L83.8825013,131 L83.8825013,130.799712 L73.1154897,130.914162 L73,130.916547 Z" id="Shape" stroke="none" fill="url(#linearGradient-3)" fill-rule="nonzero"></path>
                            <path d="M129,90.7517495 C129,90.7517495 104.84936,93.5603131 107.1552,90.7517495 C107.990157,89.7359857 108.220741,86.7261417 108.174624,83.2973536 C108.160061,82.2558446 108.121225,81.176888 108.0654,80.1026125 C107.798408,74.9535792 107.1552,69.9215693 107.1552,69.9215693 C107.1552,69.9215693 128.27184,60.3256436 125.84464,67.9321701 C124.87376,71.0052068 125.191723,75.3210329 125.929592,79.3723859 C126.145613,80.5543231 126.395614,81.7128556 126.657752,82.8128763 C127.297499,85.495974 128.079272,88.1457326 129,90.7517495 Z" id="Shape" stroke="none" fill="#FFC0C0" fill-rule="nonzero"></path>
                            <path d="M129,90.71884 C129,90.71884 104.84936,93.60145 107.1552,90.71884 C107.990157,89.676296 108.220741,86.5870989 108.174624,83.0679124 C111.856686,81.511303 116.541182,82.6715535 116.541182,82.6715535 C121.473253,81.6986726 124.635894,81.8884444 126.657752,82.5706622 C127.297499,85.3244984 128.079272,88.0441167 129,90.71884 Z" id="Shape" stroke="none" fill="#000000" fill-rule="nonzero" opacity="0.1"></path>
                            <path d="M83.7304287,133 L83.7304287,132.795708 L125.691637,132.331187 L151.257344,132.087983 L151.329023,132.087983 L151.302741,132.447926 L151.33858,132.087983 L151.383978,132.087983 L151.383978,132.046638 L151.711314,128.775536 L151.835559,127.537625 L151.873788,127.15093 L151.907238,126.827468 L153.383837,121.815021 L154.860436,116.809871 L156.102881,112.595136 L158,106.155079 C158,106.155079 156.924807,103.601431 156.327477,102.871817 C155.730148,102.142203 155.132818,97.1565094 155.132818,97.1565094 C155.132818,97.1565094 150.034013,92.2121603 147.804779,91.6430616 C146.870555,91.399857 145.026001,91.076395 143.06676,90.6702433 C142.33324,90.5194565 141.580604,90.3589415 140.856641,90.1838342 C140.448067,90.0889844 140.046662,89.9892705 139.661982,89.8895566 C138.913282,89.6992034 138.175456,89.4669963 137.451862,89.1939915 C137.07248,89.0536996 136.711397,88.8666624 136.376669,88.637053 C134.62052,87.3261804 130.219396,87.1778256 130.049754,87.1778256 C130.049289,87.1721607 130.049289,87.1664661 130.049754,87.1608013 L130.049754,87.1389128 C130.055922,87.0368634 130.055922,86.9345245 130.049754,86.8324751 C130.049754,86.7351933 130.049754,86.6208871 130.02825,86.4919887 C130.02825,86.4530759 130.02825,86.4117312 130.011525,86.3703864 C129.999578,86.2828327 129.985242,86.190415 129.963739,86.0931332 C129.956484,86.0496698 129.946912,86.0066401 129.935067,85.9642347 C129.865826,85.6711862 129.76569,85.3866077 129.636402,85.1154508 C129.619677,85.076538 129.598173,85.0351933 129.579058,84.9962805 C129.461918,84.7716189 129.326023,84.557622 129.172874,84.3566525 C129.141813,84.3153077 129.108363,84.2715309 129.072523,84.2301861 C128.876801,83.9952756 128.65915,83.7802482 128.422628,83.588126 C128.358117,83.5370531 128.291216,83.4835481 128.221926,83.4349071 C128.183271,83.4029888 128.142562,83.3737389 128.10007,83.3473535 L127.887421,83.2062948 L127.689108,83.0895566 C127.514687,82.9922748 127.33071,82.897425 127.130007,82.8074393 C127.067885,82.7782548 127.000984,82.7515023 126.934083,82.7247498 C126.867182,82.6979973 126.762052,82.6566525 126.673647,82.6226038 L126.659311,82.6226038 L126.480112,82.5496425 C126.343921,82.5034336 126.205341,82.4620888 126.059592,82.420744 L125.837386,82.362375 L125.598454,82.3064379 L125.359522,82.2553649 C125.12059,82.206724 124.864933,82.1629472 124.59733,82.1288986 L124.324947,82.0948499 L124.045397,82.0656654 L123.75629,82.0413449 L123.345327,82.0170245 L122.867463,82.0000001 C120.759909,81.999801 118.658284,82.2272548 116.597892,82.6785409 C115.166536,82.3543375 113.700439,82.2170381 112.234996,82.2699572 L112.027126,82.2699572 L111.788194,82.2845495 L111.635278,82.2845495 L111.327056,82.313734 C111.224315,82.313734 111.119185,82.3356224 111.016444,82.3502147 C110.913703,82.364807 110.806184,82.3769672 110.703443,82.3939915 L110.545748,82.420744 C110.390443,82.4474966 110.232748,82.4766811 110.067885,82.5107297 C110.01532,82.5204579 109.962755,82.5326182 109.91019,82.5472104 C109.702319,82.5934193 109.494448,82.6493564 109.288967,82.7125895 C109.186226,82.7417741 109.083486,82.7758227 108.980745,82.8123034 C108.92818,82.8268957 108.878004,82.8463521 108.827829,82.8658084 L108.674912,82.9217455 L108.524385,82.9825466 L108.345186,83.055508 C108.254392,83.0944207 108.165987,83.1357655 108.077583,83.1795423 C108.027407,83.2014307 107.977231,83.2257512 107.929445,83.2525037 C107.881658,83.2792562 107.831483,83.3011446 107.786086,83.3278971 C107.245847,83.6120378 106.746577,83.9704766 106.302319,84.3931332 L106.180464,84.5123034 L106.060998,84.6363377 C106.020379,84.6776825 105.98215,84.7214594 105.943921,84.7652362 C105.788208,84.9385 105.642988,85.1212406 105.509065,85.3124465 C105.470836,85.3635194 105.434996,85.4145924 105.399157,85.4680974 C105.247528,85.6957162 105.110264,85.9329133 104.988194,86.1782548 C104.957133,86.2366239 104.928461,86.297425 104.899789,86.3557941 C104.704811,86.7666603 104.544933,87.1938444 104.421926,87.6326181 C104.377325,87.7947545 104.336706,87.9568909 104.30007,88.1190273 C104.30007,88.1190273 99.2418833,90.390558 95.0462403,92.034621 C93.9304287,92.4723892 92.8791286,92.8688127 91.9998595,93.1679543 C91.7442024,93.255508 91.5052706,93.3357655 91.2830639,93.4111589 C90.8009224,93.5885497 90.2995312,93.7061361 89.78974,93.7613735 C89.5494491,93.7653848 89.3098144,93.7881507 89.0729445,93.8294708 C87.1447646,94.1480688 83.8403373,95.5319028 83.4795502,96.920601 C83.450258,97.0314951 83.4421469,97.1470812 83.4556571,97.2610874 C83.4556571,97.2610874 83.4556571,97.2781117 83.4556571,97.2878399 C83.6945889,98.9902719 82.0220661,98.7470673 82.0220661,98.7470673 C82.0220661,98.7470673 81.4247365,103.246352 80.5884751,104.462375 C79.9839775,105.337911 79.5706254,107.290844 79.5180604,108.764664 C79.488019,109.22385 79.5234294,109.685045 79.6231904,110.133906 C79.6231904,110.146066 79.6231904,110.158226 79.6231904,110.167954 C79.7187632,110.493848 79.4893886,111.383977 79.0999297,112.524607 C78.6770204,113.77711 78.0605762,115.33362 77.4680253,116.802575 C76.5744202,119.020601 75.7333802,121.034335 75.6808152,121.476967 C75.6593113,121.673963 75.597189,122.026609 75.5111736,122.481402 C75.1623331,124.334621 74.388194,127.863519 74.005903,129.29113 C73.7215741,130.356366 73.3082221,131.815594 73.0238932,132.817597 C73.0238932,132.846781 73.007168,132.875966 73,132.902718 L83.7113141,132.795708 L83.7113141,133 L83.7447646,133 L83.7304287,133 Z" id="Shape" stroke="none" fill="#9AA8FF" fill-rule="nonzero"></path>
                            <path d="M86,104 C86,104 99.9741935,111.855142 105,110.923176 L86,104 Z" id="Shape" stroke="none" fill="#000000" fill-rule="nonzero" opacity="0.1"></path>
                            <path d="M115,101 C115,101 128.794,104.479946 133.392,104.963272 C137.99,105.446597 115,101 115,101 Z" id="Shape" stroke="none" fill="#000000" fill-rule="nonzero" opacity="0.1"></path>
                            <path d="M129,87.8083317 C122.23694,89.3687355 109.503731,89.0326935 104,88.796003 C106.017257,79.7374791 115.854011,82.8173772 115.854011,82.8173772 C128.029851,79.7725443 128.962687,86.0901343 129,87.8083317 Z" id="Shape" stroke="none" fill="#000000" fill-rule="nonzero" opacity="0.1"></path>
                            <path d="M129,87.8083317 C122.23694,89.3687355 109.503731,89.0326935 104,88.796003 C106.017257,79.7374791 115.854011,82.8173772 115.854011,82.8173772 C128.029851,79.7725443 128.962687,86.0901343 129,87.8083317 Z" id="Shape" stroke="none" fill="#9AA8FF" fill-rule="nonzero"></path>
                            <path d="M167,121.246438 C167,121.246438 174.84202,119.792955 174.995831,123.945763 C175.149641,128.098571 170.996767,131 170.996767,131 L167,121.246438 Z" id="Shape" stroke="none" fill="#FFC0C0" fill-rule="nonzero"></path>
                            <path d="M125.904647,80.248509 C125.545841,80.4115665 125.179036,80.5557786 124.805681,80.6805757 C122.173049,81.6043044 119.518437,82.5354826 116.746602,82.8731899 C113.974767,83.2108972 111.066172,82.9129202 108.648448,81.5074619 C108.394589,81.3616701 108.149902,81.1999532 107.915804,81.0232492 C107.647169,75.5603372 107,70.2215822 107,70.2215822 C107,70.2215822 128.246664,60.0407006 125.804519,68.1109116 C124.832545,71.3712769 125.162235,75.9501904 125.904647,80.248509 Z" id="Shape" stroke="none" fill="#000000" fill-rule="nonzero" opacity="0.1"></path>
                            <path d="M113.961126,46.1101407 C113.249836,46.293185 112.491603,46.1377877 111.916261,45.6910525 L112.427477,46.3831468 C111.817655,46.4517197 111.207861,46.25454 110.761109,45.844319 C110.71475,46.4638735 110.741137,47.0865597 110.839757,47.7002813 C109.993871,47.7400347 109.161042,47.4853839 108.490128,46.9818443 C108.463278,47.4243347 108.722231,47.8362628 109.13898,48.0139988 C107.381241,47.8094009 105.740474,48.906985 105.304857,50.5788189 L106.587814,50.6937688 C105.579537,50.9035889 104.674598,51.4415914 104.021901,52.21925 C103.628658,52.698208 103.32881,53.3112743 103.500853,53.895603 C103.672897,54.4799318 104.503624,54.853519 104.955854,54.4368255 C103.653683,55.9511865 103.104922,57.9488597 103.456614,59.8945519 C103.573269,60.3041286 103.611592,60.7311224 103.569671,61.1542115 C103.488565,61.5493518 103.232956,61.8918068 103.105152,62.277368 C102.859375,62.9766467 103.092864,63.7357951 103.311605,64.432679 L104.4643,68.1254452 C104.882121,69.4593432 105.297484,70.795636 105.843109,72.0864278 C106.22948,72.9025169 106.557953,73.7434648 106.826218,74.6033521 C107.135897,75.7624305 107.148186,77.0316692 107.809326,78.0446653 C108.262436,78.6821428 108.868131,79.2024488 109.574005,79.5605674 C112.004741,80.9160185 114.941777,81.2033933 117.723974,80.8777019 C120.50617,80.5520105 123.17531,79.6539642 125.822329,78.7631023 C126.410369,78.5905156 126.974837,78.3492861 127.503444,78.0446653 C129.334484,76.8760078 129.742474,74.4860074 130.084104,72.380987 C130.465058,70.0340928 130.973817,67.6919882 131.875819,65.4839918 C132.411613,64.1692521 133.104704,62.8353541 132.986731,61.4272175 C132.836807,59.5568866 131.317905,58.0409845 130.941866,56.2017858 C130.815984,55.5870032 130.821841,54.9535069 130.95907,54.3410339 C131.07569,53.9761222 131.141006,53.5974914 131.153234,53.2154827 C131.111452,52.4443603 130.4626,51.8504524 129.853073,51.3547308 C128.530792,50.2786719 127.16591,49.2616844 125.758427,48.3037684 C125.687151,47.8248104 126.355665,47.6188584 126.657971,47.2404816 C127.085623,46.7064434 126.643224,45.8586878 125.994373,45.6096296 C125.345521,45.3605715 124.618021,45.5234172 123.942134,45.6886577 C124.032562,44.9964214 123.645675,44.3284976 122.990737,44.0461624 C122.3358,43.7638273 121.568314,43.9341159 121.103409,44.46492 C120.737807,43.6481054 119.944712,43.0900946 119.033966,43.0088877 C117.404464,42.8843586 117.372513,44.0985171 116.330418,44.7666635 C115.288323,45.43481 114.428103,44.5535272 113.62687,43.9117235 C113.327242,44.6500942 113.45466,45.4881312 113.961126,46.1101407 Z" id="Shape" stroke="none" fill="#3F3D56" fill-rule="nonzero"></path>
                            <path d="M172,126.454178 C172,126.454178 171.789685,126.956636 171.402137,127.684252 C170.815909,128.803684 170.102213,129.851149 169.275352,130.805653 L169.211548,130.874386 L168.828727,130.874386 L155.184219,131 L154.858112,131 L154.817939,130.952598 L152.171273,127.802756 L151.174047,126.615344 L151.133874,126.565572 L151.048803,126.466029 L151.001541,126.409147 L150.940101,126.335674 L149,124.027212 L149.708928,121.064607 L150.91647,116.073209 L150.94719,115.952335 L151.183499,115.004301 L151.351279,114.293276 L151.913696,111.975334 L153.841981,104 L157.268468,105.777563 L160.88164,112.176791 L162.82174,115.613413 L163.885133,115.613413 C164.085996,115.613413 164.5468,116.002107 165.009966,116.450053 C165.175383,116.608848 165.340799,116.777124 165.482585,116.92407 C165.903216,117.360165 166.236412,117.734638 166.236412,117.734638 C166.236412,117.734638 167.959108,117.77256 168.422275,119.132988 C168.446189,119.198822 168.465921,119.266109 168.481352,119.334445 C168.635097,119.869183 168.835146,120.389421 169.079215,120.889221 C169.384054,121.555214 169.766876,122.311271 170.154423,123.067328 C170.875167,124.453827 171.607726,125.773964 171.877119,126.252721 L171.910202,126.311973 L172,126.454178 Z" id="Shape" stroke="none" fill="#9AA8FF" fill-rule="nonzero"></path>
                            <path d="M150.99354,116.767234 L150.969882,117.107249 L150.969882,117.131026 L150.929663,117.677904 L150.61501,122.079084 L150.234113,127.381423 L150.125286,128.874638 L149.888704,132.070307 L149.888704,132.110729 L124.574477,132.348502 L83.0331214,132.800271 L83.0331214,133 L83,133 L83,132.800271 L83,132.733694 L83.1064617,129.319273 L83.3099218,122.647361 L83.4849922,116.99074 L83.5015529,116.427218 C83.5224711,115.739822 83.8237977,115.091337 84.3348084,114.633968 C84.8458191,114.176599 85.5215189,113.950619 86.2033143,114.009066 C87.3199793,114.104175 88.7702242,114.220684 90.5043671,114.344326 L91.2141117,114.396636 C101.228609,115.095689 119.736385,115.999227 138.412133,114.872182 C138.804858,114.850783 139.199949,114.827006 139.595041,114.798473 C142.490799,114.615388 145.384191,114.379992 148.249194,114.085154 C148.982366,114.007949 149.711911,114.261062 150.241558,114.776398 C150.771206,115.291734 151.046559,116.016366 150.99354,116.755345 L150.99354,116.767234 Z" id="Shape" stroke="none" fill="#000000" fill-rule="nonzero" opacity="0.1"></path>
                            <path d="M83,131.990516 L83,131.791353 L124.565758,131.338495 L149.890529,131.101396 L149.961533,131.101396 L149.961533,131.061089 L150.198213,127.874484 L150.299985,126.451892 L150.688141,121.091092 L150.993458,116.847026 L150.993458,116.742703 C151.00757,116.547142 150.998833,116.350599 150.967423,116.157069 C150.968747,116.149222 150.968747,116.141207 150.967423,116.13336 C150.902405,115.733214 150.739811,115.355328 150.494063,115.033222 C149.964239,114.35261 149.121334,113.994055 148.264536,114.084827 C145.39834,114.37883 142.503743,114.613557 139.606778,114.796123 C139.211523,114.824575 138.816267,114.848285 138.423378,114.869624 C119.739851,115.981616 101.224367,115.080642 91.2056989,114.395427 L90.4956586,114.343265 C88.7607935,114.219974 87.3099445,114.106166 86.1928145,114.008956 C84.9199475,113.901357 83.7716076,114.77437 83.5325302,116.031407 C83.5086328,116.15977 83.4943919,116.289749 83.4899278,116.420249 L83.3289853,121.674355 L83.1088728,128.329713 L83.0047336,131.73445 L83.0047336,131.800837 L83.0047336,132 L83,131.990516 Z" id="Shape" stroke="none" fill="#3F3D56" fill-rule="nonzero"></path>
                            <path d="M150.996193,116.682716 L150.705349,120.315353 L150.272628,125.72995 L150.163857,127.085377 L149.927398,130.120869 L149.913211,130.272525 L149.913211,130.312808 L149.877742,130.663513 L149.903752,130.312808 L149.835179,130.312808 L124.53405,130.549771 L83,131 L83,130.93365 L83.115865,127.530867 L83.3523241,120.881694 L83.503658,116.46234 C83.5187774,115.95154 83.7911632,115.483216 84.227223,115.218286 C84.4949825,115.053833 84.8080564,114.979133 85.1210386,115.00502 C85.6176028,115.045304 86.2276674,115.092696 86.9394095,115.144828 C88.0956947,115.230134 89.5215434,115.329659 91.1814866,115.433922 C94.2554556,115.628232 98.1121043,115.836759 102.531526,116.007372 C114.827402,116.481297 131.426834,116.640062 147.19393,115.2562 C147.903308,115.19459 148.636331,115.125871 149.352802,115.057152 C149.636399,115.028809 149.922132,115.083115 150.17568,115.213547 C150.247499,115.249396 150.315613,115.292257 150.379035,115.341507 C150.584879,115.490977 150.747955,115.691987 150.851953,115.924435 C150.876077,115.970681 150.895867,116.019071 150.911068,116.068982 C150.982101,116.265308 151.011105,116.474418 150.996193,116.682716 Z" id="Shape" stroke="none" fill="#000000" fill-rule="nonzero" opacity="0.1"></path>
                            <path d="M71,121 L70.9999998,121.335789 C71.0002568,121.585013 70.6825319,121.812021 70.1838032,121.918947 L60.8325214,122 C60.3247338,121.894942 59.9994025,121.665823 60.0000008,121.413684 L60.0000008,121.097895 L71,121 Z" id="Shape" stroke="none" fill="#000000" fill-rule="nonzero" opacity="0.1"></path>
                            <polygon id="Shape" stroke="none" fill="#3F3D56" fill-rule="nonzero" points="71 124.689762 59 125 59 122.310238 71 122"></polygon>
                            <polygon id="Shape" stroke="none" fill="#000000" fill-rule="nonzero" opacity="0.1" points="71 124.689762 59 125 59 122.310238 71 122"></polygon>
                            <polygon id="Shape" stroke="none" fill="#3F3D56" fill-rule="nonzero" points="72 124.689762 60 125 60 122.310238 72 122"></polygon>
                            <g id="Group" opacity="0.1" stroke="none" stroke-width="1" fill="none" fill-rule="evenodd" transform="translate(103.000000, 44.000000)">
                                <path d="M11.3346048,1.11720779 C10.9496327,0.812211077 10.6938392,0.454080855 10.5898399,0.0744805195 C10.4948736,0.445567083 10.5517254,0.825210702 10.7553432,1.17967532 C10.9509345,1.16866921 11.144688,1.14777484 11.3346048,1.11720779 Z" id="Shape" fill="#000000" fill-rule="nonzero"></path>
                                <path d="M8.03499576,2.71253247 C7.94974858,2.41798983 7.89391907,2.12125367 7.86774194,1.82357143 C7.86774194,2.11909091 7.86774194,2.41701299 7.86774194,2.71493506 L8.03499576,2.71253247 Z" id="Shape" fill="#000000" fill-rule="nonzero"></path>
                                <path d="M27.6894535,10.73 C27.714474,10.5159485 27.768863,10.3031534 27.852187,10.0933117 C28.0660058,9.72786486 28.1876111,9.34894965 28.2138169,8.96649351 C28.2036782,8.88064593 28.1794779,8.79543156 28.1414909,8.71181818 C28.0646445,8.93285714 27.9425944,9.1538961 27.852187,9.37253247 C27.671637,9.81823227 27.6167926,10.275725 27.6894535,10.73 Z" id="Shape" fill="#000000" fill-rule="nonzero"></path>
                                <path d="M22.6427419,3.30597403 L22.9064516,3.49577922 C23.1287762,3.33608297 23.3368063,3.15762852 23.5282258,2.9624026 C23.7134915,2.70793956 23.7485089,2.37483327 23.6201613,2.08785714 C23.5960624,2.14270373 23.5651797,2.19435659 23.5282258,2.24162338 C23.2306452,2.62123377 22.5725806,2.83025974 22.6427419,3.30597403 Z" id="Shape" fill="#000000" fill-rule="nonzero"></path>
                                <path d="M2.76290323,5.61727273 C2.67465936,5.87457044 2.60415227,6.14400783 2.55241935,6.42162055 C2.9308831,6.11357628 3.3385237,5.88888888 3.76209677,5.75485854 L2.76290323,5.61727273 Z" id="Shape" fill="#000000" fill-rule="nonzero"></path>
                                <path d="M6.43175248,3.27306889 C6.15716634,3.10674144 5.89445048,2.91775208 5.64586586,2.70772727 C5.63534112,2.8895585 5.6480046,3.07211463 5.68348809,3.25008752 C5.93307988,3.23700387 6.18321413,3.24468622 6.43175248,3.27306889 Z" id="Shape" fill="#000000" fill-rule="nonzero"></path>
                                <path d="M29.7532258,17.1593506 C29.6540323,18.3246104 29.1072581,19.4466234 28.6645161,20.5518182 C27.7766129,22.767013 27.2758065,25.1167532 26.9008065,27.4737013 C26.5645161,29.5855844 26.175,31.9833766 24.3604839,33.1534416 C23.8420197,33.461038 23.2869228,33.7031692 22.7080645,33.8742208 C20.1,34.7703896 17.4701613,35.668961 14.7241935,35.9957143 C11.9782258,36.3224675 9.09677419,36.0365584 6.7016129,34.6766883 C6.0071579,34.3168428 5.41105462,33.7949489 4.96451613,33.1558442 C4.31854839,32.1395455 4.30645161,30.8661688 3.99677419,29.7033117 C3.73271386,28.8398362 3.40937569,27.9953469 3.02903226,27.1757792 C2.49435484,25.8831818 2.08306452,24.5329221 1.67419355,23.2042857 C1.29516129,21.9693506 0.916935484,20.7336147 0.539516129,19.4970779 C0.415212582,19.1251067 0.322945525,18.7433235 0.263709677,18.3558442 C0.169354839,18.9709091 0.353225806,19.6148052 0.539516129,20.2178571 C0.916935484,21.4559957 1.29516129,22.6917316 1.67419355,23.9250649 C2.08306452,25.2633117 2.49435484,26.603961 3.02903226,27.8965584 C3.40937569,28.7161261 3.73271386,29.5606154 3.99677419,30.4240909 C4.3016129,31.5869481 4.31370968,32.8603247 4.96451613,33.8766234 C5.41105462,34.5157282 6.0071579,35.037622 6.7016129,35.3974675 C9.09677419,36.7573377 11.9854839,37.0432468 14.7241935,36.7164935 C17.4629032,36.3897403 20.0903226,35.4911688 22.7080645,34.595 C23.2869228,34.4239485 23.8420197,34.1818173 24.3604839,33.8742208 C26.1629032,32.7041558 26.5645161,30.3063636 26.9008065,28.1944805 C27.2758065,25.8375325 27.7766129,23.4877922 28.6645161,21.2725974 C29.1919355,19.955974 29.8741935,18.6177273 29.7580645,17.2025974 C29.7580645,17.1881818 29.7532258,17.1737662 29.7532258,17.1593506 Z" id="Shape" fill="#000000" fill-rule="nonzero"></path>
                                <path d="M0.983051313,16.2295455 C0.983051313,16.2295455 0.983051313,16.2127273 0.983051313,16.2031169 C1.06459949,15.7794571 0.994037121,15.3514201 0.775114131,14.9417532 C0.684930934,14.6780942 0.626049752,14.4116804 0.598819564,14.1440909 C0.546777983,14.6521588 0.605939228,15.1617201 0.775114131,15.6625325 C0.847440107,15.8499351 0.928806831,16.0397403 0.983051313,16.2295455 Z" id="Shape" fill="#000000" fill-rule="nonzero"></path>
                                <path d="M1.53387097,10.3527922 C1.71994287,10.042365 1.93112247,9.74747578 2.16532258,9.47103896 C1.72258065,9.89149351 0.90483871,9.51668831 0.733064516,8.93285714 C0.66975122,9.16900338 0.66975122,9.41749013 0.733064516,9.65363636 C0.854324292,10.0125094 1.15993974,10.2793314 1.53387097,10.3527922 Z" id="Shape" fill="#000000" fill-rule="nonzero"></path>
                            </g>
                            <path d="M163.5,115 C163.5,115 164.625,116.960703 163.5,118.665663 C162.375,120.370622 163.5,115 163.5,115 Z" id="Shape" stroke="none" fill="#000000" fill-rule="nonzero" opacity="0.1"></path>
                            <path d="M166.901063,119 C166.901063,119 167.34901,122.351731 166.338604,122.946319 C165.328197,123.540907 166.901063,119 166.901063,119 Z" id="Shape" stroke="none" fill="#000000" fill-rule="nonzero" opacity="0.1"></path>
                            <path d="M48,83 L71,82" id="Shape" stroke="#97A4F3" stroke-width="2" fill="none"></path>
                            <path d="M48,85.99 L71,85" id="Shape" stroke="#97A4F3" stroke-width="2" fill="none"></path>
                            <path d="M48,90 L71,89" id="Shape" stroke="#97A4F3" stroke-width="2" fill="none"></path>
                        </g>
                    </g>
                </g>
            </g>
        </g>
    </g>
</svg>